G04 #@! TF.FileFunction,Legend,Top*
%FSLAX46Y46*%
G04 Gerber Fmt 4.6, Leading zero omitted, Abs format (unit mm)*
G04 Created by KiCad (PCBNEW 4.0.2-stable) date 12/4/2017 4:29:08 PM*
%MOMM*%
G01*
G04 APERTURE LIST*
%ADD10C,0.100000*%
%ADD11C,0.120000*%
%ADD12C,0.150000*%
G04 APERTURE END LIST*
D10*
D11*
X176500000Y-107250000D02*
X175500000Y-107250000D01*
X175500000Y-108950000D02*
X176500000Y-108950000D01*
X159600000Y-109150000D02*
X158600000Y-109150000D01*
X158600000Y-110850000D02*
X159600000Y-110850000D01*
D12*
X163000000Y-109900000D02*
X172000000Y-109900000D01*
X163000000Y-100900000D02*
X172000000Y-100900000D01*
X163000000Y-100900000D02*
X163000000Y-109900000D01*
X172000000Y-105400000D02*
G75*
G03X172000000Y-105400000I-4500000J0D01*
G01*
X172900000Y-100150000D02*
X172900000Y-114650000D01*
X162100000Y-100150000D02*
X172900000Y-100150000D01*
X162100000Y-114650000D02*
X172900000Y-114650000D01*
X162100000Y-100150000D02*
X162100000Y-114650000D01*
X172000000Y-100900000D02*
X172000000Y-109900000D01*
X179900000Y-109900000D02*
X188900000Y-109900000D01*
X179900000Y-100900000D02*
X188900000Y-100900000D01*
X179900000Y-100900000D02*
X179900000Y-109900000D01*
X188900000Y-105400000D02*
G75*
G03X188900000Y-105400000I-4500000J0D01*
G01*
X189800000Y-100150000D02*
X189800000Y-114650000D01*
X179000000Y-100150000D02*
X189800000Y-100150000D01*
X179000000Y-114650000D02*
X189800000Y-114650000D01*
X179000000Y-100150000D02*
X179000000Y-114650000D01*
X188900000Y-100900000D02*
X188900000Y-109900000D01*
D11*
X176500000Y-109150000D02*
X175500000Y-109150000D01*
X175500000Y-110850000D02*
X176500000Y-110850000D01*
X159600000Y-107250000D02*
X158600000Y-107250000D01*
X158600000Y-108950000D02*
X159600000Y-108950000D01*
X177800000Y-142800000D02*
X177800000Y-141400000D01*
X177800000Y-141400000D02*
X175000000Y-141400000D01*
X177800000Y-142800000D02*
X175000000Y-142800000D01*
D12*
X163000000Y-124500000D02*
X172000000Y-124500000D01*
X163000000Y-115500000D02*
X172000000Y-115500000D01*
X163000000Y-115500000D02*
X163000000Y-124500000D01*
X172000000Y-120000000D02*
G75*
G03X172000000Y-120000000I-4500000J0D01*
G01*
X172900000Y-114750000D02*
X172900000Y-129250000D01*
X162100000Y-114750000D02*
X172900000Y-114750000D01*
X162100000Y-129250000D02*
X172900000Y-129250000D01*
X162100000Y-114750000D02*
X162100000Y-129250000D01*
X172000000Y-115500000D02*
X172000000Y-124500000D01*
X179900000Y-124500000D02*
X188900000Y-124500000D01*
X179900000Y-115500000D02*
X188900000Y-115500000D01*
X179900000Y-115500000D02*
X179900000Y-124500000D01*
X188900000Y-120000000D02*
G75*
G03X188900000Y-120000000I-4500000J0D01*
G01*
X189800000Y-114750000D02*
X189800000Y-129250000D01*
X179000000Y-114750000D02*
X189800000Y-114750000D01*
X179000000Y-129250000D02*
X189800000Y-129250000D01*
X179000000Y-114750000D02*
X179000000Y-129250000D01*
X188900000Y-115500000D02*
X188900000Y-124500000D01*
X163000000Y-139100000D02*
X172000000Y-139100000D01*
X163000000Y-130100000D02*
X172000000Y-130100000D01*
X163000000Y-130100000D02*
X163000000Y-139100000D01*
X172000000Y-134600000D02*
G75*
G03X172000000Y-134600000I-4500000J0D01*
G01*
X172900000Y-129350000D02*
X172900000Y-143850000D01*
X162100000Y-129350000D02*
X172900000Y-129350000D01*
X162100000Y-143850000D02*
X172900000Y-143850000D01*
X162100000Y-129350000D02*
X162100000Y-143850000D01*
X172000000Y-130100000D02*
X172000000Y-139100000D01*
X178850000Y-111650000D02*
X178850000Y-129050000D01*
X173100000Y-111650000D02*
X173100000Y-129050000D01*
X178850000Y-111650000D02*
X173100000Y-111650000D01*
X178850000Y-129050000D02*
X173100000Y-129050000D01*
X172000000Y-113600000D02*
X172000000Y-114600000D01*
X172500000Y-114100000D02*
X172000000Y-114600000D01*
X172500000Y-114100000D02*
X172000000Y-113600000D01*
X179900000Y-139100000D02*
X188900000Y-139100000D01*
X179900000Y-130100000D02*
X188900000Y-130100000D01*
X179900000Y-130100000D02*
X179900000Y-139100000D01*
X188900000Y-134600000D02*
G75*
G03X188900000Y-134600000I-4500000J0D01*
G01*
X189800000Y-129350000D02*
X189800000Y-143850000D01*
X179000000Y-129350000D02*
X189800000Y-129350000D01*
X179000000Y-143850000D02*
X189800000Y-143850000D01*
X179000000Y-129350000D02*
X179000000Y-143850000D01*
X188900000Y-130100000D02*
X188900000Y-139100000D01*
D11*
X175450000Y-139220000D02*
X176650000Y-139220000D01*
X176650000Y-140980000D02*
X175450000Y-140980000D01*
D12*
X101100000Y-124500000D02*
X110100000Y-124500000D01*
X101100000Y-115500000D02*
X110100000Y-115500000D01*
X101100000Y-115500000D02*
X101100000Y-124500000D01*
X110100000Y-120000000D02*
G75*
G03X110100000Y-120000000I-4500000J0D01*
G01*
X111000000Y-114750000D02*
X111000000Y-129250000D01*
X100200000Y-114750000D02*
X111000000Y-114750000D01*
X100200000Y-129250000D02*
X111000000Y-129250000D01*
X100200000Y-114750000D02*
X100200000Y-129250000D01*
X110100000Y-115500000D02*
X110100000Y-124500000D01*
D11*
X113350000Y-139220000D02*
X114550000Y-139220000D01*
X114550000Y-140980000D02*
X113350000Y-140980000D01*
D12*
X101100000Y-139100000D02*
X110100000Y-139100000D01*
X101100000Y-130100000D02*
X110100000Y-130100000D01*
X101100000Y-130100000D02*
X101100000Y-139100000D01*
X110100000Y-134600000D02*
G75*
G03X110100000Y-134600000I-4500000J0D01*
G01*
X111000000Y-129350000D02*
X111000000Y-143850000D01*
X100200000Y-129350000D02*
X111000000Y-129350000D01*
X100200000Y-143850000D02*
X111000000Y-143850000D01*
X100200000Y-129350000D02*
X100200000Y-143850000D01*
X110100000Y-130100000D02*
X110100000Y-139100000D01*
D11*
X115800000Y-142900000D02*
X115800000Y-141500000D01*
X115800000Y-141500000D02*
X113000000Y-141500000D01*
X115800000Y-142900000D02*
X113000000Y-142900000D01*
X160800000Y-142900000D02*
X160800000Y-141500000D01*
X160800000Y-141500000D02*
X158000000Y-141500000D01*
X160800000Y-142900000D02*
X158000000Y-142900000D01*
D12*
X146100000Y-139100000D02*
X155100000Y-139100000D01*
X146100000Y-130100000D02*
X155100000Y-130100000D01*
X146100000Y-130100000D02*
X146100000Y-139100000D01*
X155100000Y-134600000D02*
G75*
G03X155100000Y-134600000I-4500000J0D01*
G01*
X156000000Y-129350000D02*
X156000000Y-143850000D01*
X145200000Y-129350000D02*
X156000000Y-129350000D01*
X145200000Y-143850000D02*
X156000000Y-143850000D01*
X145200000Y-129350000D02*
X145200000Y-143850000D01*
X155100000Y-130100000D02*
X155100000Y-139100000D01*
X161850000Y-111650000D02*
X161850000Y-129050000D01*
X156100000Y-111650000D02*
X156100000Y-129050000D01*
X161850000Y-111650000D02*
X156100000Y-111650000D01*
X161850000Y-129050000D02*
X156100000Y-129050000D01*
X155000000Y-113600000D02*
X155000000Y-114600000D01*
X155500000Y-114100000D02*
X155000000Y-114600000D01*
X155500000Y-114100000D02*
X155000000Y-113600000D01*
D11*
X130450000Y-139220000D02*
X131650000Y-139220000D01*
X131650000Y-140980000D02*
X130450000Y-140980000D01*
D12*
X134900000Y-139100000D02*
X143900000Y-139100000D01*
X134900000Y-130100000D02*
X143900000Y-130100000D01*
X134900000Y-130100000D02*
X134900000Y-139100000D01*
X143900000Y-134600000D02*
G75*
G03X143900000Y-134600000I-4500000J0D01*
G01*
X144800000Y-129350000D02*
X144800000Y-143850000D01*
X134000000Y-129350000D02*
X144800000Y-129350000D01*
X134000000Y-143850000D02*
X144800000Y-143850000D01*
X134000000Y-129350000D02*
X134000000Y-143850000D01*
X143900000Y-130100000D02*
X143900000Y-139100000D01*
X146100000Y-124500000D02*
X155100000Y-124500000D01*
X146100000Y-115500000D02*
X155100000Y-115500000D01*
X146100000Y-115500000D02*
X146100000Y-124500000D01*
X155100000Y-120000000D02*
G75*
G03X155100000Y-120000000I-4500000J0D01*
G01*
X156000000Y-114750000D02*
X156000000Y-129250000D01*
X145200000Y-114750000D02*
X156000000Y-114750000D01*
X145200000Y-129250000D02*
X156000000Y-129250000D01*
X145200000Y-114750000D02*
X145200000Y-129250000D01*
X155100000Y-115500000D02*
X155100000Y-124500000D01*
D11*
X158350000Y-139220000D02*
X159550000Y-139220000D01*
X159550000Y-140980000D02*
X158350000Y-140980000D01*
X132800000Y-142800000D02*
X132800000Y-141400000D01*
X132800000Y-141400000D02*
X130000000Y-141400000D01*
X132800000Y-142800000D02*
X130000000Y-142800000D01*
X114600000Y-107250000D02*
X113600000Y-107250000D01*
X113600000Y-108950000D02*
X114600000Y-108950000D01*
D12*
X101100000Y-109900000D02*
X110100000Y-109900000D01*
X101100000Y-100900000D02*
X110100000Y-100900000D01*
X101100000Y-100900000D02*
X101100000Y-109900000D01*
X110100000Y-105400000D02*
G75*
G03X110100000Y-105400000I-4500000J0D01*
G01*
X111000000Y-100150000D02*
X111000000Y-114650000D01*
X100200000Y-100150000D02*
X111000000Y-100150000D01*
X100200000Y-114650000D02*
X111000000Y-114650000D01*
X100200000Y-100150000D02*
X100200000Y-114650000D01*
X110100000Y-100900000D02*
X110100000Y-109900000D01*
D11*
X114600000Y-109150000D02*
X113600000Y-109150000D01*
X113600000Y-110850000D02*
X114600000Y-110850000D01*
D12*
X116850000Y-111650000D02*
X116850000Y-129050000D01*
X111100000Y-111650000D02*
X111100000Y-129050000D01*
X116850000Y-111650000D02*
X111100000Y-111650000D01*
X116850000Y-129050000D02*
X111100000Y-129050000D01*
X110000000Y-113600000D02*
X110000000Y-114600000D01*
X110500000Y-114100000D02*
X110000000Y-114600000D01*
X110500000Y-114100000D02*
X110000000Y-113600000D01*
X118000000Y-139100000D02*
X127000000Y-139100000D01*
X118000000Y-130100000D02*
X127000000Y-130100000D01*
X118000000Y-130100000D02*
X118000000Y-139100000D01*
X127000000Y-134600000D02*
G75*
G03X127000000Y-134600000I-4500000J0D01*
G01*
X127900000Y-129350000D02*
X127900000Y-143850000D01*
X117100000Y-129350000D02*
X127900000Y-129350000D01*
X117100000Y-143850000D02*
X127900000Y-143850000D01*
X117100000Y-129350000D02*
X117100000Y-143850000D01*
X127000000Y-130100000D02*
X127000000Y-139100000D01*
X134900000Y-124500000D02*
X143900000Y-124500000D01*
X134900000Y-115500000D02*
X143900000Y-115500000D01*
X134900000Y-115500000D02*
X134900000Y-124500000D01*
X143900000Y-120000000D02*
G75*
G03X143900000Y-120000000I-4500000J0D01*
G01*
X144800000Y-114750000D02*
X144800000Y-129250000D01*
X134000000Y-114750000D02*
X144800000Y-114750000D01*
X134000000Y-129250000D02*
X144800000Y-129250000D01*
X134000000Y-114750000D02*
X134000000Y-129250000D01*
X143900000Y-115500000D02*
X143900000Y-124500000D01*
X118000000Y-124500000D02*
X127000000Y-124500000D01*
X118000000Y-115500000D02*
X127000000Y-115500000D01*
X118000000Y-115500000D02*
X118000000Y-124500000D01*
X127000000Y-120000000D02*
G75*
G03X127000000Y-120000000I-4500000J0D01*
G01*
X127900000Y-114750000D02*
X127900000Y-129250000D01*
X117100000Y-114750000D02*
X127900000Y-114750000D01*
X117100000Y-129250000D02*
X127900000Y-129250000D01*
X117100000Y-114750000D02*
X117100000Y-129250000D01*
X127000000Y-115500000D02*
X127000000Y-124500000D01*
X133850000Y-111650000D02*
X133850000Y-129050000D01*
X128100000Y-111650000D02*
X128100000Y-129050000D01*
X133850000Y-111650000D02*
X128100000Y-111650000D01*
X133850000Y-129050000D02*
X128100000Y-129050000D01*
X127000000Y-113600000D02*
X127000000Y-114600000D01*
X127500000Y-114100000D02*
X127000000Y-114600000D01*
X127500000Y-114100000D02*
X127000000Y-113600000D01*
X146100000Y-109900000D02*
X155100000Y-109900000D01*
X146100000Y-100900000D02*
X155100000Y-100900000D01*
X146100000Y-100900000D02*
X146100000Y-109900000D01*
X155100000Y-105400000D02*
G75*
G03X155100000Y-105400000I-4500000J0D01*
G01*
X156000000Y-100150000D02*
X156000000Y-114650000D01*
X145200000Y-100150000D02*
X156000000Y-100150000D01*
X145200000Y-114650000D02*
X156000000Y-114650000D01*
X145200000Y-100150000D02*
X145200000Y-114650000D01*
X155100000Y-100900000D02*
X155100000Y-109900000D01*
D11*
X131500000Y-109150000D02*
X130500000Y-109150000D01*
X130500000Y-110850000D02*
X131500000Y-110850000D01*
D12*
X134900000Y-109900000D02*
X143900000Y-109900000D01*
X134900000Y-100900000D02*
X143900000Y-100900000D01*
X134900000Y-100900000D02*
X134900000Y-109900000D01*
X143900000Y-105400000D02*
G75*
G03X143900000Y-105400000I-4500000J0D01*
G01*
X144800000Y-100150000D02*
X144800000Y-114650000D01*
X134000000Y-100150000D02*
X144800000Y-100150000D01*
X134000000Y-114650000D02*
X144800000Y-114650000D01*
X134000000Y-100150000D02*
X134000000Y-114650000D01*
X143900000Y-100900000D02*
X143900000Y-109900000D01*
X118000000Y-109900000D02*
X127000000Y-109900000D01*
X118000000Y-100900000D02*
X127000000Y-100900000D01*
X118000000Y-100900000D02*
X118000000Y-109900000D01*
X127000000Y-105400000D02*
G75*
G03X127000000Y-105400000I-4500000J0D01*
G01*
X127900000Y-100150000D02*
X127900000Y-114650000D01*
X117100000Y-100150000D02*
X127900000Y-100150000D01*
X117100000Y-114650000D02*
X127900000Y-114650000D01*
X117100000Y-100150000D02*
X117100000Y-114650000D01*
X127000000Y-100900000D02*
X127000000Y-109900000D01*
D11*
X131500000Y-107250000D02*
X130500000Y-107250000D01*
X130500000Y-108950000D02*
X131500000Y-108950000D01*
D12*
X161850000Y-66650000D02*
X161850000Y-84050000D01*
X156100000Y-66650000D02*
X156100000Y-84050000D01*
X161850000Y-66650000D02*
X156100000Y-66650000D01*
X161850000Y-84050000D02*
X156100000Y-84050000D01*
X155000000Y-68600000D02*
X155000000Y-69600000D01*
X155500000Y-69100000D02*
X155000000Y-69600000D01*
X155500000Y-69100000D02*
X155000000Y-68600000D01*
D11*
X160800000Y-97900000D02*
X160800000Y-96500000D01*
X160800000Y-96500000D02*
X158000000Y-96500000D01*
X160800000Y-97900000D02*
X158000000Y-97900000D01*
X158350000Y-94220000D02*
X159550000Y-94220000D01*
X159550000Y-95980000D02*
X158350000Y-95980000D01*
D12*
X146100000Y-79500000D02*
X155100000Y-79500000D01*
X146100000Y-70500000D02*
X155100000Y-70500000D01*
X146100000Y-70500000D02*
X146100000Y-79500000D01*
X155100000Y-75000000D02*
G75*
G03X155100000Y-75000000I-4500000J0D01*
G01*
X156000000Y-69750000D02*
X156000000Y-84250000D01*
X145200000Y-69750000D02*
X156000000Y-69750000D01*
X145200000Y-84250000D02*
X156000000Y-84250000D01*
X145200000Y-69750000D02*
X145200000Y-84250000D01*
X155100000Y-70500000D02*
X155100000Y-79500000D01*
X146100000Y-94100000D02*
X155100000Y-94100000D01*
X146100000Y-85100000D02*
X155100000Y-85100000D01*
X146100000Y-85100000D02*
X146100000Y-94100000D01*
X155100000Y-89600000D02*
G75*
G03X155100000Y-89600000I-4500000J0D01*
G01*
X156000000Y-84350000D02*
X156000000Y-98850000D01*
X145200000Y-84350000D02*
X156000000Y-84350000D01*
X145200000Y-98850000D02*
X156000000Y-98850000D01*
X145200000Y-84350000D02*
X145200000Y-98850000D01*
X155100000Y-85100000D02*
X155100000Y-94100000D01*
D11*
X159600000Y-64150000D02*
X158600000Y-64150000D01*
X158600000Y-65850000D02*
X159600000Y-65850000D01*
D12*
X146100000Y-64900000D02*
X155100000Y-64900000D01*
X146100000Y-55900000D02*
X155100000Y-55900000D01*
X146100000Y-55900000D02*
X146100000Y-64900000D01*
X155100000Y-60400000D02*
G75*
G03X155100000Y-60400000I-4500000J0D01*
G01*
X156000000Y-55150000D02*
X156000000Y-69650000D01*
X145200000Y-55150000D02*
X156000000Y-55150000D01*
X145200000Y-69650000D02*
X156000000Y-69650000D01*
X145200000Y-55150000D02*
X145200000Y-69650000D01*
X155100000Y-55900000D02*
X155100000Y-64900000D01*
D11*
X159600000Y-62250000D02*
X158600000Y-62250000D01*
X158600000Y-63950000D02*
X159600000Y-63950000D01*
D12*
X178850000Y-66650000D02*
X178850000Y-84050000D01*
X173100000Y-66650000D02*
X173100000Y-84050000D01*
X178850000Y-66650000D02*
X173100000Y-66650000D01*
X178850000Y-84050000D02*
X173100000Y-84050000D01*
X172000000Y-68600000D02*
X172000000Y-69600000D01*
X172500000Y-69100000D02*
X172000000Y-69600000D01*
X172500000Y-69100000D02*
X172000000Y-68600000D01*
X163000000Y-79500000D02*
X172000000Y-79500000D01*
X163000000Y-70500000D02*
X172000000Y-70500000D01*
X163000000Y-70500000D02*
X163000000Y-79500000D01*
X172000000Y-75000000D02*
G75*
G03X172000000Y-75000000I-4500000J0D01*
G01*
X172900000Y-69750000D02*
X172900000Y-84250000D01*
X162100000Y-69750000D02*
X172900000Y-69750000D01*
X162100000Y-84250000D02*
X172900000Y-84250000D01*
X162100000Y-69750000D02*
X162100000Y-84250000D01*
X172000000Y-70500000D02*
X172000000Y-79500000D01*
X179900000Y-79500000D02*
X188900000Y-79500000D01*
X179900000Y-70500000D02*
X188900000Y-70500000D01*
X179900000Y-70500000D02*
X179900000Y-79500000D01*
X188900000Y-75000000D02*
G75*
G03X188900000Y-75000000I-4500000J0D01*
G01*
X189800000Y-69750000D02*
X189800000Y-84250000D01*
X179000000Y-69750000D02*
X189800000Y-69750000D01*
X179000000Y-84250000D02*
X189800000Y-84250000D01*
X179000000Y-69750000D02*
X179000000Y-84250000D01*
X188900000Y-70500000D02*
X188900000Y-79500000D01*
X163000000Y-94100000D02*
X172000000Y-94100000D01*
X163000000Y-85100000D02*
X172000000Y-85100000D01*
X163000000Y-85100000D02*
X163000000Y-94100000D01*
X172000000Y-89600000D02*
G75*
G03X172000000Y-89600000I-4500000J0D01*
G01*
X172900000Y-84350000D02*
X172900000Y-98850000D01*
X162100000Y-84350000D02*
X172900000Y-84350000D01*
X162100000Y-98850000D02*
X172900000Y-98850000D01*
X162100000Y-84350000D02*
X162100000Y-98850000D01*
X172000000Y-85100000D02*
X172000000Y-94100000D01*
D11*
X177800000Y-97800000D02*
X177800000Y-96400000D01*
X177800000Y-96400000D02*
X175000000Y-96400000D01*
X177800000Y-97800000D02*
X175000000Y-97800000D01*
X175450000Y-94220000D02*
X176650000Y-94220000D01*
X176650000Y-95980000D02*
X175450000Y-95980000D01*
D12*
X179900000Y-94100000D02*
X188900000Y-94100000D01*
X179900000Y-85100000D02*
X188900000Y-85100000D01*
X179900000Y-85100000D02*
X179900000Y-94100000D01*
X188900000Y-89600000D02*
G75*
G03X188900000Y-89600000I-4500000J0D01*
G01*
X189800000Y-84350000D02*
X189800000Y-98850000D01*
X179000000Y-84350000D02*
X189800000Y-84350000D01*
X179000000Y-98850000D02*
X189800000Y-98850000D01*
X179000000Y-84350000D02*
X179000000Y-98850000D01*
X188900000Y-85100000D02*
X188900000Y-94100000D01*
D11*
X176500000Y-62250000D02*
X175500000Y-62250000D01*
X175500000Y-63950000D02*
X176500000Y-63950000D01*
D12*
X163000000Y-64900000D02*
X172000000Y-64900000D01*
X163000000Y-55900000D02*
X172000000Y-55900000D01*
X163000000Y-55900000D02*
X163000000Y-64900000D01*
X172000000Y-60400000D02*
G75*
G03X172000000Y-60400000I-4500000J0D01*
G01*
X172900000Y-55150000D02*
X172900000Y-69650000D01*
X162100000Y-55150000D02*
X172900000Y-55150000D01*
X162100000Y-69650000D02*
X172900000Y-69650000D01*
X162100000Y-55150000D02*
X162100000Y-69650000D01*
X172000000Y-55900000D02*
X172000000Y-64900000D01*
D11*
X176500000Y-64150000D02*
X175500000Y-64150000D01*
X175500000Y-65850000D02*
X176500000Y-65850000D01*
D12*
X179900000Y-64900000D02*
X188900000Y-64900000D01*
X179900000Y-55900000D02*
X188900000Y-55900000D01*
X179900000Y-55900000D02*
X179900000Y-64900000D01*
X188900000Y-60400000D02*
G75*
G03X188900000Y-60400000I-4500000J0D01*
G01*
X189800000Y-55150000D02*
X189800000Y-69650000D01*
X179000000Y-55150000D02*
X189800000Y-55150000D01*
X179000000Y-69650000D02*
X189800000Y-69650000D01*
X179000000Y-55150000D02*
X179000000Y-69650000D01*
X188900000Y-55900000D02*
X188900000Y-64900000D01*
D11*
X132800000Y-97800000D02*
X132800000Y-96400000D01*
X132800000Y-96400000D02*
X130000000Y-96400000D01*
X132800000Y-97800000D02*
X130000000Y-97800000D01*
X115800000Y-97900000D02*
X115800000Y-96500000D01*
X115800000Y-96500000D02*
X113000000Y-96500000D01*
X115800000Y-97900000D02*
X113000000Y-97900000D01*
X130450000Y-94220000D02*
X131650000Y-94220000D01*
X131650000Y-95980000D02*
X130450000Y-95980000D01*
X113350000Y-94220000D02*
X114550000Y-94220000D01*
X114550000Y-95980000D02*
X113350000Y-95980000D01*
X114600000Y-62250000D02*
X113600000Y-62250000D01*
X113600000Y-63950000D02*
X114600000Y-63950000D01*
X114600000Y-64150000D02*
X113600000Y-64150000D01*
X113600000Y-65850000D02*
X114600000Y-65850000D01*
X131500000Y-62250000D02*
X130500000Y-62250000D01*
X130500000Y-63950000D02*
X131500000Y-63950000D01*
X131500000Y-64150000D02*
X130500000Y-64150000D01*
X130500000Y-65850000D02*
X131500000Y-65850000D01*
D12*
X134900000Y-94100000D02*
X143900000Y-94100000D01*
X134900000Y-85100000D02*
X143900000Y-85100000D01*
X134900000Y-85100000D02*
X134900000Y-94100000D01*
X143900000Y-89600000D02*
G75*
G03X143900000Y-89600000I-4500000J0D01*
G01*
X144800000Y-84350000D02*
X144800000Y-98850000D01*
X134000000Y-84350000D02*
X144800000Y-84350000D01*
X134000000Y-98850000D02*
X144800000Y-98850000D01*
X134000000Y-84350000D02*
X134000000Y-98850000D01*
X143900000Y-85100000D02*
X143900000Y-94100000D01*
X134900000Y-79500000D02*
X143900000Y-79500000D01*
X134900000Y-70500000D02*
X143900000Y-70500000D01*
X134900000Y-70500000D02*
X134900000Y-79500000D01*
X143900000Y-75000000D02*
G75*
G03X143900000Y-75000000I-4500000J0D01*
G01*
X144800000Y-69750000D02*
X144800000Y-84250000D01*
X134000000Y-69750000D02*
X144800000Y-69750000D01*
X134000000Y-84250000D02*
X144800000Y-84250000D01*
X134000000Y-69750000D02*
X134000000Y-84250000D01*
X143900000Y-70500000D02*
X143900000Y-79500000D01*
X134900000Y-64900000D02*
X143900000Y-64900000D01*
X134900000Y-55900000D02*
X143900000Y-55900000D01*
X134900000Y-55900000D02*
X134900000Y-64900000D01*
X143900000Y-60400000D02*
G75*
G03X143900000Y-60400000I-4500000J0D01*
G01*
X144800000Y-55150000D02*
X144800000Y-69650000D01*
X134000000Y-55150000D02*
X144800000Y-55150000D01*
X134000000Y-69650000D02*
X144800000Y-69650000D01*
X134000000Y-55150000D02*
X134000000Y-69650000D01*
X143900000Y-55900000D02*
X143900000Y-64900000D01*
X118000000Y-94100000D02*
X127000000Y-94100000D01*
X118000000Y-85100000D02*
X127000000Y-85100000D01*
X118000000Y-85100000D02*
X118000000Y-94100000D01*
X127000000Y-89600000D02*
G75*
G03X127000000Y-89600000I-4500000J0D01*
G01*
X127900000Y-84350000D02*
X127900000Y-98850000D01*
X117100000Y-84350000D02*
X127900000Y-84350000D01*
X117100000Y-98850000D02*
X127900000Y-98850000D01*
X117100000Y-84350000D02*
X117100000Y-98850000D01*
X127000000Y-85100000D02*
X127000000Y-94100000D01*
X118000000Y-79500000D02*
X127000000Y-79500000D01*
X118000000Y-70500000D02*
X127000000Y-70500000D01*
X118000000Y-70500000D02*
X118000000Y-79500000D01*
X127000000Y-75000000D02*
G75*
G03X127000000Y-75000000I-4500000J0D01*
G01*
X127900000Y-69750000D02*
X127900000Y-84250000D01*
X117100000Y-69750000D02*
X127900000Y-69750000D01*
X117100000Y-84250000D02*
X127900000Y-84250000D01*
X117100000Y-69750000D02*
X117100000Y-84250000D01*
X127000000Y-70500000D02*
X127000000Y-79500000D01*
X118000000Y-64900000D02*
X127000000Y-64900000D01*
X118000000Y-55900000D02*
X127000000Y-55900000D01*
X118000000Y-55900000D02*
X118000000Y-64900000D01*
X127000000Y-60400000D02*
G75*
G03X127000000Y-60400000I-4500000J0D01*
G01*
X127900000Y-55150000D02*
X127900000Y-69650000D01*
X117100000Y-55150000D02*
X127900000Y-55150000D01*
X117100000Y-69650000D02*
X127900000Y-69650000D01*
X117100000Y-55150000D02*
X117100000Y-69650000D01*
X127000000Y-55900000D02*
X127000000Y-64900000D01*
X101100000Y-94100000D02*
X110100000Y-94100000D01*
X101100000Y-85100000D02*
X110100000Y-85100000D01*
X101100000Y-85100000D02*
X101100000Y-94100000D01*
X110100000Y-89600000D02*
G75*
G03X110100000Y-89600000I-4500000J0D01*
G01*
X111000000Y-84350000D02*
X111000000Y-98850000D01*
X100200000Y-84350000D02*
X111000000Y-84350000D01*
X100200000Y-98850000D02*
X111000000Y-98850000D01*
X100200000Y-84350000D02*
X100200000Y-98850000D01*
X110100000Y-85100000D02*
X110100000Y-94100000D01*
X101100000Y-79500000D02*
X110100000Y-79500000D01*
X101100000Y-70500000D02*
X110100000Y-70500000D01*
X101100000Y-70500000D02*
X101100000Y-79500000D01*
X110100000Y-75000000D02*
G75*
G03X110100000Y-75000000I-4500000J0D01*
G01*
X111000000Y-69750000D02*
X111000000Y-84250000D01*
X100200000Y-69750000D02*
X111000000Y-69750000D01*
X100200000Y-84250000D02*
X111000000Y-84250000D01*
X100200000Y-69750000D02*
X100200000Y-84250000D01*
X110100000Y-70500000D02*
X110100000Y-79500000D01*
X101100000Y-64900000D02*
X110100000Y-64900000D01*
X101100000Y-55900000D02*
X110100000Y-55900000D01*
X101100000Y-55900000D02*
X101100000Y-64900000D01*
X110100000Y-60400000D02*
G75*
G03X110100000Y-60400000I-4500000J0D01*
G01*
X111000000Y-55150000D02*
X111000000Y-69650000D01*
X100200000Y-55150000D02*
X111000000Y-55150000D01*
X100200000Y-69650000D02*
X111000000Y-69650000D01*
X100200000Y-55150000D02*
X100200000Y-69650000D01*
X110100000Y-55900000D02*
X110100000Y-64900000D01*
X133850000Y-66650000D02*
X133850000Y-84050000D01*
X128100000Y-66650000D02*
X128100000Y-84050000D01*
X133850000Y-66650000D02*
X128100000Y-66650000D01*
X133850000Y-84050000D02*
X128100000Y-84050000D01*
X127000000Y-68600000D02*
X127000000Y-69600000D01*
X127500000Y-69100000D02*
X127000000Y-69600000D01*
X127500000Y-69100000D02*
X127000000Y-68600000D01*
X116850000Y-66650000D02*
X116850000Y-84050000D01*
X111100000Y-66650000D02*
X111100000Y-84050000D01*
X116850000Y-66650000D02*
X111100000Y-66650000D01*
X116850000Y-84050000D02*
X111100000Y-84050000D01*
X110000000Y-68600000D02*
X110000000Y-69600000D01*
X110500000Y-69100000D02*
X110000000Y-69600000D01*
X110500000Y-69100000D02*
X110000000Y-68600000D01*
X175833334Y-105457143D02*
X175785715Y-105504762D01*
X175642858Y-105552381D01*
X175547620Y-105552381D01*
X175404762Y-105504762D01*
X175309524Y-105409524D01*
X175261905Y-105314286D01*
X175214286Y-105123810D01*
X175214286Y-104980952D01*
X175261905Y-104790476D01*
X175309524Y-104695238D01*
X175404762Y-104600000D01*
X175547620Y-104552381D01*
X175642858Y-104552381D01*
X175785715Y-104600000D01*
X175833334Y-104647619D01*
X176166667Y-104552381D02*
X176785715Y-104552381D01*
X176452381Y-104933333D01*
X176595239Y-104933333D01*
X176690477Y-104980952D01*
X176738096Y-105028571D01*
X176785715Y-105123810D01*
X176785715Y-105361905D01*
X176738096Y-105457143D01*
X176690477Y-105504762D01*
X176595239Y-105552381D01*
X176309524Y-105552381D01*
X176214286Y-105504762D01*
X176166667Y-105457143D01*
X158933334Y-106857143D02*
X158885715Y-106904762D01*
X158742858Y-106952381D01*
X158647620Y-106952381D01*
X158504762Y-106904762D01*
X158409524Y-106809524D01*
X158361905Y-106714286D01*
X158314286Y-106523810D01*
X158314286Y-106380952D01*
X158361905Y-106190476D01*
X158409524Y-106095238D01*
X158504762Y-106000000D01*
X158647620Y-105952381D01*
X158742858Y-105952381D01*
X158885715Y-106000000D01*
X158933334Y-106047619D01*
X159314286Y-106047619D02*
X159361905Y-106000000D01*
X159457143Y-105952381D01*
X159695239Y-105952381D01*
X159790477Y-106000000D01*
X159838096Y-106047619D01*
X159885715Y-106142857D01*
X159885715Y-106238095D01*
X159838096Y-106380952D01*
X159266667Y-106952381D01*
X159885715Y-106952381D01*
X166738095Y-107904762D02*
X166880952Y-107952381D01*
X167119048Y-107952381D01*
X167214286Y-107904762D01*
X167261905Y-107857143D01*
X167309524Y-107761905D01*
X167309524Y-107666667D01*
X167261905Y-107571429D01*
X167214286Y-107523810D01*
X167119048Y-107476190D01*
X166928571Y-107428571D01*
X166833333Y-107380952D01*
X166785714Y-107333333D01*
X166738095Y-107238095D01*
X166738095Y-107142857D01*
X166785714Y-107047619D01*
X166833333Y-107000000D01*
X166928571Y-106952381D01*
X167166667Y-106952381D01*
X167309524Y-107000000D01*
X168166667Y-107285714D02*
X168166667Y-107952381D01*
X167928571Y-106904762D02*
X167690476Y-107619048D01*
X168309524Y-107619048D01*
X165228571Y-104652381D02*
X165800000Y-104652381D01*
X165514285Y-105652381D02*
X165514285Y-104652381D01*
X166276190Y-105652381D02*
X166180952Y-105604762D01*
X166133333Y-105557143D01*
X166085714Y-105461905D01*
X166085714Y-105176190D01*
X166133333Y-105080952D01*
X166180952Y-105033333D01*
X166276190Y-104985714D01*
X166419048Y-104985714D01*
X166514286Y-105033333D01*
X166561905Y-105080952D01*
X166609524Y-105176190D01*
X166609524Y-105461905D01*
X166561905Y-105557143D01*
X166514286Y-105604762D01*
X166419048Y-105652381D01*
X166276190Y-105652381D01*
X167466667Y-104985714D02*
X167466667Y-105652381D01*
X167038095Y-104985714D02*
X167038095Y-105509524D01*
X167085714Y-105604762D01*
X167180952Y-105652381D01*
X167323810Y-105652381D01*
X167419048Y-105604762D01*
X167466667Y-105557143D01*
X168371429Y-105604762D02*
X168276191Y-105652381D01*
X168085714Y-105652381D01*
X167990476Y-105604762D01*
X167942857Y-105557143D01*
X167895238Y-105461905D01*
X167895238Y-105176190D01*
X167942857Y-105080952D01*
X167990476Y-105033333D01*
X168085714Y-104985714D01*
X168276191Y-104985714D01*
X168371429Y-105033333D01*
X168800000Y-105652381D02*
X168800000Y-104652381D01*
X169228572Y-105652381D02*
X169228572Y-105128571D01*
X169180953Y-105033333D01*
X169085715Y-104985714D01*
X168942857Y-104985714D01*
X168847619Y-105033333D01*
X168800000Y-105080952D01*
X183638095Y-107904762D02*
X183780952Y-107952381D01*
X184019048Y-107952381D01*
X184114286Y-107904762D01*
X184161905Y-107857143D01*
X184209524Y-107761905D01*
X184209524Y-107666667D01*
X184161905Y-107571429D01*
X184114286Y-107523810D01*
X184019048Y-107476190D01*
X183828571Y-107428571D01*
X183733333Y-107380952D01*
X183685714Y-107333333D01*
X183638095Y-107238095D01*
X183638095Y-107142857D01*
X183685714Y-107047619D01*
X183733333Y-107000000D01*
X183828571Y-106952381D01*
X184066667Y-106952381D01*
X184209524Y-107000000D01*
X184542857Y-106952381D02*
X185209524Y-106952381D01*
X184780952Y-107952381D01*
X182128571Y-104652381D02*
X182700000Y-104652381D01*
X182414285Y-105652381D02*
X182414285Y-104652381D01*
X183176190Y-105652381D02*
X183080952Y-105604762D01*
X183033333Y-105557143D01*
X182985714Y-105461905D01*
X182985714Y-105176190D01*
X183033333Y-105080952D01*
X183080952Y-105033333D01*
X183176190Y-104985714D01*
X183319048Y-104985714D01*
X183414286Y-105033333D01*
X183461905Y-105080952D01*
X183509524Y-105176190D01*
X183509524Y-105461905D01*
X183461905Y-105557143D01*
X183414286Y-105604762D01*
X183319048Y-105652381D01*
X183176190Y-105652381D01*
X184366667Y-104985714D02*
X184366667Y-105652381D01*
X183938095Y-104985714D02*
X183938095Y-105509524D01*
X183985714Y-105604762D01*
X184080952Y-105652381D01*
X184223810Y-105652381D01*
X184319048Y-105604762D01*
X184366667Y-105557143D01*
X185271429Y-105604762D02*
X185176191Y-105652381D01*
X184985714Y-105652381D01*
X184890476Y-105604762D01*
X184842857Y-105557143D01*
X184795238Y-105461905D01*
X184795238Y-105176190D01*
X184842857Y-105080952D01*
X184890476Y-105033333D01*
X184985714Y-104985714D01*
X185176191Y-104985714D01*
X185271429Y-105033333D01*
X185700000Y-105652381D02*
X185700000Y-104652381D01*
X186128572Y-105652381D02*
X186128572Y-105128571D01*
X186080953Y-105033333D01*
X185985715Y-104985714D01*
X185842857Y-104985714D01*
X185747619Y-105033333D01*
X185700000Y-105080952D01*
X175833334Y-106757143D02*
X175785715Y-106804762D01*
X175642858Y-106852381D01*
X175547620Y-106852381D01*
X175404762Y-106804762D01*
X175309524Y-106709524D01*
X175261905Y-106614286D01*
X175214286Y-106423810D01*
X175214286Y-106280952D01*
X175261905Y-106090476D01*
X175309524Y-105995238D01*
X175404762Y-105900000D01*
X175547620Y-105852381D01*
X175642858Y-105852381D01*
X175785715Y-105900000D01*
X175833334Y-105947619D01*
X176690477Y-106185714D02*
X176690477Y-106852381D01*
X176452381Y-105804762D02*
X176214286Y-106519048D01*
X176833334Y-106519048D01*
X158933334Y-105557143D02*
X158885715Y-105604762D01*
X158742858Y-105652381D01*
X158647620Y-105652381D01*
X158504762Y-105604762D01*
X158409524Y-105509524D01*
X158361905Y-105414286D01*
X158314286Y-105223810D01*
X158314286Y-105080952D01*
X158361905Y-104890476D01*
X158409524Y-104795238D01*
X158504762Y-104700000D01*
X158647620Y-104652381D01*
X158742858Y-104652381D01*
X158885715Y-104700000D01*
X158933334Y-104747619D01*
X159885715Y-105652381D02*
X159314286Y-105652381D01*
X159600000Y-105652381D02*
X159600000Y-104652381D01*
X159504762Y-104795238D01*
X159409524Y-104890476D01*
X159314286Y-104938095D01*
X175361905Y-144452381D02*
X175361905Y-143452381D01*
X175600000Y-143452381D01*
X175742858Y-143500000D01*
X175838096Y-143595238D01*
X175885715Y-143690476D01*
X175933334Y-143880952D01*
X175933334Y-144023810D01*
X175885715Y-144214286D01*
X175838096Y-144309524D01*
X175742858Y-144404762D01*
X175600000Y-144452381D01*
X175361905Y-144452381D01*
X176885715Y-144452381D02*
X176314286Y-144452381D01*
X176600000Y-144452381D02*
X176600000Y-143452381D01*
X176504762Y-143595238D01*
X176409524Y-143690476D01*
X176314286Y-143738095D01*
X166738095Y-122504762D02*
X166880952Y-122552381D01*
X167119048Y-122552381D01*
X167214286Y-122504762D01*
X167261905Y-122457143D01*
X167309524Y-122361905D01*
X167309524Y-122266667D01*
X167261905Y-122171429D01*
X167214286Y-122123810D01*
X167119048Y-122076190D01*
X166928571Y-122028571D01*
X166833333Y-121980952D01*
X166785714Y-121933333D01*
X166738095Y-121838095D01*
X166738095Y-121742857D01*
X166785714Y-121647619D01*
X166833333Y-121600000D01*
X166928571Y-121552381D01*
X167166667Y-121552381D01*
X167309524Y-121600000D01*
X168214286Y-121552381D02*
X167738095Y-121552381D01*
X167690476Y-122028571D01*
X167738095Y-121980952D01*
X167833333Y-121933333D01*
X168071429Y-121933333D01*
X168166667Y-121980952D01*
X168214286Y-122028571D01*
X168261905Y-122123810D01*
X168261905Y-122361905D01*
X168214286Y-122457143D01*
X168166667Y-122504762D01*
X168071429Y-122552381D01*
X167833333Y-122552381D01*
X167738095Y-122504762D01*
X167690476Y-122457143D01*
X165228571Y-119252381D02*
X165800000Y-119252381D01*
X165514285Y-120252381D02*
X165514285Y-119252381D01*
X166276190Y-120252381D02*
X166180952Y-120204762D01*
X166133333Y-120157143D01*
X166085714Y-120061905D01*
X166085714Y-119776190D01*
X166133333Y-119680952D01*
X166180952Y-119633333D01*
X166276190Y-119585714D01*
X166419048Y-119585714D01*
X166514286Y-119633333D01*
X166561905Y-119680952D01*
X166609524Y-119776190D01*
X166609524Y-120061905D01*
X166561905Y-120157143D01*
X166514286Y-120204762D01*
X166419048Y-120252381D01*
X166276190Y-120252381D01*
X167466667Y-119585714D02*
X167466667Y-120252381D01*
X167038095Y-119585714D02*
X167038095Y-120109524D01*
X167085714Y-120204762D01*
X167180952Y-120252381D01*
X167323810Y-120252381D01*
X167419048Y-120204762D01*
X167466667Y-120157143D01*
X168371429Y-120204762D02*
X168276191Y-120252381D01*
X168085714Y-120252381D01*
X167990476Y-120204762D01*
X167942857Y-120157143D01*
X167895238Y-120061905D01*
X167895238Y-119776190D01*
X167942857Y-119680952D01*
X167990476Y-119633333D01*
X168085714Y-119585714D01*
X168276191Y-119585714D01*
X168371429Y-119633333D01*
X168800000Y-120252381D02*
X168800000Y-119252381D01*
X169228572Y-120252381D02*
X169228572Y-119728571D01*
X169180953Y-119633333D01*
X169085715Y-119585714D01*
X168942857Y-119585714D01*
X168847619Y-119633333D01*
X168800000Y-119680952D01*
X183638095Y-122504762D02*
X183780952Y-122552381D01*
X184019048Y-122552381D01*
X184114286Y-122504762D01*
X184161905Y-122457143D01*
X184209524Y-122361905D01*
X184209524Y-122266667D01*
X184161905Y-122171429D01*
X184114286Y-122123810D01*
X184019048Y-122076190D01*
X183828571Y-122028571D01*
X183733333Y-121980952D01*
X183685714Y-121933333D01*
X183638095Y-121838095D01*
X183638095Y-121742857D01*
X183685714Y-121647619D01*
X183733333Y-121600000D01*
X183828571Y-121552381D01*
X184066667Y-121552381D01*
X184209524Y-121600000D01*
X184780952Y-121980952D02*
X184685714Y-121933333D01*
X184638095Y-121885714D01*
X184590476Y-121790476D01*
X184590476Y-121742857D01*
X184638095Y-121647619D01*
X184685714Y-121600000D01*
X184780952Y-121552381D01*
X184971429Y-121552381D01*
X185066667Y-121600000D01*
X185114286Y-121647619D01*
X185161905Y-121742857D01*
X185161905Y-121790476D01*
X185114286Y-121885714D01*
X185066667Y-121933333D01*
X184971429Y-121980952D01*
X184780952Y-121980952D01*
X184685714Y-122028571D01*
X184638095Y-122076190D01*
X184590476Y-122171429D01*
X184590476Y-122361905D01*
X184638095Y-122457143D01*
X184685714Y-122504762D01*
X184780952Y-122552381D01*
X184971429Y-122552381D01*
X185066667Y-122504762D01*
X185114286Y-122457143D01*
X185161905Y-122361905D01*
X185161905Y-122171429D01*
X185114286Y-122076190D01*
X185066667Y-122028571D01*
X184971429Y-121980952D01*
X182128571Y-119252381D02*
X182700000Y-119252381D01*
X182414285Y-120252381D02*
X182414285Y-119252381D01*
X183176190Y-120252381D02*
X183080952Y-120204762D01*
X183033333Y-120157143D01*
X182985714Y-120061905D01*
X182985714Y-119776190D01*
X183033333Y-119680952D01*
X183080952Y-119633333D01*
X183176190Y-119585714D01*
X183319048Y-119585714D01*
X183414286Y-119633333D01*
X183461905Y-119680952D01*
X183509524Y-119776190D01*
X183509524Y-120061905D01*
X183461905Y-120157143D01*
X183414286Y-120204762D01*
X183319048Y-120252381D01*
X183176190Y-120252381D01*
X184366667Y-119585714D02*
X184366667Y-120252381D01*
X183938095Y-119585714D02*
X183938095Y-120109524D01*
X183985714Y-120204762D01*
X184080952Y-120252381D01*
X184223810Y-120252381D01*
X184319048Y-120204762D01*
X184366667Y-120157143D01*
X185271429Y-120204762D02*
X185176191Y-120252381D01*
X184985714Y-120252381D01*
X184890476Y-120204762D01*
X184842857Y-120157143D01*
X184795238Y-120061905D01*
X184795238Y-119776190D01*
X184842857Y-119680952D01*
X184890476Y-119633333D01*
X184985714Y-119585714D01*
X185176191Y-119585714D01*
X185271429Y-119633333D01*
X185700000Y-120252381D02*
X185700000Y-119252381D01*
X186128572Y-120252381D02*
X186128572Y-119728571D01*
X186080953Y-119633333D01*
X185985715Y-119585714D01*
X185842857Y-119585714D01*
X185747619Y-119633333D01*
X185700000Y-119680952D01*
X166738095Y-137104762D02*
X166880952Y-137152381D01*
X167119048Y-137152381D01*
X167214286Y-137104762D01*
X167261905Y-137057143D01*
X167309524Y-136961905D01*
X167309524Y-136866667D01*
X167261905Y-136771429D01*
X167214286Y-136723810D01*
X167119048Y-136676190D01*
X166928571Y-136628571D01*
X166833333Y-136580952D01*
X166785714Y-136533333D01*
X166738095Y-136438095D01*
X166738095Y-136342857D01*
X166785714Y-136247619D01*
X166833333Y-136200000D01*
X166928571Y-136152381D01*
X167166667Y-136152381D01*
X167309524Y-136200000D01*
X168166667Y-136152381D02*
X167976190Y-136152381D01*
X167880952Y-136200000D01*
X167833333Y-136247619D01*
X167738095Y-136390476D01*
X167690476Y-136580952D01*
X167690476Y-136961905D01*
X167738095Y-137057143D01*
X167785714Y-137104762D01*
X167880952Y-137152381D01*
X168071429Y-137152381D01*
X168166667Y-137104762D01*
X168214286Y-137057143D01*
X168261905Y-136961905D01*
X168261905Y-136723810D01*
X168214286Y-136628571D01*
X168166667Y-136580952D01*
X168071429Y-136533333D01*
X167880952Y-136533333D01*
X167785714Y-136580952D01*
X167738095Y-136628571D01*
X167690476Y-136723810D01*
X165228571Y-133852381D02*
X165800000Y-133852381D01*
X165514285Y-134852381D02*
X165514285Y-133852381D01*
X166276190Y-134852381D02*
X166180952Y-134804762D01*
X166133333Y-134757143D01*
X166085714Y-134661905D01*
X166085714Y-134376190D01*
X166133333Y-134280952D01*
X166180952Y-134233333D01*
X166276190Y-134185714D01*
X166419048Y-134185714D01*
X166514286Y-134233333D01*
X166561905Y-134280952D01*
X166609524Y-134376190D01*
X166609524Y-134661905D01*
X166561905Y-134757143D01*
X166514286Y-134804762D01*
X166419048Y-134852381D01*
X166276190Y-134852381D01*
X167466667Y-134185714D02*
X167466667Y-134852381D01*
X167038095Y-134185714D02*
X167038095Y-134709524D01*
X167085714Y-134804762D01*
X167180952Y-134852381D01*
X167323810Y-134852381D01*
X167419048Y-134804762D01*
X167466667Y-134757143D01*
X168371429Y-134804762D02*
X168276191Y-134852381D01*
X168085714Y-134852381D01*
X167990476Y-134804762D01*
X167942857Y-134757143D01*
X167895238Y-134661905D01*
X167895238Y-134376190D01*
X167942857Y-134280952D01*
X167990476Y-134233333D01*
X168085714Y-134185714D01*
X168276191Y-134185714D01*
X168371429Y-134233333D01*
X168800000Y-134852381D02*
X168800000Y-133852381D01*
X169228572Y-134852381D02*
X169228572Y-134328571D01*
X169180953Y-134233333D01*
X169085715Y-134185714D01*
X168942857Y-134185714D01*
X168847619Y-134233333D01*
X168800000Y-134280952D01*
X175661905Y-130752381D02*
X175661905Y-129752381D01*
X176042858Y-129752381D01*
X176138096Y-129800000D01*
X176185715Y-129847619D01*
X176233334Y-129942857D01*
X176233334Y-130085714D01*
X176185715Y-130180952D01*
X176138096Y-130228571D01*
X176042858Y-130276190D01*
X175661905Y-130276190D01*
X176614286Y-129847619D02*
X176661905Y-129800000D01*
X176757143Y-129752381D01*
X176995239Y-129752381D01*
X177090477Y-129800000D01*
X177138096Y-129847619D01*
X177185715Y-129942857D01*
X177185715Y-130038095D01*
X177138096Y-130180952D01*
X176566667Y-130752381D01*
X177185715Y-130752381D01*
X183638095Y-137104762D02*
X183780952Y-137152381D01*
X184019048Y-137152381D01*
X184114286Y-137104762D01*
X184161905Y-137057143D01*
X184209524Y-136961905D01*
X184209524Y-136866667D01*
X184161905Y-136771429D01*
X184114286Y-136723810D01*
X184019048Y-136676190D01*
X183828571Y-136628571D01*
X183733333Y-136580952D01*
X183685714Y-136533333D01*
X183638095Y-136438095D01*
X183638095Y-136342857D01*
X183685714Y-136247619D01*
X183733333Y-136200000D01*
X183828571Y-136152381D01*
X184066667Y-136152381D01*
X184209524Y-136200000D01*
X184685714Y-137152381D02*
X184876190Y-137152381D01*
X184971429Y-137104762D01*
X185019048Y-137057143D01*
X185114286Y-136914286D01*
X185161905Y-136723810D01*
X185161905Y-136342857D01*
X185114286Y-136247619D01*
X185066667Y-136200000D01*
X184971429Y-136152381D01*
X184780952Y-136152381D01*
X184685714Y-136200000D01*
X184638095Y-136247619D01*
X184590476Y-136342857D01*
X184590476Y-136580952D01*
X184638095Y-136676190D01*
X184685714Y-136723810D01*
X184780952Y-136771429D01*
X184971429Y-136771429D01*
X185066667Y-136723810D01*
X185114286Y-136676190D01*
X185161905Y-136580952D01*
X182128571Y-133852381D02*
X182700000Y-133852381D01*
X182414285Y-134852381D02*
X182414285Y-133852381D01*
X183176190Y-134852381D02*
X183080952Y-134804762D01*
X183033333Y-134757143D01*
X182985714Y-134661905D01*
X182985714Y-134376190D01*
X183033333Y-134280952D01*
X183080952Y-134233333D01*
X183176190Y-134185714D01*
X183319048Y-134185714D01*
X183414286Y-134233333D01*
X183461905Y-134280952D01*
X183509524Y-134376190D01*
X183509524Y-134661905D01*
X183461905Y-134757143D01*
X183414286Y-134804762D01*
X183319048Y-134852381D01*
X183176190Y-134852381D01*
X184366667Y-134185714D02*
X184366667Y-134852381D01*
X183938095Y-134185714D02*
X183938095Y-134709524D01*
X183985714Y-134804762D01*
X184080952Y-134852381D01*
X184223810Y-134852381D01*
X184319048Y-134804762D01*
X184366667Y-134757143D01*
X185271429Y-134804762D02*
X185176191Y-134852381D01*
X184985714Y-134852381D01*
X184890476Y-134804762D01*
X184842857Y-134757143D01*
X184795238Y-134661905D01*
X184795238Y-134376190D01*
X184842857Y-134280952D01*
X184890476Y-134233333D01*
X184985714Y-134185714D01*
X185176191Y-134185714D01*
X185271429Y-134233333D01*
X185700000Y-134852381D02*
X185700000Y-133852381D01*
X186128572Y-134852381D02*
X186128572Y-134328571D01*
X186080953Y-134233333D01*
X185985715Y-134185714D01*
X185842857Y-134185714D01*
X185747619Y-134233333D01*
X185700000Y-134280952D01*
X176033334Y-138852381D02*
X175700000Y-138376190D01*
X175461905Y-138852381D02*
X175461905Y-137852381D01*
X175842858Y-137852381D01*
X175938096Y-137900000D01*
X175985715Y-137947619D01*
X176033334Y-138042857D01*
X176033334Y-138185714D01*
X175985715Y-138280952D01*
X175938096Y-138328571D01*
X175842858Y-138376190D01*
X175461905Y-138376190D01*
X176985715Y-138852381D02*
X176414286Y-138852381D01*
X176700000Y-138852381D02*
X176700000Y-137852381D01*
X176604762Y-137995238D01*
X176509524Y-138090476D01*
X176414286Y-138138095D01*
X104838095Y-122504762D02*
X104980952Y-122552381D01*
X105219048Y-122552381D01*
X105314286Y-122504762D01*
X105361905Y-122457143D01*
X105409524Y-122361905D01*
X105409524Y-122266667D01*
X105361905Y-122171429D01*
X105314286Y-122123810D01*
X105219048Y-122076190D01*
X105028571Y-122028571D01*
X104933333Y-121980952D01*
X104885714Y-121933333D01*
X104838095Y-121838095D01*
X104838095Y-121742857D01*
X104885714Y-121647619D01*
X104933333Y-121600000D01*
X105028571Y-121552381D01*
X105266667Y-121552381D01*
X105409524Y-121600000D01*
X105790476Y-121647619D02*
X105838095Y-121600000D01*
X105933333Y-121552381D01*
X106171429Y-121552381D01*
X106266667Y-121600000D01*
X106314286Y-121647619D01*
X106361905Y-121742857D01*
X106361905Y-121838095D01*
X106314286Y-121980952D01*
X105742857Y-122552381D01*
X106361905Y-122552381D01*
X103328571Y-119252381D02*
X103900000Y-119252381D01*
X103614285Y-120252381D02*
X103614285Y-119252381D01*
X104376190Y-120252381D02*
X104280952Y-120204762D01*
X104233333Y-120157143D01*
X104185714Y-120061905D01*
X104185714Y-119776190D01*
X104233333Y-119680952D01*
X104280952Y-119633333D01*
X104376190Y-119585714D01*
X104519048Y-119585714D01*
X104614286Y-119633333D01*
X104661905Y-119680952D01*
X104709524Y-119776190D01*
X104709524Y-120061905D01*
X104661905Y-120157143D01*
X104614286Y-120204762D01*
X104519048Y-120252381D01*
X104376190Y-120252381D01*
X105566667Y-119585714D02*
X105566667Y-120252381D01*
X105138095Y-119585714D02*
X105138095Y-120109524D01*
X105185714Y-120204762D01*
X105280952Y-120252381D01*
X105423810Y-120252381D01*
X105519048Y-120204762D01*
X105566667Y-120157143D01*
X106471429Y-120204762D02*
X106376191Y-120252381D01*
X106185714Y-120252381D01*
X106090476Y-120204762D01*
X106042857Y-120157143D01*
X105995238Y-120061905D01*
X105995238Y-119776190D01*
X106042857Y-119680952D01*
X106090476Y-119633333D01*
X106185714Y-119585714D01*
X106376191Y-119585714D01*
X106471429Y-119633333D01*
X106900000Y-120252381D02*
X106900000Y-119252381D01*
X107328572Y-120252381D02*
X107328572Y-119728571D01*
X107280953Y-119633333D01*
X107185715Y-119585714D01*
X107042857Y-119585714D01*
X106947619Y-119633333D01*
X106900000Y-119680952D01*
X113833334Y-138852381D02*
X113500000Y-138376190D01*
X113261905Y-138852381D02*
X113261905Y-137852381D01*
X113642858Y-137852381D01*
X113738096Y-137900000D01*
X113785715Y-137947619D01*
X113833334Y-138042857D01*
X113833334Y-138185714D01*
X113785715Y-138280952D01*
X113738096Y-138328571D01*
X113642858Y-138376190D01*
X113261905Y-138376190D01*
X114214286Y-137947619D02*
X114261905Y-137900000D01*
X114357143Y-137852381D01*
X114595239Y-137852381D01*
X114690477Y-137900000D01*
X114738096Y-137947619D01*
X114785715Y-138042857D01*
X114785715Y-138138095D01*
X114738096Y-138280952D01*
X114166667Y-138852381D01*
X114785715Y-138852381D01*
X104838095Y-137104762D02*
X104980952Y-137152381D01*
X105219048Y-137152381D01*
X105314286Y-137104762D01*
X105361905Y-137057143D01*
X105409524Y-136961905D01*
X105409524Y-136866667D01*
X105361905Y-136771429D01*
X105314286Y-136723810D01*
X105219048Y-136676190D01*
X105028571Y-136628571D01*
X104933333Y-136580952D01*
X104885714Y-136533333D01*
X104838095Y-136438095D01*
X104838095Y-136342857D01*
X104885714Y-136247619D01*
X104933333Y-136200000D01*
X105028571Y-136152381D01*
X105266667Y-136152381D01*
X105409524Y-136200000D01*
X105742857Y-136152381D02*
X106361905Y-136152381D01*
X106028571Y-136533333D01*
X106171429Y-136533333D01*
X106266667Y-136580952D01*
X106314286Y-136628571D01*
X106361905Y-136723810D01*
X106361905Y-136961905D01*
X106314286Y-137057143D01*
X106266667Y-137104762D01*
X106171429Y-137152381D01*
X105885714Y-137152381D01*
X105790476Y-137104762D01*
X105742857Y-137057143D01*
X103328571Y-133852381D02*
X103900000Y-133852381D01*
X103614285Y-134852381D02*
X103614285Y-133852381D01*
X104376190Y-134852381D02*
X104280952Y-134804762D01*
X104233333Y-134757143D01*
X104185714Y-134661905D01*
X104185714Y-134376190D01*
X104233333Y-134280952D01*
X104280952Y-134233333D01*
X104376190Y-134185714D01*
X104519048Y-134185714D01*
X104614286Y-134233333D01*
X104661905Y-134280952D01*
X104709524Y-134376190D01*
X104709524Y-134661905D01*
X104661905Y-134757143D01*
X104614286Y-134804762D01*
X104519048Y-134852381D01*
X104376190Y-134852381D01*
X105566667Y-134185714D02*
X105566667Y-134852381D01*
X105138095Y-134185714D02*
X105138095Y-134709524D01*
X105185714Y-134804762D01*
X105280952Y-134852381D01*
X105423810Y-134852381D01*
X105519048Y-134804762D01*
X105566667Y-134757143D01*
X106471429Y-134804762D02*
X106376191Y-134852381D01*
X106185714Y-134852381D01*
X106090476Y-134804762D01*
X106042857Y-134757143D01*
X105995238Y-134661905D01*
X105995238Y-134376190D01*
X106042857Y-134280952D01*
X106090476Y-134233333D01*
X106185714Y-134185714D01*
X106376191Y-134185714D01*
X106471429Y-134233333D01*
X106900000Y-134852381D02*
X106900000Y-133852381D01*
X107328572Y-134852381D02*
X107328572Y-134328571D01*
X107280953Y-134233333D01*
X107185715Y-134185714D01*
X107042857Y-134185714D01*
X106947619Y-134233333D01*
X106900000Y-134280952D01*
X113261905Y-144452381D02*
X113261905Y-143452381D01*
X113500000Y-143452381D01*
X113642858Y-143500000D01*
X113738096Y-143595238D01*
X113785715Y-143690476D01*
X113833334Y-143880952D01*
X113833334Y-144023810D01*
X113785715Y-144214286D01*
X113738096Y-144309524D01*
X113642858Y-144404762D01*
X113500000Y-144452381D01*
X113261905Y-144452381D01*
X114214286Y-143547619D02*
X114261905Y-143500000D01*
X114357143Y-143452381D01*
X114595239Y-143452381D01*
X114690477Y-143500000D01*
X114738096Y-143547619D01*
X114785715Y-143642857D01*
X114785715Y-143738095D01*
X114738096Y-143880952D01*
X114166667Y-144452381D01*
X114785715Y-144452381D01*
X158261905Y-144452381D02*
X158261905Y-143452381D01*
X158500000Y-143452381D01*
X158642858Y-143500000D01*
X158738096Y-143595238D01*
X158785715Y-143690476D01*
X158833334Y-143880952D01*
X158833334Y-144023810D01*
X158785715Y-144214286D01*
X158738096Y-144309524D01*
X158642858Y-144404762D01*
X158500000Y-144452381D01*
X158261905Y-144452381D01*
X159214286Y-143547619D02*
X159261905Y-143500000D01*
X159357143Y-143452381D01*
X159595239Y-143452381D01*
X159690477Y-143500000D01*
X159738096Y-143547619D01*
X159785715Y-143642857D01*
X159785715Y-143738095D01*
X159738096Y-143880952D01*
X159166667Y-144452381D01*
X159785715Y-144452381D01*
X149838095Y-137104762D02*
X149980952Y-137152381D01*
X150219048Y-137152381D01*
X150314286Y-137104762D01*
X150361905Y-137057143D01*
X150409524Y-136961905D01*
X150409524Y-136866667D01*
X150361905Y-136771429D01*
X150314286Y-136723810D01*
X150219048Y-136676190D01*
X150028571Y-136628571D01*
X149933333Y-136580952D01*
X149885714Y-136533333D01*
X149838095Y-136438095D01*
X149838095Y-136342857D01*
X149885714Y-136247619D01*
X149933333Y-136200000D01*
X150028571Y-136152381D01*
X150266667Y-136152381D01*
X150409524Y-136200000D01*
X150742857Y-136152381D02*
X151361905Y-136152381D01*
X151028571Y-136533333D01*
X151171429Y-136533333D01*
X151266667Y-136580952D01*
X151314286Y-136628571D01*
X151361905Y-136723810D01*
X151361905Y-136961905D01*
X151314286Y-137057143D01*
X151266667Y-137104762D01*
X151171429Y-137152381D01*
X150885714Y-137152381D01*
X150790476Y-137104762D01*
X150742857Y-137057143D01*
X148328571Y-133852381D02*
X148900000Y-133852381D01*
X148614285Y-134852381D02*
X148614285Y-133852381D01*
X149376190Y-134852381D02*
X149280952Y-134804762D01*
X149233333Y-134757143D01*
X149185714Y-134661905D01*
X149185714Y-134376190D01*
X149233333Y-134280952D01*
X149280952Y-134233333D01*
X149376190Y-134185714D01*
X149519048Y-134185714D01*
X149614286Y-134233333D01*
X149661905Y-134280952D01*
X149709524Y-134376190D01*
X149709524Y-134661905D01*
X149661905Y-134757143D01*
X149614286Y-134804762D01*
X149519048Y-134852381D01*
X149376190Y-134852381D01*
X150566667Y-134185714D02*
X150566667Y-134852381D01*
X150138095Y-134185714D02*
X150138095Y-134709524D01*
X150185714Y-134804762D01*
X150280952Y-134852381D01*
X150423810Y-134852381D01*
X150519048Y-134804762D01*
X150566667Y-134757143D01*
X151471429Y-134804762D02*
X151376191Y-134852381D01*
X151185714Y-134852381D01*
X151090476Y-134804762D01*
X151042857Y-134757143D01*
X150995238Y-134661905D01*
X150995238Y-134376190D01*
X151042857Y-134280952D01*
X151090476Y-134233333D01*
X151185714Y-134185714D01*
X151376191Y-134185714D01*
X151471429Y-134233333D01*
X151900000Y-134852381D02*
X151900000Y-133852381D01*
X152328572Y-134852381D02*
X152328572Y-134328571D01*
X152280953Y-134233333D01*
X152185715Y-134185714D01*
X152042857Y-134185714D01*
X151947619Y-134233333D01*
X151900000Y-134280952D01*
X158661905Y-130752381D02*
X158661905Y-129752381D01*
X159042858Y-129752381D01*
X159138096Y-129800000D01*
X159185715Y-129847619D01*
X159233334Y-129942857D01*
X159233334Y-130085714D01*
X159185715Y-130180952D01*
X159138096Y-130228571D01*
X159042858Y-130276190D01*
X158661905Y-130276190D01*
X160185715Y-130752381D02*
X159614286Y-130752381D01*
X159900000Y-130752381D02*
X159900000Y-129752381D01*
X159804762Y-129895238D01*
X159709524Y-129990476D01*
X159614286Y-130038095D01*
X131033334Y-138852381D02*
X130700000Y-138376190D01*
X130461905Y-138852381D02*
X130461905Y-137852381D01*
X130842858Y-137852381D01*
X130938096Y-137900000D01*
X130985715Y-137947619D01*
X131033334Y-138042857D01*
X131033334Y-138185714D01*
X130985715Y-138280952D01*
X130938096Y-138328571D01*
X130842858Y-138376190D01*
X130461905Y-138376190D01*
X131985715Y-138852381D02*
X131414286Y-138852381D01*
X131700000Y-138852381D02*
X131700000Y-137852381D01*
X131604762Y-137995238D01*
X131509524Y-138090476D01*
X131414286Y-138138095D01*
X138638095Y-137104762D02*
X138780952Y-137152381D01*
X139019048Y-137152381D01*
X139114286Y-137104762D01*
X139161905Y-137057143D01*
X139209524Y-136961905D01*
X139209524Y-136866667D01*
X139161905Y-136771429D01*
X139114286Y-136723810D01*
X139019048Y-136676190D01*
X138828571Y-136628571D01*
X138733333Y-136580952D01*
X138685714Y-136533333D01*
X138638095Y-136438095D01*
X138638095Y-136342857D01*
X138685714Y-136247619D01*
X138733333Y-136200000D01*
X138828571Y-136152381D01*
X139066667Y-136152381D01*
X139209524Y-136200000D01*
X139685714Y-137152381D02*
X139876190Y-137152381D01*
X139971429Y-137104762D01*
X140019048Y-137057143D01*
X140114286Y-136914286D01*
X140161905Y-136723810D01*
X140161905Y-136342857D01*
X140114286Y-136247619D01*
X140066667Y-136200000D01*
X139971429Y-136152381D01*
X139780952Y-136152381D01*
X139685714Y-136200000D01*
X139638095Y-136247619D01*
X139590476Y-136342857D01*
X139590476Y-136580952D01*
X139638095Y-136676190D01*
X139685714Y-136723810D01*
X139780952Y-136771429D01*
X139971429Y-136771429D01*
X140066667Y-136723810D01*
X140114286Y-136676190D01*
X140161905Y-136580952D01*
X137128571Y-133852381D02*
X137700000Y-133852381D01*
X137414285Y-134852381D02*
X137414285Y-133852381D01*
X138176190Y-134852381D02*
X138080952Y-134804762D01*
X138033333Y-134757143D01*
X137985714Y-134661905D01*
X137985714Y-134376190D01*
X138033333Y-134280952D01*
X138080952Y-134233333D01*
X138176190Y-134185714D01*
X138319048Y-134185714D01*
X138414286Y-134233333D01*
X138461905Y-134280952D01*
X138509524Y-134376190D01*
X138509524Y-134661905D01*
X138461905Y-134757143D01*
X138414286Y-134804762D01*
X138319048Y-134852381D01*
X138176190Y-134852381D01*
X139366667Y-134185714D02*
X139366667Y-134852381D01*
X138938095Y-134185714D02*
X138938095Y-134709524D01*
X138985714Y-134804762D01*
X139080952Y-134852381D01*
X139223810Y-134852381D01*
X139319048Y-134804762D01*
X139366667Y-134757143D01*
X140271429Y-134804762D02*
X140176191Y-134852381D01*
X139985714Y-134852381D01*
X139890476Y-134804762D01*
X139842857Y-134757143D01*
X139795238Y-134661905D01*
X139795238Y-134376190D01*
X139842857Y-134280952D01*
X139890476Y-134233333D01*
X139985714Y-134185714D01*
X140176191Y-134185714D01*
X140271429Y-134233333D01*
X140700000Y-134852381D02*
X140700000Y-133852381D01*
X141128572Y-134852381D02*
X141128572Y-134328571D01*
X141080953Y-134233333D01*
X140985715Y-134185714D01*
X140842857Y-134185714D01*
X140747619Y-134233333D01*
X140700000Y-134280952D01*
X149838095Y-122504762D02*
X149980952Y-122552381D01*
X150219048Y-122552381D01*
X150314286Y-122504762D01*
X150361905Y-122457143D01*
X150409524Y-122361905D01*
X150409524Y-122266667D01*
X150361905Y-122171429D01*
X150314286Y-122123810D01*
X150219048Y-122076190D01*
X150028571Y-122028571D01*
X149933333Y-121980952D01*
X149885714Y-121933333D01*
X149838095Y-121838095D01*
X149838095Y-121742857D01*
X149885714Y-121647619D01*
X149933333Y-121600000D01*
X150028571Y-121552381D01*
X150266667Y-121552381D01*
X150409524Y-121600000D01*
X150790476Y-121647619D02*
X150838095Y-121600000D01*
X150933333Y-121552381D01*
X151171429Y-121552381D01*
X151266667Y-121600000D01*
X151314286Y-121647619D01*
X151361905Y-121742857D01*
X151361905Y-121838095D01*
X151314286Y-121980952D01*
X150742857Y-122552381D01*
X151361905Y-122552381D01*
X148328571Y-119252381D02*
X148900000Y-119252381D01*
X148614285Y-120252381D02*
X148614285Y-119252381D01*
X149376190Y-120252381D02*
X149280952Y-120204762D01*
X149233333Y-120157143D01*
X149185714Y-120061905D01*
X149185714Y-119776190D01*
X149233333Y-119680952D01*
X149280952Y-119633333D01*
X149376190Y-119585714D01*
X149519048Y-119585714D01*
X149614286Y-119633333D01*
X149661905Y-119680952D01*
X149709524Y-119776190D01*
X149709524Y-120061905D01*
X149661905Y-120157143D01*
X149614286Y-120204762D01*
X149519048Y-120252381D01*
X149376190Y-120252381D01*
X150566667Y-119585714D02*
X150566667Y-120252381D01*
X150138095Y-119585714D02*
X150138095Y-120109524D01*
X150185714Y-120204762D01*
X150280952Y-120252381D01*
X150423810Y-120252381D01*
X150519048Y-120204762D01*
X150566667Y-120157143D01*
X151471429Y-120204762D02*
X151376191Y-120252381D01*
X151185714Y-120252381D01*
X151090476Y-120204762D01*
X151042857Y-120157143D01*
X150995238Y-120061905D01*
X150995238Y-119776190D01*
X151042857Y-119680952D01*
X151090476Y-119633333D01*
X151185714Y-119585714D01*
X151376191Y-119585714D01*
X151471429Y-119633333D01*
X151900000Y-120252381D02*
X151900000Y-119252381D01*
X152328572Y-120252381D02*
X152328572Y-119728571D01*
X152280953Y-119633333D01*
X152185715Y-119585714D01*
X152042857Y-119585714D01*
X151947619Y-119633333D01*
X151900000Y-119680952D01*
X158833334Y-138852381D02*
X158500000Y-138376190D01*
X158261905Y-138852381D02*
X158261905Y-137852381D01*
X158642858Y-137852381D01*
X158738096Y-137900000D01*
X158785715Y-137947619D01*
X158833334Y-138042857D01*
X158833334Y-138185714D01*
X158785715Y-138280952D01*
X158738096Y-138328571D01*
X158642858Y-138376190D01*
X158261905Y-138376190D01*
X159214286Y-137947619D02*
X159261905Y-137900000D01*
X159357143Y-137852381D01*
X159595239Y-137852381D01*
X159690477Y-137900000D01*
X159738096Y-137947619D01*
X159785715Y-138042857D01*
X159785715Y-138138095D01*
X159738096Y-138280952D01*
X159166667Y-138852381D01*
X159785715Y-138852381D01*
X130361905Y-144452381D02*
X130361905Y-143452381D01*
X130600000Y-143452381D01*
X130742858Y-143500000D01*
X130838096Y-143595238D01*
X130885715Y-143690476D01*
X130933334Y-143880952D01*
X130933334Y-144023810D01*
X130885715Y-144214286D01*
X130838096Y-144309524D01*
X130742858Y-144404762D01*
X130600000Y-144452381D01*
X130361905Y-144452381D01*
X131885715Y-144452381D02*
X131314286Y-144452381D01*
X131600000Y-144452381D02*
X131600000Y-143452381D01*
X131504762Y-143595238D01*
X131409524Y-143690476D01*
X131314286Y-143738095D01*
X113933334Y-105557143D02*
X113885715Y-105604762D01*
X113742858Y-105652381D01*
X113647620Y-105652381D01*
X113504762Y-105604762D01*
X113409524Y-105509524D01*
X113361905Y-105414286D01*
X113314286Y-105223810D01*
X113314286Y-105080952D01*
X113361905Y-104890476D01*
X113409524Y-104795238D01*
X113504762Y-104700000D01*
X113647620Y-104652381D01*
X113742858Y-104652381D01*
X113885715Y-104700000D01*
X113933334Y-104747619D01*
X114885715Y-105652381D02*
X114314286Y-105652381D01*
X114600000Y-105652381D02*
X114600000Y-104652381D01*
X114504762Y-104795238D01*
X114409524Y-104890476D01*
X114314286Y-104938095D01*
X104838095Y-107904762D02*
X104980952Y-107952381D01*
X105219048Y-107952381D01*
X105314286Y-107904762D01*
X105361905Y-107857143D01*
X105409524Y-107761905D01*
X105409524Y-107666667D01*
X105361905Y-107571429D01*
X105314286Y-107523810D01*
X105219048Y-107476190D01*
X105028571Y-107428571D01*
X104933333Y-107380952D01*
X104885714Y-107333333D01*
X104838095Y-107238095D01*
X104838095Y-107142857D01*
X104885714Y-107047619D01*
X104933333Y-107000000D01*
X105028571Y-106952381D01*
X105266667Y-106952381D01*
X105409524Y-107000000D01*
X106361905Y-107952381D02*
X105790476Y-107952381D01*
X106076190Y-107952381D02*
X106076190Y-106952381D01*
X105980952Y-107095238D01*
X105885714Y-107190476D01*
X105790476Y-107238095D01*
X103328571Y-104652381D02*
X103900000Y-104652381D01*
X103614285Y-105652381D02*
X103614285Y-104652381D01*
X104376190Y-105652381D02*
X104280952Y-105604762D01*
X104233333Y-105557143D01*
X104185714Y-105461905D01*
X104185714Y-105176190D01*
X104233333Y-105080952D01*
X104280952Y-105033333D01*
X104376190Y-104985714D01*
X104519048Y-104985714D01*
X104614286Y-105033333D01*
X104661905Y-105080952D01*
X104709524Y-105176190D01*
X104709524Y-105461905D01*
X104661905Y-105557143D01*
X104614286Y-105604762D01*
X104519048Y-105652381D01*
X104376190Y-105652381D01*
X105566667Y-104985714D02*
X105566667Y-105652381D01*
X105138095Y-104985714D02*
X105138095Y-105509524D01*
X105185714Y-105604762D01*
X105280952Y-105652381D01*
X105423810Y-105652381D01*
X105519048Y-105604762D01*
X105566667Y-105557143D01*
X106471429Y-105604762D02*
X106376191Y-105652381D01*
X106185714Y-105652381D01*
X106090476Y-105604762D01*
X106042857Y-105557143D01*
X105995238Y-105461905D01*
X105995238Y-105176190D01*
X106042857Y-105080952D01*
X106090476Y-105033333D01*
X106185714Y-104985714D01*
X106376191Y-104985714D01*
X106471429Y-105033333D01*
X106900000Y-105652381D02*
X106900000Y-104652381D01*
X107328572Y-105652381D02*
X107328572Y-105128571D01*
X107280953Y-105033333D01*
X107185715Y-104985714D01*
X107042857Y-104985714D01*
X106947619Y-105033333D01*
X106900000Y-105080952D01*
X113933334Y-106857143D02*
X113885715Y-106904762D01*
X113742858Y-106952381D01*
X113647620Y-106952381D01*
X113504762Y-106904762D01*
X113409524Y-106809524D01*
X113361905Y-106714286D01*
X113314286Y-106523810D01*
X113314286Y-106380952D01*
X113361905Y-106190476D01*
X113409524Y-106095238D01*
X113504762Y-106000000D01*
X113647620Y-105952381D01*
X113742858Y-105952381D01*
X113885715Y-106000000D01*
X113933334Y-106047619D01*
X114314286Y-106047619D02*
X114361905Y-106000000D01*
X114457143Y-105952381D01*
X114695239Y-105952381D01*
X114790477Y-106000000D01*
X114838096Y-106047619D01*
X114885715Y-106142857D01*
X114885715Y-106238095D01*
X114838096Y-106380952D01*
X114266667Y-106952381D01*
X114885715Y-106952381D01*
X113661905Y-130752381D02*
X113661905Y-129752381D01*
X114042858Y-129752381D01*
X114138096Y-129800000D01*
X114185715Y-129847619D01*
X114233334Y-129942857D01*
X114233334Y-130085714D01*
X114185715Y-130180952D01*
X114138096Y-130228571D01*
X114042858Y-130276190D01*
X113661905Y-130276190D01*
X115185715Y-130752381D02*
X114614286Y-130752381D01*
X114900000Y-130752381D02*
X114900000Y-129752381D01*
X114804762Y-129895238D01*
X114709524Y-129990476D01*
X114614286Y-130038095D01*
X121738095Y-137104762D02*
X121880952Y-137152381D01*
X122119048Y-137152381D01*
X122214286Y-137104762D01*
X122261905Y-137057143D01*
X122309524Y-136961905D01*
X122309524Y-136866667D01*
X122261905Y-136771429D01*
X122214286Y-136723810D01*
X122119048Y-136676190D01*
X121928571Y-136628571D01*
X121833333Y-136580952D01*
X121785714Y-136533333D01*
X121738095Y-136438095D01*
X121738095Y-136342857D01*
X121785714Y-136247619D01*
X121833333Y-136200000D01*
X121928571Y-136152381D01*
X122166667Y-136152381D01*
X122309524Y-136200000D01*
X123166667Y-136152381D02*
X122976190Y-136152381D01*
X122880952Y-136200000D01*
X122833333Y-136247619D01*
X122738095Y-136390476D01*
X122690476Y-136580952D01*
X122690476Y-136961905D01*
X122738095Y-137057143D01*
X122785714Y-137104762D01*
X122880952Y-137152381D01*
X123071429Y-137152381D01*
X123166667Y-137104762D01*
X123214286Y-137057143D01*
X123261905Y-136961905D01*
X123261905Y-136723810D01*
X123214286Y-136628571D01*
X123166667Y-136580952D01*
X123071429Y-136533333D01*
X122880952Y-136533333D01*
X122785714Y-136580952D01*
X122738095Y-136628571D01*
X122690476Y-136723810D01*
X120228571Y-133852381D02*
X120800000Y-133852381D01*
X120514285Y-134852381D02*
X120514285Y-133852381D01*
X121276190Y-134852381D02*
X121180952Y-134804762D01*
X121133333Y-134757143D01*
X121085714Y-134661905D01*
X121085714Y-134376190D01*
X121133333Y-134280952D01*
X121180952Y-134233333D01*
X121276190Y-134185714D01*
X121419048Y-134185714D01*
X121514286Y-134233333D01*
X121561905Y-134280952D01*
X121609524Y-134376190D01*
X121609524Y-134661905D01*
X121561905Y-134757143D01*
X121514286Y-134804762D01*
X121419048Y-134852381D01*
X121276190Y-134852381D01*
X122466667Y-134185714D02*
X122466667Y-134852381D01*
X122038095Y-134185714D02*
X122038095Y-134709524D01*
X122085714Y-134804762D01*
X122180952Y-134852381D01*
X122323810Y-134852381D01*
X122419048Y-134804762D01*
X122466667Y-134757143D01*
X123371429Y-134804762D02*
X123276191Y-134852381D01*
X123085714Y-134852381D01*
X122990476Y-134804762D01*
X122942857Y-134757143D01*
X122895238Y-134661905D01*
X122895238Y-134376190D01*
X122942857Y-134280952D01*
X122990476Y-134233333D01*
X123085714Y-134185714D01*
X123276191Y-134185714D01*
X123371429Y-134233333D01*
X123800000Y-134852381D02*
X123800000Y-133852381D01*
X124228572Y-134852381D02*
X124228572Y-134328571D01*
X124180953Y-134233333D01*
X124085715Y-134185714D01*
X123942857Y-134185714D01*
X123847619Y-134233333D01*
X123800000Y-134280952D01*
X138638095Y-122504762D02*
X138780952Y-122552381D01*
X139019048Y-122552381D01*
X139114286Y-122504762D01*
X139161905Y-122457143D01*
X139209524Y-122361905D01*
X139209524Y-122266667D01*
X139161905Y-122171429D01*
X139114286Y-122123810D01*
X139019048Y-122076190D01*
X138828571Y-122028571D01*
X138733333Y-121980952D01*
X138685714Y-121933333D01*
X138638095Y-121838095D01*
X138638095Y-121742857D01*
X138685714Y-121647619D01*
X138733333Y-121600000D01*
X138828571Y-121552381D01*
X139066667Y-121552381D01*
X139209524Y-121600000D01*
X139780952Y-121980952D02*
X139685714Y-121933333D01*
X139638095Y-121885714D01*
X139590476Y-121790476D01*
X139590476Y-121742857D01*
X139638095Y-121647619D01*
X139685714Y-121600000D01*
X139780952Y-121552381D01*
X139971429Y-121552381D01*
X140066667Y-121600000D01*
X140114286Y-121647619D01*
X140161905Y-121742857D01*
X140161905Y-121790476D01*
X140114286Y-121885714D01*
X140066667Y-121933333D01*
X139971429Y-121980952D01*
X139780952Y-121980952D01*
X139685714Y-122028571D01*
X139638095Y-122076190D01*
X139590476Y-122171429D01*
X139590476Y-122361905D01*
X139638095Y-122457143D01*
X139685714Y-122504762D01*
X139780952Y-122552381D01*
X139971429Y-122552381D01*
X140066667Y-122504762D01*
X140114286Y-122457143D01*
X140161905Y-122361905D01*
X140161905Y-122171429D01*
X140114286Y-122076190D01*
X140066667Y-122028571D01*
X139971429Y-121980952D01*
X137128571Y-119252381D02*
X137700000Y-119252381D01*
X137414285Y-120252381D02*
X137414285Y-119252381D01*
X138176190Y-120252381D02*
X138080952Y-120204762D01*
X138033333Y-120157143D01*
X137985714Y-120061905D01*
X137985714Y-119776190D01*
X138033333Y-119680952D01*
X138080952Y-119633333D01*
X138176190Y-119585714D01*
X138319048Y-119585714D01*
X138414286Y-119633333D01*
X138461905Y-119680952D01*
X138509524Y-119776190D01*
X138509524Y-120061905D01*
X138461905Y-120157143D01*
X138414286Y-120204762D01*
X138319048Y-120252381D01*
X138176190Y-120252381D01*
X139366667Y-119585714D02*
X139366667Y-120252381D01*
X138938095Y-119585714D02*
X138938095Y-120109524D01*
X138985714Y-120204762D01*
X139080952Y-120252381D01*
X139223810Y-120252381D01*
X139319048Y-120204762D01*
X139366667Y-120157143D01*
X140271429Y-120204762D02*
X140176191Y-120252381D01*
X139985714Y-120252381D01*
X139890476Y-120204762D01*
X139842857Y-120157143D01*
X139795238Y-120061905D01*
X139795238Y-119776190D01*
X139842857Y-119680952D01*
X139890476Y-119633333D01*
X139985714Y-119585714D01*
X140176191Y-119585714D01*
X140271429Y-119633333D01*
X140700000Y-120252381D02*
X140700000Y-119252381D01*
X141128572Y-120252381D02*
X141128572Y-119728571D01*
X141080953Y-119633333D01*
X140985715Y-119585714D01*
X140842857Y-119585714D01*
X140747619Y-119633333D01*
X140700000Y-119680952D01*
X121738095Y-122504762D02*
X121880952Y-122552381D01*
X122119048Y-122552381D01*
X122214286Y-122504762D01*
X122261905Y-122457143D01*
X122309524Y-122361905D01*
X122309524Y-122266667D01*
X122261905Y-122171429D01*
X122214286Y-122123810D01*
X122119048Y-122076190D01*
X121928571Y-122028571D01*
X121833333Y-121980952D01*
X121785714Y-121933333D01*
X121738095Y-121838095D01*
X121738095Y-121742857D01*
X121785714Y-121647619D01*
X121833333Y-121600000D01*
X121928571Y-121552381D01*
X122166667Y-121552381D01*
X122309524Y-121600000D01*
X123214286Y-121552381D02*
X122738095Y-121552381D01*
X122690476Y-122028571D01*
X122738095Y-121980952D01*
X122833333Y-121933333D01*
X123071429Y-121933333D01*
X123166667Y-121980952D01*
X123214286Y-122028571D01*
X123261905Y-122123810D01*
X123261905Y-122361905D01*
X123214286Y-122457143D01*
X123166667Y-122504762D01*
X123071429Y-122552381D01*
X122833333Y-122552381D01*
X122738095Y-122504762D01*
X122690476Y-122457143D01*
X120228571Y-119252381D02*
X120800000Y-119252381D01*
X120514285Y-120252381D02*
X120514285Y-119252381D01*
X121276190Y-120252381D02*
X121180952Y-120204762D01*
X121133333Y-120157143D01*
X121085714Y-120061905D01*
X121085714Y-119776190D01*
X121133333Y-119680952D01*
X121180952Y-119633333D01*
X121276190Y-119585714D01*
X121419048Y-119585714D01*
X121514286Y-119633333D01*
X121561905Y-119680952D01*
X121609524Y-119776190D01*
X121609524Y-120061905D01*
X121561905Y-120157143D01*
X121514286Y-120204762D01*
X121419048Y-120252381D01*
X121276190Y-120252381D01*
X122466667Y-119585714D02*
X122466667Y-120252381D01*
X122038095Y-119585714D02*
X122038095Y-120109524D01*
X122085714Y-120204762D01*
X122180952Y-120252381D01*
X122323810Y-120252381D01*
X122419048Y-120204762D01*
X122466667Y-120157143D01*
X123371429Y-120204762D02*
X123276191Y-120252381D01*
X123085714Y-120252381D01*
X122990476Y-120204762D01*
X122942857Y-120157143D01*
X122895238Y-120061905D01*
X122895238Y-119776190D01*
X122942857Y-119680952D01*
X122990476Y-119633333D01*
X123085714Y-119585714D01*
X123276191Y-119585714D01*
X123371429Y-119633333D01*
X123800000Y-120252381D02*
X123800000Y-119252381D01*
X124228572Y-120252381D02*
X124228572Y-119728571D01*
X124180953Y-119633333D01*
X124085715Y-119585714D01*
X123942857Y-119585714D01*
X123847619Y-119633333D01*
X123800000Y-119680952D01*
X130661905Y-130752381D02*
X130661905Y-129752381D01*
X131042858Y-129752381D01*
X131138096Y-129800000D01*
X131185715Y-129847619D01*
X131233334Y-129942857D01*
X131233334Y-130085714D01*
X131185715Y-130180952D01*
X131138096Y-130228571D01*
X131042858Y-130276190D01*
X130661905Y-130276190D01*
X131614286Y-129847619D02*
X131661905Y-129800000D01*
X131757143Y-129752381D01*
X131995239Y-129752381D01*
X132090477Y-129800000D01*
X132138096Y-129847619D01*
X132185715Y-129942857D01*
X132185715Y-130038095D01*
X132138096Y-130180952D01*
X131566667Y-130752381D01*
X132185715Y-130752381D01*
X149838095Y-107904762D02*
X149980952Y-107952381D01*
X150219048Y-107952381D01*
X150314286Y-107904762D01*
X150361905Y-107857143D01*
X150409524Y-107761905D01*
X150409524Y-107666667D01*
X150361905Y-107571429D01*
X150314286Y-107523810D01*
X150219048Y-107476190D01*
X150028571Y-107428571D01*
X149933333Y-107380952D01*
X149885714Y-107333333D01*
X149838095Y-107238095D01*
X149838095Y-107142857D01*
X149885714Y-107047619D01*
X149933333Y-107000000D01*
X150028571Y-106952381D01*
X150266667Y-106952381D01*
X150409524Y-107000000D01*
X151361905Y-107952381D02*
X150790476Y-107952381D01*
X151076190Y-107952381D02*
X151076190Y-106952381D01*
X150980952Y-107095238D01*
X150885714Y-107190476D01*
X150790476Y-107238095D01*
X148328571Y-104652381D02*
X148900000Y-104652381D01*
X148614285Y-105652381D02*
X148614285Y-104652381D01*
X149376190Y-105652381D02*
X149280952Y-105604762D01*
X149233333Y-105557143D01*
X149185714Y-105461905D01*
X149185714Y-105176190D01*
X149233333Y-105080952D01*
X149280952Y-105033333D01*
X149376190Y-104985714D01*
X149519048Y-104985714D01*
X149614286Y-105033333D01*
X149661905Y-105080952D01*
X149709524Y-105176190D01*
X149709524Y-105461905D01*
X149661905Y-105557143D01*
X149614286Y-105604762D01*
X149519048Y-105652381D01*
X149376190Y-105652381D01*
X150566667Y-104985714D02*
X150566667Y-105652381D01*
X150138095Y-104985714D02*
X150138095Y-105509524D01*
X150185714Y-105604762D01*
X150280952Y-105652381D01*
X150423810Y-105652381D01*
X150519048Y-105604762D01*
X150566667Y-105557143D01*
X151471429Y-105604762D02*
X151376191Y-105652381D01*
X151185714Y-105652381D01*
X151090476Y-105604762D01*
X151042857Y-105557143D01*
X150995238Y-105461905D01*
X150995238Y-105176190D01*
X151042857Y-105080952D01*
X151090476Y-105033333D01*
X151185714Y-104985714D01*
X151376191Y-104985714D01*
X151471429Y-105033333D01*
X151900000Y-105652381D02*
X151900000Y-104652381D01*
X152328572Y-105652381D02*
X152328572Y-105128571D01*
X152280953Y-105033333D01*
X152185715Y-104985714D01*
X152042857Y-104985714D01*
X151947619Y-105033333D01*
X151900000Y-105080952D01*
X130833334Y-106757143D02*
X130785715Y-106804762D01*
X130642858Y-106852381D01*
X130547620Y-106852381D01*
X130404762Y-106804762D01*
X130309524Y-106709524D01*
X130261905Y-106614286D01*
X130214286Y-106423810D01*
X130214286Y-106280952D01*
X130261905Y-106090476D01*
X130309524Y-105995238D01*
X130404762Y-105900000D01*
X130547620Y-105852381D01*
X130642858Y-105852381D01*
X130785715Y-105900000D01*
X130833334Y-105947619D01*
X131690477Y-106185714D02*
X131690477Y-106852381D01*
X131452381Y-105804762D02*
X131214286Y-106519048D01*
X131833334Y-106519048D01*
X138638095Y-107904762D02*
X138780952Y-107952381D01*
X139019048Y-107952381D01*
X139114286Y-107904762D01*
X139161905Y-107857143D01*
X139209524Y-107761905D01*
X139209524Y-107666667D01*
X139161905Y-107571429D01*
X139114286Y-107523810D01*
X139019048Y-107476190D01*
X138828571Y-107428571D01*
X138733333Y-107380952D01*
X138685714Y-107333333D01*
X138638095Y-107238095D01*
X138638095Y-107142857D01*
X138685714Y-107047619D01*
X138733333Y-107000000D01*
X138828571Y-106952381D01*
X139066667Y-106952381D01*
X139209524Y-107000000D01*
X139542857Y-106952381D02*
X140209524Y-106952381D01*
X139780952Y-107952381D01*
X137128571Y-104652381D02*
X137700000Y-104652381D01*
X137414285Y-105652381D02*
X137414285Y-104652381D01*
X138176190Y-105652381D02*
X138080952Y-105604762D01*
X138033333Y-105557143D01*
X137985714Y-105461905D01*
X137985714Y-105176190D01*
X138033333Y-105080952D01*
X138080952Y-105033333D01*
X138176190Y-104985714D01*
X138319048Y-104985714D01*
X138414286Y-105033333D01*
X138461905Y-105080952D01*
X138509524Y-105176190D01*
X138509524Y-105461905D01*
X138461905Y-105557143D01*
X138414286Y-105604762D01*
X138319048Y-105652381D01*
X138176190Y-105652381D01*
X139366667Y-104985714D02*
X139366667Y-105652381D01*
X138938095Y-104985714D02*
X138938095Y-105509524D01*
X138985714Y-105604762D01*
X139080952Y-105652381D01*
X139223810Y-105652381D01*
X139319048Y-105604762D01*
X139366667Y-105557143D01*
X140271429Y-105604762D02*
X140176191Y-105652381D01*
X139985714Y-105652381D01*
X139890476Y-105604762D01*
X139842857Y-105557143D01*
X139795238Y-105461905D01*
X139795238Y-105176190D01*
X139842857Y-105080952D01*
X139890476Y-105033333D01*
X139985714Y-104985714D01*
X140176191Y-104985714D01*
X140271429Y-105033333D01*
X140700000Y-105652381D02*
X140700000Y-104652381D01*
X141128572Y-105652381D02*
X141128572Y-105128571D01*
X141080953Y-105033333D01*
X140985715Y-104985714D01*
X140842857Y-104985714D01*
X140747619Y-105033333D01*
X140700000Y-105080952D01*
X121738095Y-107904762D02*
X121880952Y-107952381D01*
X122119048Y-107952381D01*
X122214286Y-107904762D01*
X122261905Y-107857143D01*
X122309524Y-107761905D01*
X122309524Y-107666667D01*
X122261905Y-107571429D01*
X122214286Y-107523810D01*
X122119048Y-107476190D01*
X121928571Y-107428571D01*
X121833333Y-107380952D01*
X121785714Y-107333333D01*
X121738095Y-107238095D01*
X121738095Y-107142857D01*
X121785714Y-107047619D01*
X121833333Y-107000000D01*
X121928571Y-106952381D01*
X122166667Y-106952381D01*
X122309524Y-107000000D01*
X123166667Y-107285714D02*
X123166667Y-107952381D01*
X122928571Y-106904762D02*
X122690476Y-107619048D01*
X123309524Y-107619048D01*
X120228571Y-104652381D02*
X120800000Y-104652381D01*
X120514285Y-105652381D02*
X120514285Y-104652381D01*
X121276190Y-105652381D02*
X121180952Y-105604762D01*
X121133333Y-105557143D01*
X121085714Y-105461905D01*
X121085714Y-105176190D01*
X121133333Y-105080952D01*
X121180952Y-105033333D01*
X121276190Y-104985714D01*
X121419048Y-104985714D01*
X121514286Y-105033333D01*
X121561905Y-105080952D01*
X121609524Y-105176190D01*
X121609524Y-105461905D01*
X121561905Y-105557143D01*
X121514286Y-105604762D01*
X121419048Y-105652381D01*
X121276190Y-105652381D01*
X122466667Y-104985714D02*
X122466667Y-105652381D01*
X122038095Y-104985714D02*
X122038095Y-105509524D01*
X122085714Y-105604762D01*
X122180952Y-105652381D01*
X122323810Y-105652381D01*
X122419048Y-105604762D01*
X122466667Y-105557143D01*
X123371429Y-105604762D02*
X123276191Y-105652381D01*
X123085714Y-105652381D01*
X122990476Y-105604762D01*
X122942857Y-105557143D01*
X122895238Y-105461905D01*
X122895238Y-105176190D01*
X122942857Y-105080952D01*
X122990476Y-105033333D01*
X123085714Y-104985714D01*
X123276191Y-104985714D01*
X123371429Y-105033333D01*
X123800000Y-105652381D02*
X123800000Y-104652381D01*
X124228572Y-105652381D02*
X124228572Y-105128571D01*
X124180953Y-105033333D01*
X124085715Y-104985714D01*
X123942857Y-104985714D01*
X123847619Y-105033333D01*
X123800000Y-105080952D01*
X130833334Y-105457143D02*
X130785715Y-105504762D01*
X130642858Y-105552381D01*
X130547620Y-105552381D01*
X130404762Y-105504762D01*
X130309524Y-105409524D01*
X130261905Y-105314286D01*
X130214286Y-105123810D01*
X130214286Y-104980952D01*
X130261905Y-104790476D01*
X130309524Y-104695238D01*
X130404762Y-104600000D01*
X130547620Y-104552381D01*
X130642858Y-104552381D01*
X130785715Y-104600000D01*
X130833334Y-104647619D01*
X131166667Y-104552381D02*
X131785715Y-104552381D01*
X131452381Y-104933333D01*
X131595239Y-104933333D01*
X131690477Y-104980952D01*
X131738096Y-105028571D01*
X131785715Y-105123810D01*
X131785715Y-105361905D01*
X131738096Y-105457143D01*
X131690477Y-105504762D01*
X131595239Y-105552381D01*
X131309524Y-105552381D01*
X131214286Y-105504762D01*
X131166667Y-105457143D01*
X158661905Y-85752381D02*
X158661905Y-84752381D01*
X159042858Y-84752381D01*
X159138096Y-84800000D01*
X159185715Y-84847619D01*
X159233334Y-84942857D01*
X159233334Y-85085714D01*
X159185715Y-85180952D01*
X159138096Y-85228571D01*
X159042858Y-85276190D01*
X158661905Y-85276190D01*
X160185715Y-85752381D02*
X159614286Y-85752381D01*
X159900000Y-85752381D02*
X159900000Y-84752381D01*
X159804762Y-84895238D01*
X159709524Y-84990476D01*
X159614286Y-85038095D01*
X158261905Y-99452381D02*
X158261905Y-98452381D01*
X158500000Y-98452381D01*
X158642858Y-98500000D01*
X158738096Y-98595238D01*
X158785715Y-98690476D01*
X158833334Y-98880952D01*
X158833334Y-99023810D01*
X158785715Y-99214286D01*
X158738096Y-99309524D01*
X158642858Y-99404762D01*
X158500000Y-99452381D01*
X158261905Y-99452381D01*
X159214286Y-98547619D02*
X159261905Y-98500000D01*
X159357143Y-98452381D01*
X159595239Y-98452381D01*
X159690477Y-98500000D01*
X159738096Y-98547619D01*
X159785715Y-98642857D01*
X159785715Y-98738095D01*
X159738096Y-98880952D01*
X159166667Y-99452381D01*
X159785715Y-99452381D01*
X158833334Y-93852381D02*
X158500000Y-93376190D01*
X158261905Y-93852381D02*
X158261905Y-92852381D01*
X158642858Y-92852381D01*
X158738096Y-92900000D01*
X158785715Y-92947619D01*
X158833334Y-93042857D01*
X158833334Y-93185714D01*
X158785715Y-93280952D01*
X158738096Y-93328571D01*
X158642858Y-93376190D01*
X158261905Y-93376190D01*
X159214286Y-92947619D02*
X159261905Y-92900000D01*
X159357143Y-92852381D01*
X159595239Y-92852381D01*
X159690477Y-92900000D01*
X159738096Y-92947619D01*
X159785715Y-93042857D01*
X159785715Y-93138095D01*
X159738096Y-93280952D01*
X159166667Y-93852381D01*
X159785715Y-93852381D01*
X149838095Y-77504762D02*
X149980952Y-77552381D01*
X150219048Y-77552381D01*
X150314286Y-77504762D01*
X150361905Y-77457143D01*
X150409524Y-77361905D01*
X150409524Y-77266667D01*
X150361905Y-77171429D01*
X150314286Y-77123810D01*
X150219048Y-77076190D01*
X150028571Y-77028571D01*
X149933333Y-76980952D01*
X149885714Y-76933333D01*
X149838095Y-76838095D01*
X149838095Y-76742857D01*
X149885714Y-76647619D01*
X149933333Y-76600000D01*
X150028571Y-76552381D01*
X150266667Y-76552381D01*
X150409524Y-76600000D01*
X150790476Y-76647619D02*
X150838095Y-76600000D01*
X150933333Y-76552381D01*
X151171429Y-76552381D01*
X151266667Y-76600000D01*
X151314286Y-76647619D01*
X151361905Y-76742857D01*
X151361905Y-76838095D01*
X151314286Y-76980952D01*
X150742857Y-77552381D01*
X151361905Y-77552381D01*
X148328571Y-74252381D02*
X148900000Y-74252381D01*
X148614285Y-75252381D02*
X148614285Y-74252381D01*
X149376190Y-75252381D02*
X149280952Y-75204762D01*
X149233333Y-75157143D01*
X149185714Y-75061905D01*
X149185714Y-74776190D01*
X149233333Y-74680952D01*
X149280952Y-74633333D01*
X149376190Y-74585714D01*
X149519048Y-74585714D01*
X149614286Y-74633333D01*
X149661905Y-74680952D01*
X149709524Y-74776190D01*
X149709524Y-75061905D01*
X149661905Y-75157143D01*
X149614286Y-75204762D01*
X149519048Y-75252381D01*
X149376190Y-75252381D01*
X150566667Y-74585714D02*
X150566667Y-75252381D01*
X150138095Y-74585714D02*
X150138095Y-75109524D01*
X150185714Y-75204762D01*
X150280952Y-75252381D01*
X150423810Y-75252381D01*
X150519048Y-75204762D01*
X150566667Y-75157143D01*
X151471429Y-75204762D02*
X151376191Y-75252381D01*
X151185714Y-75252381D01*
X151090476Y-75204762D01*
X151042857Y-75157143D01*
X150995238Y-75061905D01*
X150995238Y-74776190D01*
X151042857Y-74680952D01*
X151090476Y-74633333D01*
X151185714Y-74585714D01*
X151376191Y-74585714D01*
X151471429Y-74633333D01*
X151900000Y-75252381D02*
X151900000Y-74252381D01*
X152328572Y-75252381D02*
X152328572Y-74728571D01*
X152280953Y-74633333D01*
X152185715Y-74585714D01*
X152042857Y-74585714D01*
X151947619Y-74633333D01*
X151900000Y-74680952D01*
X149838095Y-92104762D02*
X149980952Y-92152381D01*
X150219048Y-92152381D01*
X150314286Y-92104762D01*
X150361905Y-92057143D01*
X150409524Y-91961905D01*
X150409524Y-91866667D01*
X150361905Y-91771429D01*
X150314286Y-91723810D01*
X150219048Y-91676190D01*
X150028571Y-91628571D01*
X149933333Y-91580952D01*
X149885714Y-91533333D01*
X149838095Y-91438095D01*
X149838095Y-91342857D01*
X149885714Y-91247619D01*
X149933333Y-91200000D01*
X150028571Y-91152381D01*
X150266667Y-91152381D01*
X150409524Y-91200000D01*
X150742857Y-91152381D02*
X151361905Y-91152381D01*
X151028571Y-91533333D01*
X151171429Y-91533333D01*
X151266667Y-91580952D01*
X151314286Y-91628571D01*
X151361905Y-91723810D01*
X151361905Y-91961905D01*
X151314286Y-92057143D01*
X151266667Y-92104762D01*
X151171429Y-92152381D01*
X150885714Y-92152381D01*
X150790476Y-92104762D01*
X150742857Y-92057143D01*
X148328571Y-88852381D02*
X148900000Y-88852381D01*
X148614285Y-89852381D02*
X148614285Y-88852381D01*
X149376190Y-89852381D02*
X149280952Y-89804762D01*
X149233333Y-89757143D01*
X149185714Y-89661905D01*
X149185714Y-89376190D01*
X149233333Y-89280952D01*
X149280952Y-89233333D01*
X149376190Y-89185714D01*
X149519048Y-89185714D01*
X149614286Y-89233333D01*
X149661905Y-89280952D01*
X149709524Y-89376190D01*
X149709524Y-89661905D01*
X149661905Y-89757143D01*
X149614286Y-89804762D01*
X149519048Y-89852381D01*
X149376190Y-89852381D01*
X150566667Y-89185714D02*
X150566667Y-89852381D01*
X150138095Y-89185714D02*
X150138095Y-89709524D01*
X150185714Y-89804762D01*
X150280952Y-89852381D01*
X150423810Y-89852381D01*
X150519048Y-89804762D01*
X150566667Y-89757143D01*
X151471429Y-89804762D02*
X151376191Y-89852381D01*
X151185714Y-89852381D01*
X151090476Y-89804762D01*
X151042857Y-89757143D01*
X150995238Y-89661905D01*
X150995238Y-89376190D01*
X151042857Y-89280952D01*
X151090476Y-89233333D01*
X151185714Y-89185714D01*
X151376191Y-89185714D01*
X151471429Y-89233333D01*
X151900000Y-89852381D02*
X151900000Y-88852381D01*
X152328572Y-89852381D02*
X152328572Y-89328571D01*
X152280953Y-89233333D01*
X152185715Y-89185714D01*
X152042857Y-89185714D01*
X151947619Y-89233333D01*
X151900000Y-89280952D01*
X158933334Y-61857143D02*
X158885715Y-61904762D01*
X158742858Y-61952381D01*
X158647620Y-61952381D01*
X158504762Y-61904762D01*
X158409524Y-61809524D01*
X158361905Y-61714286D01*
X158314286Y-61523810D01*
X158314286Y-61380952D01*
X158361905Y-61190476D01*
X158409524Y-61095238D01*
X158504762Y-61000000D01*
X158647620Y-60952381D01*
X158742858Y-60952381D01*
X158885715Y-61000000D01*
X158933334Y-61047619D01*
X159314286Y-61047619D02*
X159361905Y-61000000D01*
X159457143Y-60952381D01*
X159695239Y-60952381D01*
X159790477Y-61000000D01*
X159838096Y-61047619D01*
X159885715Y-61142857D01*
X159885715Y-61238095D01*
X159838096Y-61380952D01*
X159266667Y-61952381D01*
X159885715Y-61952381D01*
X149838095Y-62904762D02*
X149980952Y-62952381D01*
X150219048Y-62952381D01*
X150314286Y-62904762D01*
X150361905Y-62857143D01*
X150409524Y-62761905D01*
X150409524Y-62666667D01*
X150361905Y-62571429D01*
X150314286Y-62523810D01*
X150219048Y-62476190D01*
X150028571Y-62428571D01*
X149933333Y-62380952D01*
X149885714Y-62333333D01*
X149838095Y-62238095D01*
X149838095Y-62142857D01*
X149885714Y-62047619D01*
X149933333Y-62000000D01*
X150028571Y-61952381D01*
X150266667Y-61952381D01*
X150409524Y-62000000D01*
X151361905Y-62952381D02*
X150790476Y-62952381D01*
X151076190Y-62952381D02*
X151076190Y-61952381D01*
X150980952Y-62095238D01*
X150885714Y-62190476D01*
X150790476Y-62238095D01*
X148328571Y-59652381D02*
X148900000Y-59652381D01*
X148614285Y-60652381D02*
X148614285Y-59652381D01*
X149376190Y-60652381D02*
X149280952Y-60604762D01*
X149233333Y-60557143D01*
X149185714Y-60461905D01*
X149185714Y-60176190D01*
X149233333Y-60080952D01*
X149280952Y-60033333D01*
X149376190Y-59985714D01*
X149519048Y-59985714D01*
X149614286Y-60033333D01*
X149661905Y-60080952D01*
X149709524Y-60176190D01*
X149709524Y-60461905D01*
X149661905Y-60557143D01*
X149614286Y-60604762D01*
X149519048Y-60652381D01*
X149376190Y-60652381D01*
X150566667Y-59985714D02*
X150566667Y-60652381D01*
X150138095Y-59985714D02*
X150138095Y-60509524D01*
X150185714Y-60604762D01*
X150280952Y-60652381D01*
X150423810Y-60652381D01*
X150519048Y-60604762D01*
X150566667Y-60557143D01*
X151471429Y-60604762D02*
X151376191Y-60652381D01*
X151185714Y-60652381D01*
X151090476Y-60604762D01*
X151042857Y-60557143D01*
X150995238Y-60461905D01*
X150995238Y-60176190D01*
X151042857Y-60080952D01*
X151090476Y-60033333D01*
X151185714Y-59985714D01*
X151376191Y-59985714D01*
X151471429Y-60033333D01*
X151900000Y-60652381D02*
X151900000Y-59652381D01*
X152328572Y-60652381D02*
X152328572Y-60128571D01*
X152280953Y-60033333D01*
X152185715Y-59985714D01*
X152042857Y-59985714D01*
X151947619Y-60033333D01*
X151900000Y-60080952D01*
X158933334Y-60557143D02*
X158885715Y-60604762D01*
X158742858Y-60652381D01*
X158647620Y-60652381D01*
X158504762Y-60604762D01*
X158409524Y-60509524D01*
X158361905Y-60414286D01*
X158314286Y-60223810D01*
X158314286Y-60080952D01*
X158361905Y-59890476D01*
X158409524Y-59795238D01*
X158504762Y-59700000D01*
X158647620Y-59652381D01*
X158742858Y-59652381D01*
X158885715Y-59700000D01*
X158933334Y-59747619D01*
X159885715Y-60652381D02*
X159314286Y-60652381D01*
X159600000Y-60652381D02*
X159600000Y-59652381D01*
X159504762Y-59795238D01*
X159409524Y-59890476D01*
X159314286Y-59938095D01*
X175661905Y-85752381D02*
X175661905Y-84752381D01*
X176042858Y-84752381D01*
X176138096Y-84800000D01*
X176185715Y-84847619D01*
X176233334Y-84942857D01*
X176233334Y-85085714D01*
X176185715Y-85180952D01*
X176138096Y-85228571D01*
X176042858Y-85276190D01*
X175661905Y-85276190D01*
X176614286Y-84847619D02*
X176661905Y-84800000D01*
X176757143Y-84752381D01*
X176995239Y-84752381D01*
X177090477Y-84800000D01*
X177138096Y-84847619D01*
X177185715Y-84942857D01*
X177185715Y-85038095D01*
X177138096Y-85180952D01*
X176566667Y-85752381D01*
X177185715Y-85752381D01*
X166738095Y-77504762D02*
X166880952Y-77552381D01*
X167119048Y-77552381D01*
X167214286Y-77504762D01*
X167261905Y-77457143D01*
X167309524Y-77361905D01*
X167309524Y-77266667D01*
X167261905Y-77171429D01*
X167214286Y-77123810D01*
X167119048Y-77076190D01*
X166928571Y-77028571D01*
X166833333Y-76980952D01*
X166785714Y-76933333D01*
X166738095Y-76838095D01*
X166738095Y-76742857D01*
X166785714Y-76647619D01*
X166833333Y-76600000D01*
X166928571Y-76552381D01*
X167166667Y-76552381D01*
X167309524Y-76600000D01*
X168214286Y-76552381D02*
X167738095Y-76552381D01*
X167690476Y-77028571D01*
X167738095Y-76980952D01*
X167833333Y-76933333D01*
X168071429Y-76933333D01*
X168166667Y-76980952D01*
X168214286Y-77028571D01*
X168261905Y-77123810D01*
X168261905Y-77361905D01*
X168214286Y-77457143D01*
X168166667Y-77504762D01*
X168071429Y-77552381D01*
X167833333Y-77552381D01*
X167738095Y-77504762D01*
X167690476Y-77457143D01*
X165228571Y-74252381D02*
X165800000Y-74252381D01*
X165514285Y-75252381D02*
X165514285Y-74252381D01*
X166276190Y-75252381D02*
X166180952Y-75204762D01*
X166133333Y-75157143D01*
X166085714Y-75061905D01*
X166085714Y-74776190D01*
X166133333Y-74680952D01*
X166180952Y-74633333D01*
X166276190Y-74585714D01*
X166419048Y-74585714D01*
X166514286Y-74633333D01*
X166561905Y-74680952D01*
X166609524Y-74776190D01*
X166609524Y-75061905D01*
X166561905Y-75157143D01*
X166514286Y-75204762D01*
X166419048Y-75252381D01*
X166276190Y-75252381D01*
X167466667Y-74585714D02*
X167466667Y-75252381D01*
X167038095Y-74585714D02*
X167038095Y-75109524D01*
X167085714Y-75204762D01*
X167180952Y-75252381D01*
X167323810Y-75252381D01*
X167419048Y-75204762D01*
X167466667Y-75157143D01*
X168371429Y-75204762D02*
X168276191Y-75252381D01*
X168085714Y-75252381D01*
X167990476Y-75204762D01*
X167942857Y-75157143D01*
X167895238Y-75061905D01*
X167895238Y-74776190D01*
X167942857Y-74680952D01*
X167990476Y-74633333D01*
X168085714Y-74585714D01*
X168276191Y-74585714D01*
X168371429Y-74633333D01*
X168800000Y-75252381D02*
X168800000Y-74252381D01*
X169228572Y-75252381D02*
X169228572Y-74728571D01*
X169180953Y-74633333D01*
X169085715Y-74585714D01*
X168942857Y-74585714D01*
X168847619Y-74633333D01*
X168800000Y-74680952D01*
X183638095Y-77504762D02*
X183780952Y-77552381D01*
X184019048Y-77552381D01*
X184114286Y-77504762D01*
X184161905Y-77457143D01*
X184209524Y-77361905D01*
X184209524Y-77266667D01*
X184161905Y-77171429D01*
X184114286Y-77123810D01*
X184019048Y-77076190D01*
X183828571Y-77028571D01*
X183733333Y-76980952D01*
X183685714Y-76933333D01*
X183638095Y-76838095D01*
X183638095Y-76742857D01*
X183685714Y-76647619D01*
X183733333Y-76600000D01*
X183828571Y-76552381D01*
X184066667Y-76552381D01*
X184209524Y-76600000D01*
X184780952Y-76980952D02*
X184685714Y-76933333D01*
X184638095Y-76885714D01*
X184590476Y-76790476D01*
X184590476Y-76742857D01*
X184638095Y-76647619D01*
X184685714Y-76600000D01*
X184780952Y-76552381D01*
X184971429Y-76552381D01*
X185066667Y-76600000D01*
X185114286Y-76647619D01*
X185161905Y-76742857D01*
X185161905Y-76790476D01*
X185114286Y-76885714D01*
X185066667Y-76933333D01*
X184971429Y-76980952D01*
X184780952Y-76980952D01*
X184685714Y-77028571D01*
X184638095Y-77076190D01*
X184590476Y-77171429D01*
X184590476Y-77361905D01*
X184638095Y-77457143D01*
X184685714Y-77504762D01*
X184780952Y-77552381D01*
X184971429Y-77552381D01*
X185066667Y-77504762D01*
X185114286Y-77457143D01*
X185161905Y-77361905D01*
X185161905Y-77171429D01*
X185114286Y-77076190D01*
X185066667Y-77028571D01*
X184971429Y-76980952D01*
X182128571Y-74252381D02*
X182700000Y-74252381D01*
X182414285Y-75252381D02*
X182414285Y-74252381D01*
X183176190Y-75252381D02*
X183080952Y-75204762D01*
X183033333Y-75157143D01*
X182985714Y-75061905D01*
X182985714Y-74776190D01*
X183033333Y-74680952D01*
X183080952Y-74633333D01*
X183176190Y-74585714D01*
X183319048Y-74585714D01*
X183414286Y-74633333D01*
X183461905Y-74680952D01*
X183509524Y-74776190D01*
X183509524Y-75061905D01*
X183461905Y-75157143D01*
X183414286Y-75204762D01*
X183319048Y-75252381D01*
X183176190Y-75252381D01*
X184366667Y-74585714D02*
X184366667Y-75252381D01*
X183938095Y-74585714D02*
X183938095Y-75109524D01*
X183985714Y-75204762D01*
X184080952Y-75252381D01*
X184223810Y-75252381D01*
X184319048Y-75204762D01*
X184366667Y-75157143D01*
X185271429Y-75204762D02*
X185176191Y-75252381D01*
X184985714Y-75252381D01*
X184890476Y-75204762D01*
X184842857Y-75157143D01*
X184795238Y-75061905D01*
X184795238Y-74776190D01*
X184842857Y-74680952D01*
X184890476Y-74633333D01*
X184985714Y-74585714D01*
X185176191Y-74585714D01*
X185271429Y-74633333D01*
X185700000Y-75252381D02*
X185700000Y-74252381D01*
X186128572Y-75252381D02*
X186128572Y-74728571D01*
X186080953Y-74633333D01*
X185985715Y-74585714D01*
X185842857Y-74585714D01*
X185747619Y-74633333D01*
X185700000Y-74680952D01*
X166738095Y-92104762D02*
X166880952Y-92152381D01*
X167119048Y-92152381D01*
X167214286Y-92104762D01*
X167261905Y-92057143D01*
X167309524Y-91961905D01*
X167309524Y-91866667D01*
X167261905Y-91771429D01*
X167214286Y-91723810D01*
X167119048Y-91676190D01*
X166928571Y-91628571D01*
X166833333Y-91580952D01*
X166785714Y-91533333D01*
X166738095Y-91438095D01*
X166738095Y-91342857D01*
X166785714Y-91247619D01*
X166833333Y-91200000D01*
X166928571Y-91152381D01*
X167166667Y-91152381D01*
X167309524Y-91200000D01*
X168166667Y-91152381D02*
X167976190Y-91152381D01*
X167880952Y-91200000D01*
X167833333Y-91247619D01*
X167738095Y-91390476D01*
X167690476Y-91580952D01*
X167690476Y-91961905D01*
X167738095Y-92057143D01*
X167785714Y-92104762D01*
X167880952Y-92152381D01*
X168071429Y-92152381D01*
X168166667Y-92104762D01*
X168214286Y-92057143D01*
X168261905Y-91961905D01*
X168261905Y-91723810D01*
X168214286Y-91628571D01*
X168166667Y-91580952D01*
X168071429Y-91533333D01*
X167880952Y-91533333D01*
X167785714Y-91580952D01*
X167738095Y-91628571D01*
X167690476Y-91723810D01*
X165228571Y-88852381D02*
X165800000Y-88852381D01*
X165514285Y-89852381D02*
X165514285Y-88852381D01*
X166276190Y-89852381D02*
X166180952Y-89804762D01*
X166133333Y-89757143D01*
X166085714Y-89661905D01*
X166085714Y-89376190D01*
X166133333Y-89280952D01*
X166180952Y-89233333D01*
X166276190Y-89185714D01*
X166419048Y-89185714D01*
X166514286Y-89233333D01*
X166561905Y-89280952D01*
X166609524Y-89376190D01*
X166609524Y-89661905D01*
X166561905Y-89757143D01*
X166514286Y-89804762D01*
X166419048Y-89852381D01*
X166276190Y-89852381D01*
X167466667Y-89185714D02*
X167466667Y-89852381D01*
X167038095Y-89185714D02*
X167038095Y-89709524D01*
X167085714Y-89804762D01*
X167180952Y-89852381D01*
X167323810Y-89852381D01*
X167419048Y-89804762D01*
X167466667Y-89757143D01*
X168371429Y-89804762D02*
X168276191Y-89852381D01*
X168085714Y-89852381D01*
X167990476Y-89804762D01*
X167942857Y-89757143D01*
X167895238Y-89661905D01*
X167895238Y-89376190D01*
X167942857Y-89280952D01*
X167990476Y-89233333D01*
X168085714Y-89185714D01*
X168276191Y-89185714D01*
X168371429Y-89233333D01*
X168800000Y-89852381D02*
X168800000Y-88852381D01*
X169228572Y-89852381D02*
X169228572Y-89328571D01*
X169180953Y-89233333D01*
X169085715Y-89185714D01*
X168942857Y-89185714D01*
X168847619Y-89233333D01*
X168800000Y-89280952D01*
X175361905Y-99452381D02*
X175361905Y-98452381D01*
X175600000Y-98452381D01*
X175742858Y-98500000D01*
X175838096Y-98595238D01*
X175885715Y-98690476D01*
X175933334Y-98880952D01*
X175933334Y-99023810D01*
X175885715Y-99214286D01*
X175838096Y-99309524D01*
X175742858Y-99404762D01*
X175600000Y-99452381D01*
X175361905Y-99452381D01*
X176885715Y-99452381D02*
X176314286Y-99452381D01*
X176600000Y-99452381D02*
X176600000Y-98452381D01*
X176504762Y-98595238D01*
X176409524Y-98690476D01*
X176314286Y-98738095D01*
X176033334Y-93852381D02*
X175700000Y-93376190D01*
X175461905Y-93852381D02*
X175461905Y-92852381D01*
X175842858Y-92852381D01*
X175938096Y-92900000D01*
X175985715Y-92947619D01*
X176033334Y-93042857D01*
X176033334Y-93185714D01*
X175985715Y-93280952D01*
X175938096Y-93328571D01*
X175842858Y-93376190D01*
X175461905Y-93376190D01*
X176985715Y-93852381D02*
X176414286Y-93852381D01*
X176700000Y-93852381D02*
X176700000Y-92852381D01*
X176604762Y-92995238D01*
X176509524Y-93090476D01*
X176414286Y-93138095D01*
X183638095Y-92104762D02*
X183780952Y-92152381D01*
X184019048Y-92152381D01*
X184114286Y-92104762D01*
X184161905Y-92057143D01*
X184209524Y-91961905D01*
X184209524Y-91866667D01*
X184161905Y-91771429D01*
X184114286Y-91723810D01*
X184019048Y-91676190D01*
X183828571Y-91628571D01*
X183733333Y-91580952D01*
X183685714Y-91533333D01*
X183638095Y-91438095D01*
X183638095Y-91342857D01*
X183685714Y-91247619D01*
X183733333Y-91200000D01*
X183828571Y-91152381D01*
X184066667Y-91152381D01*
X184209524Y-91200000D01*
X184685714Y-92152381D02*
X184876190Y-92152381D01*
X184971429Y-92104762D01*
X185019048Y-92057143D01*
X185114286Y-91914286D01*
X185161905Y-91723810D01*
X185161905Y-91342857D01*
X185114286Y-91247619D01*
X185066667Y-91200000D01*
X184971429Y-91152381D01*
X184780952Y-91152381D01*
X184685714Y-91200000D01*
X184638095Y-91247619D01*
X184590476Y-91342857D01*
X184590476Y-91580952D01*
X184638095Y-91676190D01*
X184685714Y-91723810D01*
X184780952Y-91771429D01*
X184971429Y-91771429D01*
X185066667Y-91723810D01*
X185114286Y-91676190D01*
X185161905Y-91580952D01*
X182128571Y-88852381D02*
X182700000Y-88852381D01*
X182414285Y-89852381D02*
X182414285Y-88852381D01*
X183176190Y-89852381D02*
X183080952Y-89804762D01*
X183033333Y-89757143D01*
X182985714Y-89661905D01*
X182985714Y-89376190D01*
X183033333Y-89280952D01*
X183080952Y-89233333D01*
X183176190Y-89185714D01*
X183319048Y-89185714D01*
X183414286Y-89233333D01*
X183461905Y-89280952D01*
X183509524Y-89376190D01*
X183509524Y-89661905D01*
X183461905Y-89757143D01*
X183414286Y-89804762D01*
X183319048Y-89852381D01*
X183176190Y-89852381D01*
X184366667Y-89185714D02*
X184366667Y-89852381D01*
X183938095Y-89185714D02*
X183938095Y-89709524D01*
X183985714Y-89804762D01*
X184080952Y-89852381D01*
X184223810Y-89852381D01*
X184319048Y-89804762D01*
X184366667Y-89757143D01*
X185271429Y-89804762D02*
X185176191Y-89852381D01*
X184985714Y-89852381D01*
X184890476Y-89804762D01*
X184842857Y-89757143D01*
X184795238Y-89661905D01*
X184795238Y-89376190D01*
X184842857Y-89280952D01*
X184890476Y-89233333D01*
X184985714Y-89185714D01*
X185176191Y-89185714D01*
X185271429Y-89233333D01*
X185700000Y-89852381D02*
X185700000Y-88852381D01*
X186128572Y-89852381D02*
X186128572Y-89328571D01*
X186080953Y-89233333D01*
X185985715Y-89185714D01*
X185842857Y-89185714D01*
X185747619Y-89233333D01*
X185700000Y-89280952D01*
X175833334Y-60457143D02*
X175785715Y-60504762D01*
X175642858Y-60552381D01*
X175547620Y-60552381D01*
X175404762Y-60504762D01*
X175309524Y-60409524D01*
X175261905Y-60314286D01*
X175214286Y-60123810D01*
X175214286Y-59980952D01*
X175261905Y-59790476D01*
X175309524Y-59695238D01*
X175404762Y-59600000D01*
X175547620Y-59552381D01*
X175642858Y-59552381D01*
X175785715Y-59600000D01*
X175833334Y-59647619D01*
X176166667Y-59552381D02*
X176785715Y-59552381D01*
X176452381Y-59933333D01*
X176595239Y-59933333D01*
X176690477Y-59980952D01*
X176738096Y-60028571D01*
X176785715Y-60123810D01*
X176785715Y-60361905D01*
X176738096Y-60457143D01*
X176690477Y-60504762D01*
X176595239Y-60552381D01*
X176309524Y-60552381D01*
X176214286Y-60504762D01*
X176166667Y-60457143D01*
X166738095Y-62904762D02*
X166880952Y-62952381D01*
X167119048Y-62952381D01*
X167214286Y-62904762D01*
X167261905Y-62857143D01*
X167309524Y-62761905D01*
X167309524Y-62666667D01*
X167261905Y-62571429D01*
X167214286Y-62523810D01*
X167119048Y-62476190D01*
X166928571Y-62428571D01*
X166833333Y-62380952D01*
X166785714Y-62333333D01*
X166738095Y-62238095D01*
X166738095Y-62142857D01*
X166785714Y-62047619D01*
X166833333Y-62000000D01*
X166928571Y-61952381D01*
X167166667Y-61952381D01*
X167309524Y-62000000D01*
X168166667Y-62285714D02*
X168166667Y-62952381D01*
X167928571Y-61904762D02*
X167690476Y-62619048D01*
X168309524Y-62619048D01*
X165228571Y-59652381D02*
X165800000Y-59652381D01*
X165514285Y-60652381D02*
X165514285Y-59652381D01*
X166276190Y-60652381D02*
X166180952Y-60604762D01*
X166133333Y-60557143D01*
X166085714Y-60461905D01*
X166085714Y-60176190D01*
X166133333Y-60080952D01*
X166180952Y-60033333D01*
X166276190Y-59985714D01*
X166419048Y-59985714D01*
X166514286Y-60033333D01*
X166561905Y-60080952D01*
X166609524Y-60176190D01*
X166609524Y-60461905D01*
X166561905Y-60557143D01*
X166514286Y-60604762D01*
X166419048Y-60652381D01*
X166276190Y-60652381D01*
X167466667Y-59985714D02*
X167466667Y-60652381D01*
X167038095Y-59985714D02*
X167038095Y-60509524D01*
X167085714Y-60604762D01*
X167180952Y-60652381D01*
X167323810Y-60652381D01*
X167419048Y-60604762D01*
X167466667Y-60557143D01*
X168371429Y-60604762D02*
X168276191Y-60652381D01*
X168085714Y-60652381D01*
X167990476Y-60604762D01*
X167942857Y-60557143D01*
X167895238Y-60461905D01*
X167895238Y-60176190D01*
X167942857Y-60080952D01*
X167990476Y-60033333D01*
X168085714Y-59985714D01*
X168276191Y-59985714D01*
X168371429Y-60033333D01*
X168800000Y-60652381D02*
X168800000Y-59652381D01*
X169228572Y-60652381D02*
X169228572Y-60128571D01*
X169180953Y-60033333D01*
X169085715Y-59985714D01*
X168942857Y-59985714D01*
X168847619Y-60033333D01*
X168800000Y-60080952D01*
X175833334Y-61757143D02*
X175785715Y-61804762D01*
X175642858Y-61852381D01*
X175547620Y-61852381D01*
X175404762Y-61804762D01*
X175309524Y-61709524D01*
X175261905Y-61614286D01*
X175214286Y-61423810D01*
X175214286Y-61280952D01*
X175261905Y-61090476D01*
X175309524Y-60995238D01*
X175404762Y-60900000D01*
X175547620Y-60852381D01*
X175642858Y-60852381D01*
X175785715Y-60900000D01*
X175833334Y-60947619D01*
X176690477Y-61185714D02*
X176690477Y-61852381D01*
X176452381Y-60804762D02*
X176214286Y-61519048D01*
X176833334Y-61519048D01*
X183638095Y-62904762D02*
X183780952Y-62952381D01*
X184019048Y-62952381D01*
X184114286Y-62904762D01*
X184161905Y-62857143D01*
X184209524Y-62761905D01*
X184209524Y-62666667D01*
X184161905Y-62571429D01*
X184114286Y-62523810D01*
X184019048Y-62476190D01*
X183828571Y-62428571D01*
X183733333Y-62380952D01*
X183685714Y-62333333D01*
X183638095Y-62238095D01*
X183638095Y-62142857D01*
X183685714Y-62047619D01*
X183733333Y-62000000D01*
X183828571Y-61952381D01*
X184066667Y-61952381D01*
X184209524Y-62000000D01*
X184542857Y-61952381D02*
X185209524Y-61952381D01*
X184780952Y-62952381D01*
X182128571Y-59652381D02*
X182700000Y-59652381D01*
X182414285Y-60652381D02*
X182414285Y-59652381D01*
X183176190Y-60652381D02*
X183080952Y-60604762D01*
X183033333Y-60557143D01*
X182985714Y-60461905D01*
X182985714Y-60176190D01*
X183033333Y-60080952D01*
X183080952Y-60033333D01*
X183176190Y-59985714D01*
X183319048Y-59985714D01*
X183414286Y-60033333D01*
X183461905Y-60080952D01*
X183509524Y-60176190D01*
X183509524Y-60461905D01*
X183461905Y-60557143D01*
X183414286Y-60604762D01*
X183319048Y-60652381D01*
X183176190Y-60652381D01*
X184366667Y-59985714D02*
X184366667Y-60652381D01*
X183938095Y-59985714D02*
X183938095Y-60509524D01*
X183985714Y-60604762D01*
X184080952Y-60652381D01*
X184223810Y-60652381D01*
X184319048Y-60604762D01*
X184366667Y-60557143D01*
X185271429Y-60604762D02*
X185176191Y-60652381D01*
X184985714Y-60652381D01*
X184890476Y-60604762D01*
X184842857Y-60557143D01*
X184795238Y-60461905D01*
X184795238Y-60176190D01*
X184842857Y-60080952D01*
X184890476Y-60033333D01*
X184985714Y-59985714D01*
X185176191Y-59985714D01*
X185271429Y-60033333D01*
X185700000Y-60652381D02*
X185700000Y-59652381D01*
X186128572Y-60652381D02*
X186128572Y-60128571D01*
X186080953Y-60033333D01*
X185985715Y-59985714D01*
X185842857Y-59985714D01*
X185747619Y-60033333D01*
X185700000Y-60080952D01*
X130361905Y-99452381D02*
X130361905Y-98452381D01*
X130600000Y-98452381D01*
X130742858Y-98500000D01*
X130838096Y-98595238D01*
X130885715Y-98690476D01*
X130933334Y-98880952D01*
X130933334Y-99023810D01*
X130885715Y-99214286D01*
X130838096Y-99309524D01*
X130742858Y-99404762D01*
X130600000Y-99452381D01*
X130361905Y-99452381D01*
X131885715Y-99452381D02*
X131314286Y-99452381D01*
X131600000Y-99452381D02*
X131600000Y-98452381D01*
X131504762Y-98595238D01*
X131409524Y-98690476D01*
X131314286Y-98738095D01*
X113261905Y-99452381D02*
X113261905Y-98452381D01*
X113500000Y-98452381D01*
X113642858Y-98500000D01*
X113738096Y-98595238D01*
X113785715Y-98690476D01*
X113833334Y-98880952D01*
X113833334Y-99023810D01*
X113785715Y-99214286D01*
X113738096Y-99309524D01*
X113642858Y-99404762D01*
X113500000Y-99452381D01*
X113261905Y-99452381D01*
X114214286Y-98547619D02*
X114261905Y-98500000D01*
X114357143Y-98452381D01*
X114595239Y-98452381D01*
X114690477Y-98500000D01*
X114738096Y-98547619D01*
X114785715Y-98642857D01*
X114785715Y-98738095D01*
X114738096Y-98880952D01*
X114166667Y-99452381D01*
X114785715Y-99452381D01*
X131033334Y-93852381D02*
X130700000Y-93376190D01*
X130461905Y-93852381D02*
X130461905Y-92852381D01*
X130842858Y-92852381D01*
X130938096Y-92900000D01*
X130985715Y-92947619D01*
X131033334Y-93042857D01*
X131033334Y-93185714D01*
X130985715Y-93280952D01*
X130938096Y-93328571D01*
X130842858Y-93376190D01*
X130461905Y-93376190D01*
X131985715Y-93852381D02*
X131414286Y-93852381D01*
X131700000Y-93852381D02*
X131700000Y-92852381D01*
X131604762Y-92995238D01*
X131509524Y-93090476D01*
X131414286Y-93138095D01*
X113833334Y-93852381D02*
X113500000Y-93376190D01*
X113261905Y-93852381D02*
X113261905Y-92852381D01*
X113642858Y-92852381D01*
X113738096Y-92900000D01*
X113785715Y-92947619D01*
X113833334Y-93042857D01*
X113833334Y-93185714D01*
X113785715Y-93280952D01*
X113738096Y-93328571D01*
X113642858Y-93376190D01*
X113261905Y-93376190D01*
X114214286Y-92947619D02*
X114261905Y-92900000D01*
X114357143Y-92852381D01*
X114595239Y-92852381D01*
X114690477Y-92900000D01*
X114738096Y-92947619D01*
X114785715Y-93042857D01*
X114785715Y-93138095D01*
X114738096Y-93280952D01*
X114166667Y-93852381D01*
X114785715Y-93852381D01*
X113933334Y-60557143D02*
X113885715Y-60604762D01*
X113742858Y-60652381D01*
X113647620Y-60652381D01*
X113504762Y-60604762D01*
X113409524Y-60509524D01*
X113361905Y-60414286D01*
X113314286Y-60223810D01*
X113314286Y-60080952D01*
X113361905Y-59890476D01*
X113409524Y-59795238D01*
X113504762Y-59700000D01*
X113647620Y-59652381D01*
X113742858Y-59652381D01*
X113885715Y-59700000D01*
X113933334Y-59747619D01*
X114885715Y-60652381D02*
X114314286Y-60652381D01*
X114600000Y-60652381D02*
X114600000Y-59652381D01*
X114504762Y-59795238D01*
X114409524Y-59890476D01*
X114314286Y-59938095D01*
X113933334Y-61857143D02*
X113885715Y-61904762D01*
X113742858Y-61952381D01*
X113647620Y-61952381D01*
X113504762Y-61904762D01*
X113409524Y-61809524D01*
X113361905Y-61714286D01*
X113314286Y-61523810D01*
X113314286Y-61380952D01*
X113361905Y-61190476D01*
X113409524Y-61095238D01*
X113504762Y-61000000D01*
X113647620Y-60952381D01*
X113742858Y-60952381D01*
X113885715Y-61000000D01*
X113933334Y-61047619D01*
X114314286Y-61047619D02*
X114361905Y-61000000D01*
X114457143Y-60952381D01*
X114695239Y-60952381D01*
X114790477Y-61000000D01*
X114838096Y-61047619D01*
X114885715Y-61142857D01*
X114885715Y-61238095D01*
X114838096Y-61380952D01*
X114266667Y-61952381D01*
X114885715Y-61952381D01*
X130833334Y-60457143D02*
X130785715Y-60504762D01*
X130642858Y-60552381D01*
X130547620Y-60552381D01*
X130404762Y-60504762D01*
X130309524Y-60409524D01*
X130261905Y-60314286D01*
X130214286Y-60123810D01*
X130214286Y-59980952D01*
X130261905Y-59790476D01*
X130309524Y-59695238D01*
X130404762Y-59600000D01*
X130547620Y-59552381D01*
X130642858Y-59552381D01*
X130785715Y-59600000D01*
X130833334Y-59647619D01*
X131166667Y-59552381D02*
X131785715Y-59552381D01*
X131452381Y-59933333D01*
X131595239Y-59933333D01*
X131690477Y-59980952D01*
X131738096Y-60028571D01*
X131785715Y-60123810D01*
X131785715Y-60361905D01*
X131738096Y-60457143D01*
X131690477Y-60504762D01*
X131595239Y-60552381D01*
X131309524Y-60552381D01*
X131214286Y-60504762D01*
X131166667Y-60457143D01*
X130833334Y-61757143D02*
X130785715Y-61804762D01*
X130642858Y-61852381D01*
X130547620Y-61852381D01*
X130404762Y-61804762D01*
X130309524Y-61709524D01*
X130261905Y-61614286D01*
X130214286Y-61423810D01*
X130214286Y-61280952D01*
X130261905Y-61090476D01*
X130309524Y-60995238D01*
X130404762Y-60900000D01*
X130547620Y-60852381D01*
X130642858Y-60852381D01*
X130785715Y-60900000D01*
X130833334Y-60947619D01*
X131690477Y-61185714D02*
X131690477Y-61852381D01*
X131452381Y-60804762D02*
X131214286Y-61519048D01*
X131833334Y-61519048D01*
X138638095Y-92104762D02*
X138780952Y-92152381D01*
X139019048Y-92152381D01*
X139114286Y-92104762D01*
X139161905Y-92057143D01*
X139209524Y-91961905D01*
X139209524Y-91866667D01*
X139161905Y-91771429D01*
X139114286Y-91723810D01*
X139019048Y-91676190D01*
X138828571Y-91628571D01*
X138733333Y-91580952D01*
X138685714Y-91533333D01*
X138638095Y-91438095D01*
X138638095Y-91342857D01*
X138685714Y-91247619D01*
X138733333Y-91200000D01*
X138828571Y-91152381D01*
X139066667Y-91152381D01*
X139209524Y-91200000D01*
X139685714Y-92152381D02*
X139876190Y-92152381D01*
X139971429Y-92104762D01*
X140019048Y-92057143D01*
X140114286Y-91914286D01*
X140161905Y-91723810D01*
X140161905Y-91342857D01*
X140114286Y-91247619D01*
X140066667Y-91200000D01*
X139971429Y-91152381D01*
X139780952Y-91152381D01*
X139685714Y-91200000D01*
X139638095Y-91247619D01*
X139590476Y-91342857D01*
X139590476Y-91580952D01*
X139638095Y-91676190D01*
X139685714Y-91723810D01*
X139780952Y-91771429D01*
X139971429Y-91771429D01*
X140066667Y-91723810D01*
X140114286Y-91676190D01*
X140161905Y-91580952D01*
X137128571Y-88852381D02*
X137700000Y-88852381D01*
X137414285Y-89852381D02*
X137414285Y-88852381D01*
X138176190Y-89852381D02*
X138080952Y-89804762D01*
X138033333Y-89757143D01*
X137985714Y-89661905D01*
X137985714Y-89376190D01*
X138033333Y-89280952D01*
X138080952Y-89233333D01*
X138176190Y-89185714D01*
X138319048Y-89185714D01*
X138414286Y-89233333D01*
X138461905Y-89280952D01*
X138509524Y-89376190D01*
X138509524Y-89661905D01*
X138461905Y-89757143D01*
X138414286Y-89804762D01*
X138319048Y-89852381D01*
X138176190Y-89852381D01*
X139366667Y-89185714D02*
X139366667Y-89852381D01*
X138938095Y-89185714D02*
X138938095Y-89709524D01*
X138985714Y-89804762D01*
X139080952Y-89852381D01*
X139223810Y-89852381D01*
X139319048Y-89804762D01*
X139366667Y-89757143D01*
X140271429Y-89804762D02*
X140176191Y-89852381D01*
X139985714Y-89852381D01*
X139890476Y-89804762D01*
X139842857Y-89757143D01*
X139795238Y-89661905D01*
X139795238Y-89376190D01*
X139842857Y-89280952D01*
X139890476Y-89233333D01*
X139985714Y-89185714D01*
X140176191Y-89185714D01*
X140271429Y-89233333D01*
X140700000Y-89852381D02*
X140700000Y-88852381D01*
X141128572Y-89852381D02*
X141128572Y-89328571D01*
X141080953Y-89233333D01*
X140985715Y-89185714D01*
X140842857Y-89185714D01*
X140747619Y-89233333D01*
X140700000Y-89280952D01*
X138638095Y-77504762D02*
X138780952Y-77552381D01*
X139019048Y-77552381D01*
X139114286Y-77504762D01*
X139161905Y-77457143D01*
X139209524Y-77361905D01*
X139209524Y-77266667D01*
X139161905Y-77171429D01*
X139114286Y-77123810D01*
X139019048Y-77076190D01*
X138828571Y-77028571D01*
X138733333Y-76980952D01*
X138685714Y-76933333D01*
X138638095Y-76838095D01*
X138638095Y-76742857D01*
X138685714Y-76647619D01*
X138733333Y-76600000D01*
X138828571Y-76552381D01*
X139066667Y-76552381D01*
X139209524Y-76600000D01*
X139780952Y-76980952D02*
X139685714Y-76933333D01*
X139638095Y-76885714D01*
X139590476Y-76790476D01*
X139590476Y-76742857D01*
X139638095Y-76647619D01*
X139685714Y-76600000D01*
X139780952Y-76552381D01*
X139971429Y-76552381D01*
X140066667Y-76600000D01*
X140114286Y-76647619D01*
X140161905Y-76742857D01*
X140161905Y-76790476D01*
X140114286Y-76885714D01*
X140066667Y-76933333D01*
X139971429Y-76980952D01*
X139780952Y-76980952D01*
X139685714Y-77028571D01*
X139638095Y-77076190D01*
X139590476Y-77171429D01*
X139590476Y-77361905D01*
X139638095Y-77457143D01*
X139685714Y-77504762D01*
X139780952Y-77552381D01*
X139971429Y-77552381D01*
X140066667Y-77504762D01*
X140114286Y-77457143D01*
X140161905Y-77361905D01*
X140161905Y-77171429D01*
X140114286Y-77076190D01*
X140066667Y-77028571D01*
X139971429Y-76980952D01*
X137128571Y-74252381D02*
X137700000Y-74252381D01*
X137414285Y-75252381D02*
X137414285Y-74252381D01*
X138176190Y-75252381D02*
X138080952Y-75204762D01*
X138033333Y-75157143D01*
X137985714Y-75061905D01*
X137985714Y-74776190D01*
X138033333Y-74680952D01*
X138080952Y-74633333D01*
X138176190Y-74585714D01*
X138319048Y-74585714D01*
X138414286Y-74633333D01*
X138461905Y-74680952D01*
X138509524Y-74776190D01*
X138509524Y-75061905D01*
X138461905Y-75157143D01*
X138414286Y-75204762D01*
X138319048Y-75252381D01*
X138176190Y-75252381D01*
X139366667Y-74585714D02*
X139366667Y-75252381D01*
X138938095Y-74585714D02*
X138938095Y-75109524D01*
X138985714Y-75204762D01*
X139080952Y-75252381D01*
X139223810Y-75252381D01*
X139319048Y-75204762D01*
X139366667Y-75157143D01*
X140271429Y-75204762D02*
X140176191Y-75252381D01*
X139985714Y-75252381D01*
X139890476Y-75204762D01*
X139842857Y-75157143D01*
X139795238Y-75061905D01*
X139795238Y-74776190D01*
X139842857Y-74680952D01*
X139890476Y-74633333D01*
X139985714Y-74585714D01*
X140176191Y-74585714D01*
X140271429Y-74633333D01*
X140700000Y-75252381D02*
X140700000Y-74252381D01*
X141128572Y-75252381D02*
X141128572Y-74728571D01*
X141080953Y-74633333D01*
X140985715Y-74585714D01*
X140842857Y-74585714D01*
X140747619Y-74633333D01*
X140700000Y-74680952D01*
X138638095Y-62904762D02*
X138780952Y-62952381D01*
X139019048Y-62952381D01*
X139114286Y-62904762D01*
X139161905Y-62857143D01*
X139209524Y-62761905D01*
X139209524Y-62666667D01*
X139161905Y-62571429D01*
X139114286Y-62523810D01*
X139019048Y-62476190D01*
X138828571Y-62428571D01*
X138733333Y-62380952D01*
X138685714Y-62333333D01*
X138638095Y-62238095D01*
X138638095Y-62142857D01*
X138685714Y-62047619D01*
X138733333Y-62000000D01*
X138828571Y-61952381D01*
X139066667Y-61952381D01*
X139209524Y-62000000D01*
X139542857Y-61952381D02*
X140209524Y-61952381D01*
X139780952Y-62952381D01*
X137128571Y-59652381D02*
X137700000Y-59652381D01*
X137414285Y-60652381D02*
X137414285Y-59652381D01*
X138176190Y-60652381D02*
X138080952Y-60604762D01*
X138033333Y-60557143D01*
X137985714Y-60461905D01*
X137985714Y-60176190D01*
X138033333Y-60080952D01*
X138080952Y-60033333D01*
X138176190Y-59985714D01*
X138319048Y-59985714D01*
X138414286Y-60033333D01*
X138461905Y-60080952D01*
X138509524Y-60176190D01*
X138509524Y-60461905D01*
X138461905Y-60557143D01*
X138414286Y-60604762D01*
X138319048Y-60652381D01*
X138176190Y-60652381D01*
X139366667Y-59985714D02*
X139366667Y-60652381D01*
X138938095Y-59985714D02*
X138938095Y-60509524D01*
X138985714Y-60604762D01*
X139080952Y-60652381D01*
X139223810Y-60652381D01*
X139319048Y-60604762D01*
X139366667Y-60557143D01*
X140271429Y-60604762D02*
X140176191Y-60652381D01*
X139985714Y-60652381D01*
X139890476Y-60604762D01*
X139842857Y-60557143D01*
X139795238Y-60461905D01*
X139795238Y-60176190D01*
X139842857Y-60080952D01*
X139890476Y-60033333D01*
X139985714Y-59985714D01*
X140176191Y-59985714D01*
X140271429Y-60033333D01*
X140700000Y-60652381D02*
X140700000Y-59652381D01*
X141128572Y-60652381D02*
X141128572Y-60128571D01*
X141080953Y-60033333D01*
X140985715Y-59985714D01*
X140842857Y-59985714D01*
X140747619Y-60033333D01*
X140700000Y-60080952D01*
X121738095Y-92104762D02*
X121880952Y-92152381D01*
X122119048Y-92152381D01*
X122214286Y-92104762D01*
X122261905Y-92057143D01*
X122309524Y-91961905D01*
X122309524Y-91866667D01*
X122261905Y-91771429D01*
X122214286Y-91723810D01*
X122119048Y-91676190D01*
X121928571Y-91628571D01*
X121833333Y-91580952D01*
X121785714Y-91533333D01*
X121738095Y-91438095D01*
X121738095Y-91342857D01*
X121785714Y-91247619D01*
X121833333Y-91200000D01*
X121928571Y-91152381D01*
X122166667Y-91152381D01*
X122309524Y-91200000D01*
X123166667Y-91152381D02*
X122976190Y-91152381D01*
X122880952Y-91200000D01*
X122833333Y-91247619D01*
X122738095Y-91390476D01*
X122690476Y-91580952D01*
X122690476Y-91961905D01*
X122738095Y-92057143D01*
X122785714Y-92104762D01*
X122880952Y-92152381D01*
X123071429Y-92152381D01*
X123166667Y-92104762D01*
X123214286Y-92057143D01*
X123261905Y-91961905D01*
X123261905Y-91723810D01*
X123214286Y-91628571D01*
X123166667Y-91580952D01*
X123071429Y-91533333D01*
X122880952Y-91533333D01*
X122785714Y-91580952D01*
X122738095Y-91628571D01*
X122690476Y-91723810D01*
X120228571Y-88852381D02*
X120800000Y-88852381D01*
X120514285Y-89852381D02*
X120514285Y-88852381D01*
X121276190Y-89852381D02*
X121180952Y-89804762D01*
X121133333Y-89757143D01*
X121085714Y-89661905D01*
X121085714Y-89376190D01*
X121133333Y-89280952D01*
X121180952Y-89233333D01*
X121276190Y-89185714D01*
X121419048Y-89185714D01*
X121514286Y-89233333D01*
X121561905Y-89280952D01*
X121609524Y-89376190D01*
X121609524Y-89661905D01*
X121561905Y-89757143D01*
X121514286Y-89804762D01*
X121419048Y-89852381D01*
X121276190Y-89852381D01*
X122466667Y-89185714D02*
X122466667Y-89852381D01*
X122038095Y-89185714D02*
X122038095Y-89709524D01*
X122085714Y-89804762D01*
X122180952Y-89852381D01*
X122323810Y-89852381D01*
X122419048Y-89804762D01*
X122466667Y-89757143D01*
X123371429Y-89804762D02*
X123276191Y-89852381D01*
X123085714Y-89852381D01*
X122990476Y-89804762D01*
X122942857Y-89757143D01*
X122895238Y-89661905D01*
X122895238Y-89376190D01*
X122942857Y-89280952D01*
X122990476Y-89233333D01*
X123085714Y-89185714D01*
X123276191Y-89185714D01*
X123371429Y-89233333D01*
X123800000Y-89852381D02*
X123800000Y-88852381D01*
X124228572Y-89852381D02*
X124228572Y-89328571D01*
X124180953Y-89233333D01*
X124085715Y-89185714D01*
X123942857Y-89185714D01*
X123847619Y-89233333D01*
X123800000Y-89280952D01*
X121738095Y-77504762D02*
X121880952Y-77552381D01*
X122119048Y-77552381D01*
X122214286Y-77504762D01*
X122261905Y-77457143D01*
X122309524Y-77361905D01*
X122309524Y-77266667D01*
X122261905Y-77171429D01*
X122214286Y-77123810D01*
X122119048Y-77076190D01*
X121928571Y-77028571D01*
X121833333Y-76980952D01*
X121785714Y-76933333D01*
X121738095Y-76838095D01*
X121738095Y-76742857D01*
X121785714Y-76647619D01*
X121833333Y-76600000D01*
X121928571Y-76552381D01*
X122166667Y-76552381D01*
X122309524Y-76600000D01*
X123214286Y-76552381D02*
X122738095Y-76552381D01*
X122690476Y-77028571D01*
X122738095Y-76980952D01*
X122833333Y-76933333D01*
X123071429Y-76933333D01*
X123166667Y-76980952D01*
X123214286Y-77028571D01*
X123261905Y-77123810D01*
X123261905Y-77361905D01*
X123214286Y-77457143D01*
X123166667Y-77504762D01*
X123071429Y-77552381D01*
X122833333Y-77552381D01*
X122738095Y-77504762D01*
X122690476Y-77457143D01*
X120228571Y-74252381D02*
X120800000Y-74252381D01*
X120514285Y-75252381D02*
X120514285Y-74252381D01*
X121276190Y-75252381D02*
X121180952Y-75204762D01*
X121133333Y-75157143D01*
X121085714Y-75061905D01*
X121085714Y-74776190D01*
X121133333Y-74680952D01*
X121180952Y-74633333D01*
X121276190Y-74585714D01*
X121419048Y-74585714D01*
X121514286Y-74633333D01*
X121561905Y-74680952D01*
X121609524Y-74776190D01*
X121609524Y-75061905D01*
X121561905Y-75157143D01*
X121514286Y-75204762D01*
X121419048Y-75252381D01*
X121276190Y-75252381D01*
X122466667Y-74585714D02*
X122466667Y-75252381D01*
X122038095Y-74585714D02*
X122038095Y-75109524D01*
X122085714Y-75204762D01*
X122180952Y-75252381D01*
X122323810Y-75252381D01*
X122419048Y-75204762D01*
X122466667Y-75157143D01*
X123371429Y-75204762D02*
X123276191Y-75252381D01*
X123085714Y-75252381D01*
X122990476Y-75204762D01*
X122942857Y-75157143D01*
X122895238Y-75061905D01*
X122895238Y-74776190D01*
X122942857Y-74680952D01*
X122990476Y-74633333D01*
X123085714Y-74585714D01*
X123276191Y-74585714D01*
X123371429Y-74633333D01*
X123800000Y-75252381D02*
X123800000Y-74252381D01*
X124228572Y-75252381D02*
X124228572Y-74728571D01*
X124180953Y-74633333D01*
X124085715Y-74585714D01*
X123942857Y-74585714D01*
X123847619Y-74633333D01*
X123800000Y-74680952D01*
X121738095Y-62904762D02*
X121880952Y-62952381D01*
X122119048Y-62952381D01*
X122214286Y-62904762D01*
X122261905Y-62857143D01*
X122309524Y-62761905D01*
X122309524Y-62666667D01*
X122261905Y-62571429D01*
X122214286Y-62523810D01*
X122119048Y-62476190D01*
X121928571Y-62428571D01*
X121833333Y-62380952D01*
X121785714Y-62333333D01*
X121738095Y-62238095D01*
X121738095Y-62142857D01*
X121785714Y-62047619D01*
X121833333Y-62000000D01*
X121928571Y-61952381D01*
X122166667Y-61952381D01*
X122309524Y-62000000D01*
X123166667Y-62285714D02*
X123166667Y-62952381D01*
X122928571Y-61904762D02*
X122690476Y-62619048D01*
X123309524Y-62619048D01*
X120228571Y-59652381D02*
X120800000Y-59652381D01*
X120514285Y-60652381D02*
X120514285Y-59652381D01*
X121276190Y-60652381D02*
X121180952Y-60604762D01*
X121133333Y-60557143D01*
X121085714Y-60461905D01*
X121085714Y-60176190D01*
X121133333Y-60080952D01*
X121180952Y-60033333D01*
X121276190Y-59985714D01*
X121419048Y-59985714D01*
X121514286Y-60033333D01*
X121561905Y-60080952D01*
X121609524Y-60176190D01*
X121609524Y-60461905D01*
X121561905Y-60557143D01*
X121514286Y-60604762D01*
X121419048Y-60652381D01*
X121276190Y-60652381D01*
X122466667Y-59985714D02*
X122466667Y-60652381D01*
X122038095Y-59985714D02*
X122038095Y-60509524D01*
X122085714Y-60604762D01*
X122180952Y-60652381D01*
X122323810Y-60652381D01*
X122419048Y-60604762D01*
X122466667Y-60557143D01*
X123371429Y-60604762D02*
X123276191Y-60652381D01*
X123085714Y-60652381D01*
X122990476Y-60604762D01*
X122942857Y-60557143D01*
X122895238Y-60461905D01*
X122895238Y-60176190D01*
X122942857Y-60080952D01*
X122990476Y-60033333D01*
X123085714Y-59985714D01*
X123276191Y-59985714D01*
X123371429Y-60033333D01*
X123800000Y-60652381D02*
X123800000Y-59652381D01*
X124228572Y-60652381D02*
X124228572Y-60128571D01*
X124180953Y-60033333D01*
X124085715Y-59985714D01*
X123942857Y-59985714D01*
X123847619Y-60033333D01*
X123800000Y-60080952D01*
X104838095Y-92104762D02*
X104980952Y-92152381D01*
X105219048Y-92152381D01*
X105314286Y-92104762D01*
X105361905Y-92057143D01*
X105409524Y-91961905D01*
X105409524Y-91866667D01*
X105361905Y-91771429D01*
X105314286Y-91723810D01*
X105219048Y-91676190D01*
X105028571Y-91628571D01*
X104933333Y-91580952D01*
X104885714Y-91533333D01*
X104838095Y-91438095D01*
X104838095Y-91342857D01*
X104885714Y-91247619D01*
X104933333Y-91200000D01*
X105028571Y-91152381D01*
X105266667Y-91152381D01*
X105409524Y-91200000D01*
X105742857Y-91152381D02*
X106361905Y-91152381D01*
X106028571Y-91533333D01*
X106171429Y-91533333D01*
X106266667Y-91580952D01*
X106314286Y-91628571D01*
X106361905Y-91723810D01*
X106361905Y-91961905D01*
X106314286Y-92057143D01*
X106266667Y-92104762D01*
X106171429Y-92152381D01*
X105885714Y-92152381D01*
X105790476Y-92104762D01*
X105742857Y-92057143D01*
X103328571Y-88852381D02*
X103900000Y-88852381D01*
X103614285Y-89852381D02*
X103614285Y-88852381D01*
X104376190Y-89852381D02*
X104280952Y-89804762D01*
X104233333Y-89757143D01*
X104185714Y-89661905D01*
X104185714Y-89376190D01*
X104233333Y-89280952D01*
X104280952Y-89233333D01*
X104376190Y-89185714D01*
X104519048Y-89185714D01*
X104614286Y-89233333D01*
X104661905Y-89280952D01*
X104709524Y-89376190D01*
X104709524Y-89661905D01*
X104661905Y-89757143D01*
X104614286Y-89804762D01*
X104519048Y-89852381D01*
X104376190Y-89852381D01*
X105566667Y-89185714D02*
X105566667Y-89852381D01*
X105138095Y-89185714D02*
X105138095Y-89709524D01*
X105185714Y-89804762D01*
X105280952Y-89852381D01*
X105423810Y-89852381D01*
X105519048Y-89804762D01*
X105566667Y-89757143D01*
X106471429Y-89804762D02*
X106376191Y-89852381D01*
X106185714Y-89852381D01*
X106090476Y-89804762D01*
X106042857Y-89757143D01*
X105995238Y-89661905D01*
X105995238Y-89376190D01*
X106042857Y-89280952D01*
X106090476Y-89233333D01*
X106185714Y-89185714D01*
X106376191Y-89185714D01*
X106471429Y-89233333D01*
X106900000Y-89852381D02*
X106900000Y-88852381D01*
X107328572Y-89852381D02*
X107328572Y-89328571D01*
X107280953Y-89233333D01*
X107185715Y-89185714D01*
X107042857Y-89185714D01*
X106947619Y-89233333D01*
X106900000Y-89280952D01*
X104838095Y-77504762D02*
X104980952Y-77552381D01*
X105219048Y-77552381D01*
X105314286Y-77504762D01*
X105361905Y-77457143D01*
X105409524Y-77361905D01*
X105409524Y-77266667D01*
X105361905Y-77171429D01*
X105314286Y-77123810D01*
X105219048Y-77076190D01*
X105028571Y-77028571D01*
X104933333Y-76980952D01*
X104885714Y-76933333D01*
X104838095Y-76838095D01*
X104838095Y-76742857D01*
X104885714Y-76647619D01*
X104933333Y-76600000D01*
X105028571Y-76552381D01*
X105266667Y-76552381D01*
X105409524Y-76600000D01*
X105790476Y-76647619D02*
X105838095Y-76600000D01*
X105933333Y-76552381D01*
X106171429Y-76552381D01*
X106266667Y-76600000D01*
X106314286Y-76647619D01*
X106361905Y-76742857D01*
X106361905Y-76838095D01*
X106314286Y-76980952D01*
X105742857Y-77552381D01*
X106361905Y-77552381D01*
X103328571Y-74252381D02*
X103900000Y-74252381D01*
X103614285Y-75252381D02*
X103614285Y-74252381D01*
X104376190Y-75252381D02*
X104280952Y-75204762D01*
X104233333Y-75157143D01*
X104185714Y-75061905D01*
X104185714Y-74776190D01*
X104233333Y-74680952D01*
X104280952Y-74633333D01*
X104376190Y-74585714D01*
X104519048Y-74585714D01*
X104614286Y-74633333D01*
X104661905Y-74680952D01*
X104709524Y-74776190D01*
X104709524Y-75061905D01*
X104661905Y-75157143D01*
X104614286Y-75204762D01*
X104519048Y-75252381D01*
X104376190Y-75252381D01*
X105566667Y-74585714D02*
X105566667Y-75252381D01*
X105138095Y-74585714D02*
X105138095Y-75109524D01*
X105185714Y-75204762D01*
X105280952Y-75252381D01*
X105423810Y-75252381D01*
X105519048Y-75204762D01*
X105566667Y-75157143D01*
X106471429Y-75204762D02*
X106376191Y-75252381D01*
X106185714Y-75252381D01*
X106090476Y-75204762D01*
X106042857Y-75157143D01*
X105995238Y-75061905D01*
X105995238Y-74776190D01*
X106042857Y-74680952D01*
X106090476Y-74633333D01*
X106185714Y-74585714D01*
X106376191Y-74585714D01*
X106471429Y-74633333D01*
X106900000Y-75252381D02*
X106900000Y-74252381D01*
X107328572Y-75252381D02*
X107328572Y-74728571D01*
X107280953Y-74633333D01*
X107185715Y-74585714D01*
X107042857Y-74585714D01*
X106947619Y-74633333D01*
X106900000Y-74680952D01*
X104838095Y-62904762D02*
X104980952Y-62952381D01*
X105219048Y-62952381D01*
X105314286Y-62904762D01*
X105361905Y-62857143D01*
X105409524Y-62761905D01*
X105409524Y-62666667D01*
X105361905Y-62571429D01*
X105314286Y-62523810D01*
X105219048Y-62476190D01*
X105028571Y-62428571D01*
X104933333Y-62380952D01*
X104885714Y-62333333D01*
X104838095Y-62238095D01*
X104838095Y-62142857D01*
X104885714Y-62047619D01*
X104933333Y-62000000D01*
X105028571Y-61952381D01*
X105266667Y-61952381D01*
X105409524Y-62000000D01*
X106361905Y-62952381D02*
X105790476Y-62952381D01*
X106076190Y-62952381D02*
X106076190Y-61952381D01*
X105980952Y-62095238D01*
X105885714Y-62190476D01*
X105790476Y-62238095D01*
X103328571Y-59652381D02*
X103900000Y-59652381D01*
X103614285Y-60652381D02*
X103614285Y-59652381D01*
X104376190Y-60652381D02*
X104280952Y-60604762D01*
X104233333Y-60557143D01*
X104185714Y-60461905D01*
X104185714Y-60176190D01*
X104233333Y-60080952D01*
X104280952Y-60033333D01*
X104376190Y-59985714D01*
X104519048Y-59985714D01*
X104614286Y-60033333D01*
X104661905Y-60080952D01*
X104709524Y-60176190D01*
X104709524Y-60461905D01*
X104661905Y-60557143D01*
X104614286Y-60604762D01*
X104519048Y-60652381D01*
X104376190Y-60652381D01*
X105566667Y-59985714D02*
X105566667Y-60652381D01*
X105138095Y-59985714D02*
X105138095Y-60509524D01*
X105185714Y-60604762D01*
X105280952Y-60652381D01*
X105423810Y-60652381D01*
X105519048Y-60604762D01*
X105566667Y-60557143D01*
X106471429Y-60604762D02*
X106376191Y-60652381D01*
X106185714Y-60652381D01*
X106090476Y-60604762D01*
X106042857Y-60557143D01*
X105995238Y-60461905D01*
X105995238Y-60176190D01*
X106042857Y-60080952D01*
X106090476Y-60033333D01*
X106185714Y-59985714D01*
X106376191Y-59985714D01*
X106471429Y-60033333D01*
X106900000Y-60652381D02*
X106900000Y-59652381D01*
X107328572Y-60652381D02*
X107328572Y-60128571D01*
X107280953Y-60033333D01*
X107185715Y-59985714D01*
X107042857Y-59985714D01*
X106947619Y-60033333D01*
X106900000Y-60080952D01*
X130661905Y-85752381D02*
X130661905Y-84752381D01*
X131042858Y-84752381D01*
X131138096Y-84800000D01*
X131185715Y-84847619D01*
X131233334Y-84942857D01*
X131233334Y-85085714D01*
X131185715Y-85180952D01*
X131138096Y-85228571D01*
X131042858Y-85276190D01*
X130661905Y-85276190D01*
X131614286Y-84847619D02*
X131661905Y-84800000D01*
X131757143Y-84752381D01*
X131995239Y-84752381D01*
X132090477Y-84800000D01*
X132138096Y-84847619D01*
X132185715Y-84942857D01*
X132185715Y-85038095D01*
X132138096Y-85180952D01*
X131566667Y-85752381D01*
X132185715Y-85752381D01*
X113661905Y-85752381D02*
X113661905Y-84752381D01*
X114042858Y-84752381D01*
X114138096Y-84800000D01*
X114185715Y-84847619D01*
X114233334Y-84942857D01*
X114233334Y-85085714D01*
X114185715Y-85180952D01*
X114138096Y-85228571D01*
X114042858Y-85276190D01*
X113661905Y-85276190D01*
X115185715Y-85752381D02*
X114614286Y-85752381D01*
X114900000Y-85752381D02*
X114900000Y-84752381D01*
X114804762Y-84895238D01*
X114709524Y-84990476D01*
X114614286Y-85038095D01*
M02*
