G04 #@! TF.FileFunction,Copper,L2,Bot,Signal*
%FSLAX46Y46*%
G04 Gerber Fmt 4.6, Leading zero omitted, Abs format (unit mm)*
G04 Created by KiCad (PCBNEW 4.0.2-stable) date 12/4/2017 4:29:07 PM*
%MOMM*%
G01*
G04 APERTURE LIST*
%ADD10C,0.100000*%
%ADD11O,1.800000X4.000000*%
%ADD12R,3.000000X1.500000*%
%ADD13O,3.000000X1.500000*%
%ADD14C,0.600000*%
%ADD15C,0.500000*%
G04 APERTURE END LIST*
D10*
D11*
X167500000Y-113100000D03*
X164960000Y-113100000D03*
X170040000Y-113100000D03*
X184400000Y-113100000D03*
X181860000Y-113100000D03*
X186940000Y-113100000D03*
X167500000Y-127700000D03*
X164960000Y-127700000D03*
X170040000Y-127700000D03*
X184400000Y-127700000D03*
X181860000Y-127700000D03*
X186940000Y-127700000D03*
X167500000Y-142300000D03*
X164960000Y-142300000D03*
X170040000Y-142300000D03*
D12*
X176500000Y-114100000D03*
D13*
X176500000Y-116600000D03*
X176500000Y-119100000D03*
X176500000Y-121600000D03*
X176500000Y-124100000D03*
X176500000Y-126600000D03*
D11*
X184400000Y-142300000D03*
X181860000Y-142300000D03*
X186940000Y-142300000D03*
X105600000Y-127700000D03*
X103060000Y-127700000D03*
X108140000Y-127700000D03*
X105600000Y-142300000D03*
X103060000Y-142300000D03*
X108140000Y-142300000D03*
X150600000Y-142300000D03*
X148060000Y-142300000D03*
X153140000Y-142300000D03*
D12*
X159500000Y-114100000D03*
D13*
X159500000Y-116600000D03*
X159500000Y-119100000D03*
X159500000Y-121600000D03*
X159500000Y-124100000D03*
X159500000Y-126600000D03*
D11*
X139400000Y-142300000D03*
X136860000Y-142300000D03*
X141940000Y-142300000D03*
X150600000Y-127700000D03*
X148060000Y-127700000D03*
X153140000Y-127700000D03*
X105600000Y-113100000D03*
X103060000Y-113100000D03*
X108140000Y-113100000D03*
D12*
X114500000Y-114100000D03*
D13*
X114500000Y-116600000D03*
X114500000Y-119100000D03*
X114500000Y-121600000D03*
X114500000Y-124100000D03*
X114500000Y-126600000D03*
D11*
X122500000Y-142300000D03*
X119960000Y-142300000D03*
X125040000Y-142300000D03*
X139400000Y-127700000D03*
X136860000Y-127700000D03*
X141940000Y-127700000D03*
X122500000Y-127700000D03*
X119960000Y-127700000D03*
X125040000Y-127700000D03*
D12*
X131500000Y-114100000D03*
D13*
X131500000Y-116600000D03*
X131500000Y-119100000D03*
X131500000Y-121600000D03*
X131500000Y-124100000D03*
X131500000Y-126600000D03*
D11*
X150600000Y-113100000D03*
X148060000Y-113100000D03*
X153140000Y-113100000D03*
X139400000Y-113100000D03*
X136860000Y-113100000D03*
X141940000Y-113100000D03*
X122500000Y-113100000D03*
X119960000Y-113100000D03*
X125040000Y-113100000D03*
D12*
X159500000Y-69100000D03*
D13*
X159500000Y-71600000D03*
X159500000Y-74100000D03*
X159500000Y-76600000D03*
X159500000Y-79100000D03*
X159500000Y-81600000D03*
D11*
X150600000Y-82700000D03*
X148060000Y-82700000D03*
X153140000Y-82700000D03*
X150600000Y-97300000D03*
X148060000Y-97300000D03*
X153140000Y-97300000D03*
X150600000Y-68100000D03*
X148060000Y-68100000D03*
X153140000Y-68100000D03*
D12*
X176500000Y-69100000D03*
D13*
X176500000Y-71600000D03*
X176500000Y-74100000D03*
X176500000Y-76600000D03*
X176500000Y-79100000D03*
X176500000Y-81600000D03*
D11*
X167500000Y-82700000D03*
X164960000Y-82700000D03*
X170040000Y-82700000D03*
X184400000Y-82700000D03*
X181860000Y-82700000D03*
X186940000Y-82700000D03*
X167500000Y-97300000D03*
X164960000Y-97300000D03*
X170040000Y-97300000D03*
X184400000Y-97300000D03*
X181860000Y-97300000D03*
X186940000Y-97300000D03*
X167500000Y-68100000D03*
X164960000Y-68100000D03*
X170040000Y-68100000D03*
X184400000Y-68100000D03*
X181860000Y-68100000D03*
X186940000Y-68100000D03*
X139400000Y-97300000D03*
X136860000Y-97300000D03*
X141940000Y-97300000D03*
X139400000Y-82700000D03*
X136860000Y-82700000D03*
X141940000Y-82700000D03*
X139400000Y-68100000D03*
X136860000Y-68100000D03*
X141940000Y-68100000D03*
X122500000Y-97300000D03*
X119960000Y-97300000D03*
X125040000Y-97300000D03*
X122500000Y-82700000D03*
X119960000Y-82700000D03*
X125040000Y-82700000D03*
X122500000Y-68100000D03*
X119960000Y-68100000D03*
X125040000Y-68100000D03*
X105600000Y-97300000D03*
X103060000Y-97300000D03*
X108140000Y-97300000D03*
X105600000Y-82700000D03*
X103060000Y-82700000D03*
X108140000Y-82700000D03*
X105600000Y-68100000D03*
X103060000Y-68100000D03*
X108140000Y-68100000D03*
D12*
X131500000Y-69100000D03*
D13*
X131500000Y-71600000D03*
X131500000Y-74100000D03*
X131500000Y-76600000D03*
X131500000Y-79100000D03*
X131500000Y-81600000D03*
D12*
X114500000Y-69100000D03*
D13*
X114500000Y-71600000D03*
X114500000Y-74100000D03*
X114500000Y-76600000D03*
X114500000Y-79100000D03*
X114500000Y-81600000D03*
D14*
X115000000Y-106300000D03*
X116600000Y-110300000D03*
X133400000Y-110300000D03*
X132000000Y-106100000D03*
X178400000Y-110300000D03*
X177000000Y-106100000D03*
X161600000Y-110300000D03*
X160000000Y-106300000D03*
X178400000Y-65300000D03*
X161600000Y-65300000D03*
X160000000Y-61300000D03*
X177000000Y-61100000D03*
X132000000Y-61100000D03*
X115000000Y-61300000D03*
X116600000Y-65300000D03*
X133400000Y-65300000D03*
X111100000Y-109400000D03*
X156100000Y-109400000D03*
X156100000Y-64400000D03*
X111100000Y-64400000D03*
X129100000Y-137500000D03*
X174100000Y-137500000D03*
X174100000Y-92500000D03*
X129100000Y-92500000D03*
D15*
X145700000Y-114060000D02*
X145700000Y-126740000D01*
X148060000Y-113100000D02*
X148060000Y-112000000D01*
X146660000Y-113100000D02*
X145700000Y-114060000D01*
X148060000Y-113100000D02*
X146660000Y-113100000D01*
X146660000Y-127700000D02*
X148060000Y-127700000D01*
X146660000Y-127700000D02*
X145700000Y-128660000D01*
X145700000Y-126740000D02*
X146660000Y-127700000D01*
X135460000Y-127700000D02*
X136860000Y-127700000D01*
X135460000Y-127700000D02*
X134400000Y-128760000D01*
X136860000Y-113100000D02*
X136860000Y-112000000D01*
X136860000Y-113100000D02*
X135460000Y-113100000D01*
X136800000Y-111100000D02*
X136000000Y-110300000D01*
X136800000Y-111940000D02*
X136800000Y-111100000D01*
X136000000Y-110300000D02*
X133400000Y-110300000D01*
X136860000Y-112000000D02*
X136800000Y-111940000D01*
X135460000Y-113100000D02*
X134400000Y-114160000D01*
X134400000Y-126640000D02*
X135460000Y-127700000D01*
X134400000Y-114160000D02*
X134400000Y-126640000D01*
X134400000Y-128760000D02*
X134400000Y-141240000D01*
X145700000Y-141340000D02*
X146660000Y-142300000D01*
X145700000Y-128660000D02*
X145700000Y-141340000D01*
X146660000Y-142300000D02*
X148060000Y-142300000D01*
X135460000Y-142300000D02*
X136860000Y-142300000D01*
X134400000Y-141240000D02*
X135460000Y-142300000D01*
X119960000Y-113100000D02*
X118560000Y-113100000D01*
X118560000Y-113100000D02*
X117500000Y-114160000D01*
X119960000Y-113100000D02*
X119960000Y-110600000D01*
X119960000Y-110600000D02*
X119660000Y-110300000D01*
X119660000Y-110300000D02*
X116600000Y-110300000D01*
X115000000Y-102400000D02*
X115000000Y-106300000D01*
X113200000Y-100600000D02*
X115000000Y-102400000D01*
X130400000Y-100600000D02*
X113200000Y-100600000D01*
X132000000Y-106100000D02*
X132000000Y-102200000D01*
X132000000Y-102200000D02*
X130400000Y-100600000D01*
X101200000Y-100600000D02*
X113200000Y-100600000D01*
X100600000Y-109540000D02*
X100600000Y-101200000D01*
X100600000Y-101200000D02*
X101200000Y-100600000D01*
X103060000Y-113100000D02*
X101660000Y-113100000D01*
X101660000Y-113100000D02*
X100700000Y-114060000D01*
X103060000Y-112000000D02*
X100600000Y-109540000D01*
X103060000Y-113100000D02*
X103060000Y-112000000D01*
X117500000Y-126640000D02*
X118560000Y-127700000D01*
X117500000Y-114160000D02*
X117500000Y-126640000D01*
X100700000Y-126740000D02*
X101660000Y-127700000D01*
X101660000Y-127700000D02*
X103060000Y-127700000D01*
X100700000Y-114060000D02*
X100700000Y-126740000D01*
X114500000Y-127850000D02*
X117050000Y-130400000D01*
X117050000Y-130400000D02*
X117500000Y-130400000D01*
X114500000Y-126600000D02*
X114500000Y-127850000D01*
X117500000Y-128760000D02*
X117500000Y-130400000D01*
X101660000Y-127700000D02*
X100700000Y-128660000D01*
X100700000Y-128660000D02*
X100700000Y-141340000D01*
X100700000Y-141340000D02*
X101660000Y-142300000D01*
X101660000Y-142300000D02*
X103060000Y-142300000D01*
X118560000Y-127700000D02*
X117500000Y-128760000D01*
X118560000Y-142300000D02*
X119960000Y-142300000D01*
X117500000Y-130400000D02*
X117500000Y-141240000D01*
X118560000Y-127700000D02*
X119960000Y-127700000D01*
X117500000Y-141240000D02*
X118560000Y-142300000D01*
X162050000Y-130400000D02*
X162500000Y-130400000D01*
X159500000Y-126600000D02*
X159500000Y-127850000D01*
X163560000Y-127700000D02*
X162500000Y-128760000D01*
X162500000Y-128760000D02*
X162500000Y-130400000D01*
X159500000Y-127850000D02*
X162050000Y-130400000D01*
X180460000Y-127700000D02*
X179400000Y-128760000D01*
X179400000Y-128760000D02*
X179400000Y-141240000D01*
X179400000Y-141240000D02*
X180460000Y-142300000D01*
X180460000Y-142300000D02*
X181860000Y-142300000D01*
X163560000Y-142300000D02*
X164960000Y-142300000D01*
X162500000Y-141240000D02*
X163560000Y-142300000D01*
X162500000Y-130400000D02*
X162500000Y-141240000D01*
X179400000Y-126640000D02*
X180460000Y-127700000D01*
X179400000Y-114160000D02*
X179400000Y-126640000D01*
X180460000Y-127700000D02*
X181860000Y-127700000D01*
X145600000Y-109540000D02*
X145600000Y-101200000D01*
X146200000Y-100600000D02*
X158200000Y-100600000D01*
X158200000Y-100600000D02*
X160000000Y-102400000D01*
X148060000Y-112000000D02*
X145600000Y-109540000D01*
X145600000Y-101200000D02*
X146200000Y-100600000D01*
X160000000Y-102400000D02*
X160000000Y-106300000D01*
X181860000Y-112000000D02*
X181800000Y-111940000D01*
X181800000Y-111100000D02*
X181000000Y-110300000D01*
X181860000Y-113100000D02*
X180460000Y-113100000D01*
X180460000Y-113100000D02*
X179400000Y-114160000D01*
X181800000Y-111940000D02*
X181800000Y-111100000D01*
X181000000Y-110300000D02*
X178400000Y-110300000D01*
X181860000Y-113100000D02*
X181860000Y-112000000D01*
X162500000Y-126640000D02*
X163560000Y-127700000D01*
X163560000Y-127700000D02*
X164960000Y-127700000D01*
X162500000Y-114160000D02*
X162500000Y-126640000D01*
X164960000Y-113100000D02*
X163560000Y-113100000D01*
X163560000Y-113100000D02*
X162500000Y-114160000D01*
X175400000Y-100600000D02*
X158200000Y-100600000D01*
X177000000Y-106100000D02*
X177000000Y-102200000D01*
X177000000Y-102200000D02*
X175400000Y-100600000D01*
X164960000Y-110600000D02*
X164660000Y-110300000D01*
X164660000Y-110300000D02*
X161600000Y-110300000D01*
X164960000Y-113100000D02*
X164960000Y-110600000D01*
X145700000Y-96340000D02*
X146660000Y-97300000D01*
X146660000Y-97300000D02*
X148060000Y-97300000D01*
X145700000Y-81740000D02*
X146660000Y-82700000D01*
X145700000Y-69060000D02*
X145700000Y-81740000D01*
X162500000Y-69160000D02*
X162500000Y-81640000D01*
X146660000Y-82700000D02*
X148060000Y-82700000D01*
X145700000Y-83660000D02*
X145700000Y-96340000D01*
X146660000Y-82700000D02*
X145700000Y-83660000D01*
X162500000Y-81640000D02*
X163560000Y-82700000D01*
X159500000Y-81600000D02*
X159500000Y-82850000D01*
X162500000Y-83760000D02*
X162500000Y-85400000D01*
X163560000Y-82700000D02*
X162500000Y-83760000D01*
X162050000Y-85400000D02*
X162500000Y-85400000D01*
X159500000Y-82850000D02*
X162050000Y-85400000D01*
X162500000Y-96240000D02*
X163560000Y-97300000D01*
X163560000Y-82700000D02*
X164960000Y-82700000D01*
X163560000Y-97300000D02*
X164960000Y-97300000D01*
X162500000Y-85400000D02*
X162500000Y-96240000D01*
X181860000Y-67000000D02*
X181800000Y-66940000D01*
X180460000Y-97300000D02*
X181860000Y-97300000D01*
X179400000Y-96240000D02*
X180460000Y-97300000D01*
X179400000Y-83760000D02*
X179400000Y-96240000D01*
X179400000Y-69160000D02*
X179400000Y-81640000D01*
X181860000Y-68100000D02*
X180460000Y-68100000D01*
X180460000Y-68100000D02*
X179400000Y-69160000D01*
X181860000Y-68100000D02*
X181860000Y-67000000D01*
X180460000Y-82700000D02*
X181860000Y-82700000D01*
X179400000Y-81640000D02*
X180460000Y-82700000D01*
X180460000Y-82700000D02*
X179400000Y-83760000D01*
X164660000Y-65300000D02*
X161600000Y-65300000D01*
X158200000Y-55600000D02*
X160000000Y-57400000D01*
X160000000Y-57400000D02*
X160000000Y-61300000D01*
X175400000Y-55600000D02*
X158200000Y-55600000D01*
X148060000Y-67000000D02*
X145600000Y-64540000D01*
X148060000Y-68100000D02*
X146660000Y-68100000D01*
X145600000Y-64540000D02*
X145600000Y-56200000D01*
X145600000Y-56200000D02*
X146200000Y-55600000D01*
X146200000Y-55600000D02*
X158200000Y-55600000D01*
X181800000Y-66940000D02*
X181800000Y-66100000D01*
X181000000Y-65300000D02*
X178400000Y-65300000D01*
X177000000Y-61100000D02*
X177000000Y-57200000D01*
X177000000Y-57200000D02*
X175400000Y-55600000D01*
X181800000Y-66100000D02*
X181000000Y-65300000D01*
X148060000Y-68100000D02*
X148060000Y-67000000D01*
X146660000Y-68100000D02*
X145700000Y-69060000D01*
X164960000Y-68100000D02*
X164960000Y-65600000D01*
X164960000Y-68100000D02*
X163560000Y-68100000D01*
X164960000Y-65600000D02*
X164660000Y-65300000D01*
X163560000Y-68100000D02*
X162500000Y-69160000D01*
X132000000Y-57200000D02*
X130400000Y-55600000D01*
X130400000Y-55600000D02*
X113200000Y-55600000D01*
X132000000Y-61100000D02*
X132000000Y-57200000D01*
X115000000Y-57400000D02*
X115000000Y-61300000D01*
X113200000Y-55600000D02*
X115000000Y-57400000D01*
X101200000Y-55600000D02*
X113200000Y-55600000D01*
X100600000Y-56200000D02*
X101200000Y-55600000D01*
X100600000Y-64540000D02*
X100600000Y-56200000D01*
X103060000Y-68100000D02*
X103060000Y-67000000D01*
X103060000Y-67000000D02*
X100600000Y-64540000D01*
X117500000Y-83760000D02*
X117500000Y-85400000D01*
X114500000Y-81600000D02*
X114500000Y-82850000D01*
X117500000Y-85400000D02*
X117500000Y-96240000D01*
X114500000Y-82850000D02*
X117050000Y-85400000D01*
X117050000Y-85400000D02*
X117500000Y-85400000D01*
X119660000Y-65300000D02*
X116600000Y-65300000D01*
X119960000Y-68100000D02*
X119960000Y-65600000D01*
X119960000Y-65600000D02*
X119660000Y-65300000D01*
X136000000Y-65300000D02*
X133400000Y-65300000D01*
X136800000Y-66100000D02*
X136000000Y-65300000D01*
X136800000Y-66940000D02*
X136800000Y-66100000D01*
X136860000Y-68100000D02*
X136860000Y-67000000D01*
X136860000Y-67000000D02*
X136800000Y-66940000D01*
X135460000Y-82700000D02*
X134400000Y-83760000D01*
X134400000Y-83760000D02*
X134400000Y-96240000D01*
X134400000Y-96240000D02*
X135460000Y-97300000D01*
X135460000Y-97300000D02*
X136860000Y-97300000D01*
X136860000Y-68100000D02*
X135460000Y-68100000D01*
X135460000Y-68100000D02*
X134400000Y-69160000D01*
X134400000Y-69160000D02*
X134400000Y-81640000D01*
X134400000Y-81640000D02*
X135460000Y-82700000D01*
X135460000Y-82700000D02*
X136860000Y-82700000D01*
X118560000Y-82700000D02*
X117500000Y-83760000D01*
X117500000Y-96240000D02*
X118560000Y-97300000D01*
X118560000Y-97300000D02*
X119960000Y-97300000D01*
X119960000Y-68100000D02*
X118560000Y-68100000D01*
X118560000Y-68100000D02*
X117500000Y-69160000D01*
X117500000Y-69160000D02*
X117500000Y-81640000D01*
X117500000Y-81640000D02*
X118560000Y-82700000D01*
X118560000Y-82700000D02*
X119960000Y-82700000D01*
X101660000Y-82700000D02*
X100700000Y-83660000D01*
X101660000Y-97300000D02*
X103060000Y-97300000D01*
X100700000Y-83660000D02*
X100700000Y-96340000D01*
X100700000Y-96340000D02*
X101660000Y-97300000D01*
X103060000Y-68100000D02*
X101660000Y-68100000D01*
X101660000Y-68100000D02*
X100700000Y-69060000D01*
X100700000Y-69060000D02*
X100700000Y-81740000D01*
X100700000Y-81740000D02*
X101660000Y-82700000D01*
X101660000Y-82700000D02*
X103060000Y-82700000D01*
X143340000Y-113100000D02*
X144300000Y-114060000D01*
X141940000Y-113100000D02*
X143340000Y-113100000D01*
X144300000Y-114060000D02*
X144300000Y-126740000D01*
X143340000Y-127700000D02*
X144300000Y-128660000D01*
X143340000Y-127700000D02*
X141940000Y-127700000D01*
X144300000Y-126740000D02*
X143340000Y-127700000D01*
X127400000Y-114060000D02*
X127400000Y-126740000D01*
X127400000Y-141340000D02*
X126440000Y-142300000D01*
X127400000Y-126740000D02*
X126440000Y-127700000D01*
X126440000Y-127700000D02*
X127400000Y-128660000D01*
X127400000Y-128660000D02*
X127400000Y-141340000D01*
X144300000Y-128660000D02*
X144300000Y-141340000D01*
X144300000Y-141340000D02*
X143340000Y-142300000D01*
X143340000Y-142300000D02*
X141940000Y-142300000D01*
X125040000Y-113100000D02*
X126440000Y-113100000D01*
X126440000Y-113100000D02*
X127400000Y-114060000D01*
X109800000Y-110700000D02*
X111100000Y-109400000D01*
X108140000Y-113100000D02*
X109540000Y-113100000D01*
X109540000Y-113100000D02*
X110500000Y-114060000D01*
X109440000Y-110700000D02*
X109800000Y-110700000D01*
X108140000Y-113100000D02*
X108140000Y-112000000D01*
X108140000Y-112000000D02*
X109440000Y-110700000D01*
X110500000Y-114060000D02*
X110500000Y-126740000D01*
X110500000Y-126740000D02*
X109540000Y-127700000D01*
X109540000Y-127700000D02*
X110400000Y-128560000D01*
X109540000Y-127700000D02*
X108140000Y-127700000D01*
X110400000Y-128560000D02*
X110400000Y-141440000D01*
X109540000Y-142300000D02*
X108140000Y-142300000D01*
X110400000Y-141440000D02*
X109540000Y-142300000D01*
X126440000Y-127700000D02*
X125040000Y-127700000D01*
X126440000Y-142300000D02*
X125040000Y-142300000D01*
X154540000Y-127700000D02*
X155400000Y-128560000D01*
X171440000Y-142300000D02*
X170040000Y-142300000D01*
X172400000Y-141340000D02*
X171440000Y-142300000D01*
X172400000Y-128660000D02*
X172400000Y-141340000D01*
X171440000Y-127700000D02*
X172400000Y-128660000D01*
X188340000Y-127700000D02*
X189300000Y-128660000D01*
X188340000Y-142300000D02*
X186940000Y-142300000D01*
X189300000Y-141340000D02*
X188340000Y-142300000D01*
X189300000Y-128660000D02*
X189300000Y-141340000D01*
X155400000Y-141440000D02*
X154540000Y-142300000D01*
X154540000Y-142300000D02*
X153140000Y-142300000D01*
X155400000Y-128560000D02*
X155400000Y-141440000D01*
X186940000Y-113100000D02*
X188340000Y-113100000D01*
X188340000Y-127700000D02*
X186940000Y-127700000D01*
X189300000Y-126740000D02*
X188340000Y-127700000D01*
X188340000Y-113100000D02*
X189300000Y-114060000D01*
X189300000Y-114060000D02*
X189300000Y-126740000D01*
X172400000Y-126740000D02*
X171440000Y-127700000D01*
X171440000Y-127700000D02*
X170040000Y-127700000D01*
X170040000Y-113100000D02*
X171440000Y-113100000D01*
X172400000Y-114060000D02*
X172400000Y-126740000D01*
X171440000Y-113100000D02*
X172400000Y-114060000D01*
X154800000Y-110700000D02*
X156100000Y-109400000D01*
X153140000Y-112000000D02*
X154440000Y-110700000D01*
X153140000Y-113100000D02*
X153140000Y-112000000D01*
X154440000Y-110700000D02*
X154800000Y-110700000D01*
X154540000Y-113100000D02*
X155500000Y-114060000D01*
X153140000Y-113100000D02*
X154540000Y-113100000D01*
X154540000Y-127700000D02*
X153140000Y-127700000D01*
X155500000Y-126740000D02*
X154540000Y-127700000D01*
X155500000Y-114060000D02*
X155500000Y-126740000D01*
X155400000Y-96440000D02*
X154540000Y-97300000D01*
X154540000Y-97300000D02*
X153140000Y-97300000D01*
X155500000Y-69060000D02*
X155500000Y-81740000D01*
X155500000Y-81740000D02*
X154540000Y-82700000D01*
X154540000Y-82700000D02*
X153140000Y-82700000D01*
X155400000Y-83560000D02*
X155400000Y-96440000D01*
X154540000Y-82700000D02*
X155400000Y-83560000D01*
X171440000Y-82700000D02*
X170040000Y-82700000D01*
X171440000Y-97300000D02*
X170040000Y-97300000D01*
X189300000Y-69060000D02*
X189300000Y-81740000D01*
X188340000Y-68100000D02*
X189300000Y-69060000D01*
X186940000Y-68100000D02*
X188340000Y-68100000D01*
X172400000Y-81740000D02*
X171440000Y-82700000D01*
X172400000Y-96340000D02*
X171440000Y-97300000D01*
X172400000Y-83660000D02*
X172400000Y-96340000D01*
X171440000Y-82700000D02*
X172400000Y-83660000D01*
X188340000Y-97300000D02*
X186940000Y-97300000D01*
X189300000Y-83660000D02*
X189300000Y-96340000D01*
X189300000Y-96340000D02*
X188340000Y-97300000D01*
X172400000Y-69060000D02*
X172400000Y-81740000D01*
X171440000Y-68100000D02*
X172400000Y-69060000D01*
X188340000Y-82700000D02*
X186940000Y-82700000D01*
X188340000Y-82700000D02*
X189300000Y-83660000D01*
X189300000Y-81740000D02*
X188340000Y-82700000D01*
X154540000Y-68100000D02*
X155500000Y-69060000D01*
X153140000Y-68100000D02*
X153140000Y-67000000D01*
X153140000Y-67000000D02*
X154440000Y-65700000D01*
X154440000Y-65700000D02*
X154800000Y-65700000D01*
X154800000Y-65700000D02*
X156100000Y-64400000D01*
X153140000Y-68100000D02*
X154540000Y-68100000D01*
X170040000Y-68100000D02*
X171440000Y-68100000D01*
X109800000Y-65700000D02*
X111100000Y-64400000D01*
X109440000Y-65700000D02*
X109800000Y-65700000D01*
X108140000Y-68100000D02*
X108140000Y-67000000D01*
X108140000Y-67000000D02*
X109440000Y-65700000D01*
X143340000Y-82700000D02*
X144300000Y-83660000D01*
X144300000Y-83660000D02*
X144300000Y-96340000D01*
X144300000Y-96340000D02*
X143340000Y-97300000D01*
X143340000Y-97300000D02*
X141940000Y-97300000D01*
X141940000Y-68100000D02*
X143340000Y-68100000D01*
X143340000Y-68100000D02*
X144300000Y-69060000D01*
X144300000Y-69060000D02*
X144300000Y-81740000D01*
X144300000Y-81740000D02*
X143340000Y-82700000D01*
X143340000Y-82700000D02*
X141940000Y-82700000D01*
X126440000Y-82700000D02*
X127400000Y-83660000D01*
X127400000Y-83660000D02*
X127400000Y-96340000D01*
X127400000Y-96340000D02*
X126440000Y-97300000D01*
X126440000Y-97300000D02*
X125040000Y-97300000D01*
X125040000Y-68100000D02*
X126440000Y-68100000D01*
X126440000Y-68100000D02*
X127400000Y-69060000D01*
X127400000Y-69060000D02*
X127400000Y-81740000D01*
X127400000Y-81740000D02*
X126440000Y-82700000D01*
X126440000Y-82700000D02*
X125040000Y-82700000D01*
X109540000Y-82700000D02*
X110400000Y-83560000D01*
X109540000Y-97300000D02*
X108140000Y-97300000D01*
X110400000Y-83560000D02*
X110400000Y-96440000D01*
X110400000Y-96440000D02*
X109540000Y-97300000D01*
X108140000Y-68100000D02*
X109540000Y-68100000D01*
X110500000Y-69060000D02*
X110500000Y-81740000D01*
X109540000Y-68100000D02*
X110500000Y-69060000D01*
X110500000Y-81740000D02*
X109540000Y-82700000D01*
X109540000Y-82700000D02*
X108140000Y-82700000D01*
X129900000Y-137500000D02*
X131500000Y-135900000D01*
X129100000Y-137500000D02*
X129900000Y-137500000D01*
X131500000Y-135900000D02*
X131500000Y-126600000D01*
X174100000Y-137500000D02*
X174900000Y-137500000D01*
X176500000Y-135900000D02*
X176500000Y-126600000D01*
X174900000Y-137500000D02*
X176500000Y-135900000D01*
X174100000Y-92500000D02*
X174900000Y-92500000D01*
X176500000Y-90900000D02*
X176500000Y-81600000D01*
X174900000Y-92500000D02*
X176500000Y-90900000D01*
X129900000Y-92500000D02*
X131500000Y-90900000D01*
X131500000Y-90900000D02*
X131500000Y-81600000D01*
X129100000Y-92500000D02*
X129900000Y-92500000D01*
M02*
