G04 #@! TF.FileFunction,Copper,L1,Top,Signal*
%FSLAX46Y46*%
G04 Gerber Fmt 4.6, Leading zero omitted, Abs format (unit mm)*
G04 Created by KiCad (PCBNEW 4.0.2-stable) date 12/4/2017 4:29:07 PM*
%MOMM*%
G01*
G04 APERTURE LIST*
%ADD10C,0.100000*%
%ADD11R,1.000000X1.250000*%
%ADD12O,1.800000X4.000000*%
%ADD13R,1.200000X1.200000*%
%ADD14R,3.000000X1.500000*%
%ADD15O,3.000000X1.500000*%
%ADD16R,0.700000X1.300000*%
%ADD17C,0.600000*%
%ADD18C,0.500000*%
G04 APERTURE END LIST*
D10*
D11*
X175000000Y-108100000D03*
X177000000Y-108100000D03*
X158100000Y-110000000D03*
X160100000Y-110000000D03*
D12*
X167500000Y-113100000D03*
X164960000Y-113100000D03*
X170040000Y-113100000D03*
X184400000Y-113100000D03*
X181860000Y-113100000D03*
X186940000Y-113100000D03*
D11*
X175000000Y-110000000D03*
X177000000Y-110000000D03*
X158100000Y-108100000D03*
X160100000Y-108100000D03*
D13*
X174900000Y-142100000D03*
X177100000Y-142100000D03*
D12*
X167500000Y-127700000D03*
X164960000Y-127700000D03*
X170040000Y-127700000D03*
X184400000Y-127700000D03*
X181860000Y-127700000D03*
X186940000Y-127700000D03*
X167500000Y-142300000D03*
X164960000Y-142300000D03*
X170040000Y-142300000D03*
D14*
X176500000Y-114100000D03*
D15*
X176500000Y-116600000D03*
X176500000Y-119100000D03*
X176500000Y-121600000D03*
X176500000Y-124100000D03*
X176500000Y-126600000D03*
D12*
X184400000Y-142300000D03*
X181860000Y-142300000D03*
X186940000Y-142300000D03*
D16*
X177000000Y-140100000D03*
X175100000Y-140100000D03*
D12*
X105600000Y-127700000D03*
X103060000Y-127700000D03*
X108140000Y-127700000D03*
D16*
X114900000Y-140100000D03*
X113000000Y-140100000D03*
D12*
X105600000Y-142300000D03*
X103060000Y-142300000D03*
X108140000Y-142300000D03*
D13*
X112900000Y-142200000D03*
X115100000Y-142200000D03*
X157900000Y-142200000D03*
X160100000Y-142200000D03*
D12*
X150600000Y-142300000D03*
X148060000Y-142300000D03*
X153140000Y-142300000D03*
D14*
X159500000Y-114100000D03*
D15*
X159500000Y-116600000D03*
X159500000Y-119100000D03*
X159500000Y-121600000D03*
X159500000Y-124100000D03*
X159500000Y-126600000D03*
D16*
X132000000Y-140100000D03*
X130100000Y-140100000D03*
D12*
X139400000Y-142300000D03*
X136860000Y-142300000D03*
X141940000Y-142300000D03*
X150600000Y-127700000D03*
X148060000Y-127700000D03*
X153140000Y-127700000D03*
D16*
X159900000Y-140100000D03*
X158000000Y-140100000D03*
D13*
X129900000Y-142100000D03*
X132100000Y-142100000D03*
D11*
X113100000Y-108100000D03*
X115100000Y-108100000D03*
D12*
X105600000Y-113100000D03*
X103060000Y-113100000D03*
X108140000Y-113100000D03*
D11*
X113100000Y-110000000D03*
X115100000Y-110000000D03*
D14*
X114500000Y-114100000D03*
D15*
X114500000Y-116600000D03*
X114500000Y-119100000D03*
X114500000Y-121600000D03*
X114500000Y-124100000D03*
X114500000Y-126600000D03*
D12*
X122500000Y-142300000D03*
X119960000Y-142300000D03*
X125040000Y-142300000D03*
X139400000Y-127700000D03*
X136860000Y-127700000D03*
X141940000Y-127700000D03*
X122500000Y-127700000D03*
X119960000Y-127700000D03*
X125040000Y-127700000D03*
D14*
X131500000Y-114100000D03*
D15*
X131500000Y-116600000D03*
X131500000Y-119100000D03*
X131500000Y-121600000D03*
X131500000Y-124100000D03*
X131500000Y-126600000D03*
D12*
X150600000Y-113100000D03*
X148060000Y-113100000D03*
X153140000Y-113100000D03*
D11*
X130000000Y-110000000D03*
X132000000Y-110000000D03*
D12*
X139400000Y-113100000D03*
X136860000Y-113100000D03*
X141940000Y-113100000D03*
X122500000Y-113100000D03*
X119960000Y-113100000D03*
X125040000Y-113100000D03*
D11*
X130000000Y-108100000D03*
X132000000Y-108100000D03*
D14*
X159500000Y-69100000D03*
D15*
X159500000Y-71600000D03*
X159500000Y-74100000D03*
X159500000Y-76600000D03*
X159500000Y-79100000D03*
X159500000Y-81600000D03*
D13*
X157900000Y-97200000D03*
X160100000Y-97200000D03*
D16*
X159900000Y-95100000D03*
X158000000Y-95100000D03*
D12*
X150600000Y-82700000D03*
X148060000Y-82700000D03*
X153140000Y-82700000D03*
X150600000Y-97300000D03*
X148060000Y-97300000D03*
X153140000Y-97300000D03*
D11*
X158100000Y-65000000D03*
X160100000Y-65000000D03*
D12*
X150600000Y-68100000D03*
X148060000Y-68100000D03*
X153140000Y-68100000D03*
D11*
X158100000Y-63100000D03*
X160100000Y-63100000D03*
D14*
X176500000Y-69100000D03*
D15*
X176500000Y-71600000D03*
X176500000Y-74100000D03*
X176500000Y-76600000D03*
X176500000Y-79100000D03*
X176500000Y-81600000D03*
D12*
X167500000Y-82700000D03*
X164960000Y-82700000D03*
X170040000Y-82700000D03*
X184400000Y-82700000D03*
X181860000Y-82700000D03*
X186940000Y-82700000D03*
X167500000Y-97300000D03*
X164960000Y-97300000D03*
X170040000Y-97300000D03*
D13*
X174900000Y-97100000D03*
X177100000Y-97100000D03*
D16*
X177000000Y-95100000D03*
X175100000Y-95100000D03*
D12*
X184400000Y-97300000D03*
X181860000Y-97300000D03*
X186940000Y-97300000D03*
D11*
X175000000Y-63100000D03*
X177000000Y-63100000D03*
D12*
X167500000Y-68100000D03*
X164960000Y-68100000D03*
X170040000Y-68100000D03*
D11*
X175000000Y-65000000D03*
X177000000Y-65000000D03*
D12*
X184400000Y-68100000D03*
X181860000Y-68100000D03*
X186940000Y-68100000D03*
D13*
X129900000Y-97100000D03*
X132100000Y-97100000D03*
X112900000Y-97200000D03*
X115100000Y-97200000D03*
D16*
X132000000Y-95100000D03*
X130100000Y-95100000D03*
X114900000Y-95100000D03*
X113000000Y-95100000D03*
D11*
X113100000Y-63100000D03*
X115100000Y-63100000D03*
X113100000Y-65000000D03*
X115100000Y-65000000D03*
X130000000Y-63100000D03*
X132000000Y-63100000D03*
X130000000Y-65000000D03*
X132000000Y-65000000D03*
D12*
X139400000Y-97300000D03*
X136860000Y-97300000D03*
X141940000Y-97300000D03*
X139400000Y-82700000D03*
X136860000Y-82700000D03*
X141940000Y-82700000D03*
X139400000Y-68100000D03*
X136860000Y-68100000D03*
X141940000Y-68100000D03*
X122500000Y-97300000D03*
X119960000Y-97300000D03*
X125040000Y-97300000D03*
X122500000Y-82700000D03*
X119960000Y-82700000D03*
X125040000Y-82700000D03*
X122500000Y-68100000D03*
X119960000Y-68100000D03*
X125040000Y-68100000D03*
X105600000Y-97300000D03*
X103060000Y-97300000D03*
X108140000Y-97300000D03*
X105600000Y-82700000D03*
X103060000Y-82700000D03*
X108140000Y-82700000D03*
X105600000Y-68100000D03*
X103060000Y-68100000D03*
X108140000Y-68100000D03*
D14*
X131500000Y-69100000D03*
D15*
X131500000Y-71600000D03*
X131500000Y-74100000D03*
X131500000Y-76600000D03*
X131500000Y-79100000D03*
X131500000Y-81600000D03*
D14*
X114500000Y-69100000D03*
D15*
X114500000Y-71600000D03*
X114500000Y-74100000D03*
X114500000Y-76600000D03*
X114500000Y-79100000D03*
X114500000Y-81600000D03*
D17*
X115000000Y-106300000D03*
X116600000Y-110300000D03*
X133400000Y-110300000D03*
X132000000Y-106100000D03*
X178400000Y-110300000D03*
X177000000Y-106100000D03*
X161600000Y-110300000D03*
X160000000Y-106300000D03*
X178400000Y-65300000D03*
X161600000Y-65300000D03*
X160000000Y-61300000D03*
X177000000Y-61100000D03*
X132000000Y-61100000D03*
X115000000Y-61300000D03*
X116600000Y-65300000D03*
X133400000Y-65300000D03*
X111100000Y-109400000D03*
X156100000Y-109400000D03*
X156100000Y-64400000D03*
X111100000Y-64400000D03*
X129100000Y-137500000D03*
X174100000Y-137500000D03*
X174100000Y-92500000D03*
X129100000Y-92500000D03*
D18*
X111300000Y-115400000D02*
X111300000Y-111500000D01*
X112500000Y-116600000D02*
X111300000Y-115400000D01*
X114500000Y-116600000D02*
X112500000Y-116600000D01*
X111300000Y-111500000D02*
X110300000Y-110500000D01*
X107100000Y-110500000D02*
X105600000Y-112000000D01*
X110300000Y-110500000D02*
X107100000Y-110500000D01*
X105600000Y-112000000D02*
X105600000Y-113100000D01*
X159500000Y-116600000D02*
X157500000Y-116600000D01*
X156300000Y-115400000D02*
X156300000Y-111500000D01*
X157500000Y-116600000D02*
X156300000Y-115400000D01*
X152100000Y-110500000D02*
X150600000Y-112000000D01*
X150600000Y-112000000D02*
X150600000Y-113100000D01*
X156300000Y-111500000D02*
X155300000Y-110500000D01*
X155300000Y-110500000D02*
X152100000Y-110500000D01*
X157500000Y-71600000D02*
X156300000Y-70400000D01*
X159500000Y-71600000D02*
X157500000Y-71600000D01*
X156300000Y-70400000D02*
X156300000Y-66500000D01*
X150600000Y-67000000D02*
X150600000Y-68100000D01*
X152100000Y-65500000D02*
X150600000Y-67000000D01*
X155300000Y-65500000D02*
X152100000Y-65500000D01*
X156300000Y-66500000D02*
X155300000Y-65500000D01*
X110300000Y-65500000D02*
X107100000Y-65500000D01*
X107100000Y-65500000D02*
X105600000Y-67000000D01*
X105600000Y-67000000D02*
X105600000Y-68100000D01*
X111300000Y-66500000D02*
X110300000Y-65500000D01*
X111300000Y-70400000D02*
X111300000Y-66500000D01*
X114500000Y-71600000D02*
X112500000Y-71600000D01*
X112500000Y-71600000D02*
X111300000Y-70400000D01*
X116300000Y-110000000D02*
X116600000Y-110300000D01*
X115100000Y-110000000D02*
X116300000Y-110000000D01*
X115100000Y-110000000D02*
X115100000Y-108100000D01*
X115000000Y-108000000D02*
X115100000Y-108100000D01*
X115000000Y-106300000D02*
X115000000Y-108000000D01*
X132100000Y-142100000D02*
X136660000Y-142100000D01*
X136660000Y-142100000D02*
X136860000Y-142300000D01*
X119860000Y-142200000D02*
X119960000Y-142300000D01*
X115100000Y-142200000D02*
X119860000Y-142200000D01*
X160100000Y-142200000D02*
X164860000Y-142200000D01*
X164860000Y-142200000D02*
X164960000Y-142300000D01*
X177100000Y-142100000D02*
X181660000Y-142100000D01*
X181660000Y-142100000D02*
X181860000Y-142300000D01*
X160100000Y-110000000D02*
X161300000Y-110000000D01*
X161300000Y-110000000D02*
X161600000Y-110300000D01*
X160100000Y-110000000D02*
X160100000Y-108100000D01*
X178100000Y-110000000D02*
X178400000Y-110300000D01*
X177000000Y-110000000D02*
X178100000Y-110000000D01*
X177000000Y-108100000D02*
X177000000Y-110000000D01*
X177000000Y-108100000D02*
X177000000Y-106975000D01*
X177000000Y-106975000D02*
X177000000Y-106100000D01*
X160000000Y-108000000D02*
X160100000Y-108100000D01*
X160000000Y-106300000D02*
X160000000Y-108000000D01*
X132000000Y-108100000D02*
X132000000Y-106975000D01*
X132000000Y-106975000D02*
X132000000Y-106100000D01*
X133100000Y-110000000D02*
X133400000Y-110300000D01*
X132000000Y-110000000D02*
X133100000Y-110000000D01*
X132000000Y-108100000D02*
X132000000Y-110000000D01*
X181660000Y-97100000D02*
X181860000Y-97300000D01*
X177100000Y-97100000D02*
X181660000Y-97100000D01*
X164860000Y-97200000D02*
X164960000Y-97300000D01*
X160100000Y-97200000D02*
X164860000Y-97200000D01*
X160100000Y-65000000D02*
X161300000Y-65000000D01*
X161300000Y-65000000D02*
X161600000Y-65300000D01*
X178100000Y-65000000D02*
X178400000Y-65300000D01*
X177000000Y-65000000D02*
X178100000Y-65000000D01*
X177000000Y-63100000D02*
X177000000Y-65000000D01*
X177000000Y-63100000D02*
X177000000Y-61975000D01*
X177000000Y-61975000D02*
X177000000Y-61100000D01*
X160100000Y-65000000D02*
X160100000Y-63100000D01*
X160000000Y-63000000D02*
X160100000Y-63100000D01*
X160000000Y-61300000D02*
X160000000Y-63000000D01*
X132000000Y-61975000D02*
X132000000Y-61100000D01*
X132000000Y-63100000D02*
X132000000Y-61975000D01*
X115000000Y-61300000D02*
X115000000Y-63000000D01*
X115000000Y-63000000D02*
X115100000Y-63100000D01*
X115100000Y-65000000D02*
X116300000Y-65000000D01*
X116300000Y-65000000D02*
X116600000Y-65300000D01*
X132000000Y-65000000D02*
X133100000Y-65000000D01*
X133100000Y-65000000D02*
X133400000Y-65300000D01*
X132000000Y-63100000D02*
X132000000Y-65000000D01*
X115100000Y-65000000D02*
X115100000Y-63100000D01*
X132100000Y-97100000D02*
X136660000Y-97100000D01*
X136660000Y-97100000D02*
X136860000Y-97300000D01*
X115100000Y-97200000D02*
X119860000Y-97200000D01*
X119860000Y-97200000D02*
X119960000Y-97300000D01*
X127025000Y-113100000D02*
X127925000Y-112200000D01*
X125040000Y-113100000D02*
X127025000Y-113100000D01*
X127925000Y-112200000D02*
X129400000Y-112200000D01*
X129400000Y-112200000D02*
X130000000Y-111600000D01*
X113100000Y-110000000D02*
X113100000Y-111100000D01*
X114500000Y-112500000D02*
X114500000Y-114100000D01*
X113100000Y-111100000D02*
X114500000Y-112500000D01*
X113100000Y-110000000D02*
X111700000Y-110000000D01*
X130500000Y-100600000D02*
X115900000Y-100600000D01*
X115900000Y-100600000D02*
X113100000Y-103400000D01*
X113100000Y-108100000D02*
X113100000Y-110000000D01*
X113100000Y-103400000D02*
X113100000Y-108100000D01*
X111700000Y-110000000D02*
X111100000Y-109400000D01*
X159500000Y-112500000D02*
X159500000Y-114100000D01*
X156700000Y-110000000D02*
X156100000Y-109400000D01*
X158100000Y-110000000D02*
X156700000Y-110000000D01*
X143540000Y-110360000D02*
X144400000Y-109500000D01*
X143540000Y-110400000D02*
X143540000Y-110360000D01*
X158100000Y-111100000D02*
X159500000Y-112500000D01*
X158100000Y-110000000D02*
X158100000Y-111100000D01*
X158100000Y-108100000D02*
X158100000Y-110000000D01*
X170040000Y-113100000D02*
X172025000Y-113100000D01*
X175000000Y-111600000D02*
X175000000Y-110000000D01*
X172025000Y-113100000D02*
X172925000Y-112200000D01*
X172925000Y-112200000D02*
X174400000Y-112200000D01*
X174400000Y-112200000D02*
X175000000Y-111600000D01*
X188540000Y-110360000D02*
X189400000Y-109500000D01*
X189400000Y-109500000D02*
X189400000Y-101400000D01*
X188600000Y-100600000D02*
X175500000Y-100600000D01*
X189400000Y-101400000D02*
X188600000Y-100600000D01*
X175000000Y-108100000D02*
X175000000Y-110000000D01*
X175000000Y-101100000D02*
X175000000Y-108100000D01*
X175500000Y-100600000D02*
X160900000Y-100600000D01*
X175500000Y-100600000D02*
X175000000Y-101100000D01*
X186940000Y-113100000D02*
X186940000Y-112000000D01*
X186940000Y-112000000D02*
X188540000Y-110400000D01*
X188540000Y-110400000D02*
X188540000Y-110360000D01*
X160900000Y-100600000D02*
X158100000Y-103400000D01*
X158100000Y-103400000D02*
X158100000Y-108100000D01*
X130500000Y-100600000D02*
X130000000Y-101100000D01*
X130000000Y-101100000D02*
X130000000Y-108100000D01*
X143600000Y-100600000D02*
X130500000Y-100600000D01*
X141940000Y-112000000D02*
X143540000Y-110400000D01*
X144400000Y-109500000D02*
X144400000Y-101400000D01*
X141940000Y-113100000D02*
X141940000Y-112000000D01*
X144400000Y-101400000D02*
X143600000Y-100600000D01*
X130000000Y-108100000D02*
X130000000Y-110000000D01*
X130000000Y-111600000D02*
X130000000Y-110000000D01*
X158100000Y-66100000D02*
X159500000Y-67500000D01*
X158100000Y-65000000D02*
X158100000Y-66100000D01*
X156700000Y-65000000D02*
X156100000Y-64400000D01*
X158100000Y-65000000D02*
X156700000Y-65000000D01*
X159500000Y-67500000D02*
X159500000Y-69100000D01*
X172025000Y-68100000D02*
X172925000Y-67200000D01*
X172925000Y-67200000D02*
X174400000Y-67200000D01*
X174400000Y-67200000D02*
X175000000Y-66600000D01*
X170040000Y-68100000D02*
X172025000Y-68100000D01*
X175000000Y-66600000D02*
X175000000Y-65000000D01*
X175000000Y-63100000D02*
X175000000Y-65000000D01*
X188540000Y-65360000D02*
X189400000Y-64500000D01*
X175500000Y-55600000D02*
X175000000Y-56100000D01*
X189400000Y-64500000D02*
X189400000Y-56400000D01*
X189400000Y-56400000D02*
X188600000Y-55600000D01*
X188600000Y-55600000D02*
X175500000Y-55600000D01*
X175000000Y-56100000D02*
X175000000Y-63100000D01*
X158100000Y-63100000D02*
X158100000Y-65000000D01*
X158100000Y-58400000D02*
X158100000Y-63100000D01*
X160900000Y-55600000D02*
X158100000Y-58400000D01*
X175500000Y-55600000D02*
X160900000Y-55600000D01*
X186940000Y-67000000D02*
X188540000Y-65400000D01*
X186940000Y-68100000D02*
X186940000Y-67000000D01*
X188540000Y-65400000D02*
X188540000Y-65360000D01*
X113100000Y-65000000D02*
X111700000Y-65000000D01*
X111700000Y-65000000D02*
X111100000Y-64400000D01*
X115900000Y-55600000D02*
X113100000Y-58400000D01*
X113100000Y-58400000D02*
X113100000Y-63100000D01*
X130500000Y-55600000D02*
X115900000Y-55600000D01*
X130500000Y-55600000D02*
X130000000Y-56100000D01*
X130000000Y-56100000D02*
X130000000Y-63100000D01*
X143600000Y-55600000D02*
X130500000Y-55600000D01*
X144400000Y-56400000D02*
X143600000Y-55600000D01*
X144400000Y-64500000D02*
X144400000Y-56400000D01*
X143540000Y-65360000D02*
X144400000Y-64500000D01*
X143540000Y-65400000D02*
X143540000Y-65360000D01*
X141940000Y-68100000D02*
X141940000Y-67000000D01*
X141940000Y-67000000D02*
X143540000Y-65400000D01*
X129400000Y-67200000D02*
X130000000Y-66600000D01*
X130000000Y-66600000D02*
X130000000Y-65000000D01*
X127925000Y-67200000D02*
X129400000Y-67200000D01*
X125040000Y-68100000D02*
X127025000Y-68100000D01*
X127025000Y-68100000D02*
X127925000Y-67200000D01*
X130000000Y-63100000D02*
X130000000Y-65000000D01*
X113100000Y-65000000D02*
X113100000Y-66100000D01*
X113100000Y-66100000D02*
X114500000Y-67500000D01*
X114500000Y-67500000D02*
X114500000Y-69100000D01*
X113100000Y-63100000D02*
X113100000Y-65000000D01*
X110500000Y-121100000D02*
X110500000Y-124700000D01*
X114500000Y-119100000D02*
X112500000Y-119100000D01*
X112500000Y-119100000D02*
X110500000Y-121100000D01*
X110200000Y-125000000D02*
X107200000Y-125000000D01*
X107200000Y-125000000D02*
X105600000Y-126600000D01*
X110500000Y-124700000D02*
X110200000Y-125000000D01*
X105600000Y-126600000D02*
X105600000Y-127700000D01*
X155500000Y-121100000D02*
X155500000Y-124700000D01*
X159500000Y-119100000D02*
X157500000Y-119100000D01*
X157500000Y-119100000D02*
X155500000Y-121100000D01*
X152200000Y-125000000D02*
X150600000Y-126600000D01*
X155200000Y-125000000D02*
X152200000Y-125000000D01*
X150600000Y-126600000D02*
X150600000Y-127700000D01*
X155500000Y-124700000D02*
X155200000Y-125000000D01*
X157500000Y-74100000D02*
X155500000Y-76100000D01*
X159500000Y-74100000D02*
X157500000Y-74100000D01*
X155500000Y-79700000D02*
X155200000Y-80000000D01*
X155500000Y-76100000D02*
X155500000Y-79700000D01*
X152200000Y-80000000D02*
X150600000Y-81600000D01*
X155200000Y-80000000D02*
X152200000Y-80000000D01*
X150600000Y-81600000D02*
X150600000Y-82700000D01*
X110200000Y-80000000D02*
X107200000Y-80000000D01*
X107200000Y-80000000D02*
X105600000Y-81600000D01*
X105600000Y-81600000D02*
X105600000Y-82700000D01*
X110500000Y-79700000D02*
X110200000Y-80000000D01*
X110500000Y-76100000D02*
X110500000Y-79700000D01*
X114500000Y-74100000D02*
X112500000Y-74100000D01*
X112500000Y-74100000D02*
X110500000Y-76100000D01*
X111300000Y-122800000D02*
X111300000Y-125900000D01*
X112500000Y-121600000D02*
X111300000Y-122800000D01*
X114500000Y-121600000D02*
X112500000Y-121600000D01*
X110400000Y-126800000D02*
X110400000Y-139100000D01*
X111300000Y-125900000D02*
X110400000Y-126800000D01*
X107200000Y-139600000D02*
X105600000Y-141200000D01*
X105600000Y-141200000D02*
X105600000Y-142300000D01*
X110400000Y-139100000D02*
X109900000Y-139600000D01*
X109900000Y-139600000D02*
X107200000Y-139600000D01*
X152200000Y-139600000D02*
X150600000Y-141200000D01*
X155400000Y-139100000D02*
X154900000Y-139600000D01*
X150600000Y-141200000D02*
X150600000Y-142300000D01*
X154900000Y-139600000D02*
X152200000Y-139600000D01*
X155400000Y-126800000D02*
X155400000Y-139100000D01*
X159500000Y-121600000D02*
X157500000Y-121600000D01*
X156300000Y-122800000D02*
X156300000Y-125900000D01*
X157500000Y-121600000D02*
X156300000Y-122800000D01*
X156300000Y-125900000D02*
X155400000Y-126800000D01*
X159500000Y-76600000D02*
X157500000Y-76600000D01*
X157500000Y-76600000D02*
X156300000Y-77800000D01*
X156300000Y-77800000D02*
X156300000Y-80900000D01*
X156300000Y-80900000D02*
X155400000Y-81800000D01*
X155400000Y-81800000D02*
X155400000Y-94100000D01*
X155400000Y-94100000D02*
X154900000Y-94600000D01*
X150600000Y-96200000D02*
X150600000Y-97300000D01*
X152200000Y-94600000D02*
X150600000Y-96200000D01*
X154900000Y-94600000D02*
X152200000Y-94600000D01*
X109900000Y-94600000D02*
X107200000Y-94600000D01*
X107200000Y-94600000D02*
X105600000Y-96200000D01*
X105600000Y-96200000D02*
X105600000Y-97300000D01*
X110400000Y-94100000D02*
X109900000Y-94600000D01*
X110400000Y-81800000D02*
X110400000Y-94100000D01*
X111300000Y-80900000D02*
X110400000Y-81800000D01*
X111300000Y-77800000D02*
X111300000Y-80900000D01*
X114500000Y-76600000D02*
X112500000Y-76600000D01*
X112500000Y-76600000D02*
X111300000Y-77800000D01*
X122500000Y-112000000D02*
X122500000Y-113100000D01*
X114500000Y-124100000D02*
X116500000Y-124100000D01*
X116500000Y-124100000D02*
X117200000Y-123400000D01*
X117200000Y-123400000D02*
X117200000Y-112850798D01*
X117200000Y-112850798D02*
X117800000Y-112250798D01*
X117800000Y-112250798D02*
X117800000Y-111400000D01*
X120900000Y-110400000D02*
X122500000Y-112000000D01*
X118800000Y-110400000D02*
X120900000Y-110400000D01*
X117800000Y-111400000D02*
X118800000Y-110400000D01*
X159500000Y-124100000D02*
X161500000Y-124100000D01*
X161500000Y-124100000D02*
X162200000Y-123400000D01*
X162200000Y-123400000D02*
X162200000Y-112850798D01*
X163800000Y-110400000D02*
X165900000Y-110400000D01*
X162800000Y-111400000D02*
X163800000Y-110400000D01*
X165900000Y-110400000D02*
X167500000Y-112000000D01*
X167500000Y-112000000D02*
X167500000Y-113100000D01*
X162200000Y-112850798D02*
X162800000Y-112250798D01*
X162800000Y-112250798D02*
X162800000Y-111400000D01*
X161500000Y-79100000D02*
X162200000Y-78400000D01*
X159500000Y-79100000D02*
X161500000Y-79100000D01*
X162200000Y-78400000D02*
X162200000Y-67850798D01*
X167500000Y-67000000D02*
X167500000Y-68100000D01*
X162800000Y-66400000D02*
X163800000Y-65400000D01*
X165900000Y-65400000D02*
X167500000Y-67000000D01*
X163800000Y-65400000D02*
X165900000Y-65400000D01*
X162200000Y-67850798D02*
X162800000Y-67250798D01*
X162800000Y-67250798D02*
X162800000Y-66400000D01*
X118800000Y-65400000D02*
X120900000Y-65400000D01*
X120900000Y-65400000D02*
X122500000Y-67000000D01*
X122500000Y-67000000D02*
X122500000Y-68100000D01*
X117800000Y-66400000D02*
X118800000Y-65400000D01*
X117800000Y-67250798D02*
X117800000Y-66400000D01*
X117200000Y-78400000D02*
X117200000Y-67850798D01*
X117200000Y-67850798D02*
X117800000Y-67250798D01*
X114500000Y-79100000D02*
X116500000Y-79100000D01*
X116500000Y-79100000D02*
X117200000Y-78400000D01*
X129500000Y-114100000D02*
X127400000Y-116200000D01*
X124200000Y-124900000D02*
X122500000Y-126600000D01*
X122500000Y-126600000D02*
X122500000Y-127700000D01*
X126900000Y-124900000D02*
X124200000Y-124900000D01*
X127400000Y-116200000D02*
X127400000Y-124400000D01*
X127400000Y-124400000D02*
X126900000Y-124900000D01*
X131500000Y-114100000D02*
X129500000Y-114100000D01*
X172400000Y-124400000D02*
X171900000Y-124900000D01*
X171900000Y-124900000D02*
X169200000Y-124900000D01*
X167500000Y-126600000D02*
X167500000Y-127700000D01*
X169200000Y-124900000D02*
X167500000Y-126600000D01*
X176500000Y-114100000D02*
X174500000Y-114100000D01*
X174500000Y-114100000D02*
X172400000Y-116200000D01*
X172400000Y-116200000D02*
X172400000Y-124400000D01*
X172400000Y-71200000D02*
X172400000Y-79400000D01*
X167500000Y-81600000D02*
X167500000Y-82700000D01*
X169200000Y-79900000D02*
X167500000Y-81600000D01*
X171900000Y-79900000D02*
X169200000Y-79900000D01*
X172400000Y-79400000D02*
X171900000Y-79900000D01*
X174500000Y-69100000D02*
X172400000Y-71200000D01*
X176500000Y-69100000D02*
X174500000Y-69100000D01*
X126900000Y-79900000D02*
X124200000Y-79900000D01*
X124200000Y-79900000D02*
X122500000Y-81600000D01*
X122500000Y-81600000D02*
X122500000Y-82700000D01*
X127400000Y-79400000D02*
X126900000Y-79900000D01*
X127400000Y-71200000D02*
X127400000Y-79400000D01*
X131500000Y-69100000D02*
X129500000Y-69100000D01*
X129500000Y-69100000D02*
X127400000Y-71200000D01*
X129000000Y-118350000D02*
X129000000Y-128800000D01*
X130750000Y-116600000D02*
X129000000Y-118350000D01*
X131500000Y-116600000D02*
X130750000Y-116600000D01*
X129000000Y-128800000D02*
X130300000Y-130100000D01*
X130300000Y-130100000D02*
X130300000Y-138189965D01*
X130300000Y-138189965D02*
X129300011Y-139189954D01*
X129300011Y-139389954D02*
X128889954Y-139800011D01*
X129300011Y-139189954D02*
X129300011Y-139389954D01*
X122500000Y-141200000D02*
X122500000Y-142300000D01*
X123899989Y-139800011D02*
X122500000Y-141200000D01*
X128889954Y-139800011D02*
X123899989Y-139800011D01*
X174000000Y-128800000D02*
X175300000Y-130100000D01*
X167500000Y-141200000D02*
X167500000Y-142300000D01*
X174300011Y-139389954D02*
X173889954Y-139800011D01*
X173889954Y-139800011D02*
X168899989Y-139800011D01*
X168899989Y-139800011D02*
X167500000Y-141200000D01*
X174300011Y-139189954D02*
X174300011Y-139389954D01*
X175300000Y-138189965D02*
X174300011Y-139189954D01*
X175300000Y-130100000D02*
X175300000Y-138189965D01*
X175750000Y-116600000D02*
X174000000Y-118350000D01*
X176500000Y-116600000D02*
X175750000Y-116600000D01*
X174000000Y-118350000D02*
X174000000Y-128800000D01*
X174300011Y-94389954D02*
X173889954Y-94800011D01*
X168899989Y-94800011D02*
X167500000Y-96200000D01*
X173889954Y-94800011D02*
X168899989Y-94800011D01*
X174300011Y-94189954D02*
X174300011Y-94389954D01*
X167500000Y-96200000D02*
X167500000Y-97300000D01*
X174000000Y-83800000D02*
X175300000Y-85100000D01*
X175300000Y-85100000D02*
X175300000Y-93189965D01*
X175300000Y-93189965D02*
X174300011Y-94189954D01*
X175750000Y-71600000D02*
X174000000Y-73350000D01*
X176500000Y-71600000D02*
X175750000Y-71600000D01*
X174000000Y-73350000D02*
X174000000Y-83800000D01*
X129300011Y-94189954D02*
X129300011Y-94389954D01*
X130300000Y-93189965D02*
X129300011Y-94189954D01*
X128889954Y-94800011D02*
X123899989Y-94800011D01*
X129300011Y-94389954D02*
X128889954Y-94800011D01*
X129000000Y-73350000D02*
X129000000Y-83800000D01*
X130300000Y-85100000D02*
X130300000Y-93189965D01*
X129000000Y-83800000D02*
X130300000Y-85100000D01*
X131500000Y-71600000D02*
X130750000Y-71600000D01*
X122500000Y-96200000D02*
X122500000Y-97300000D01*
X123899989Y-94800011D02*
X122500000Y-96200000D01*
X130750000Y-71600000D02*
X129000000Y-73350000D01*
X133500000Y-119100000D02*
X134300000Y-118300000D01*
X131500000Y-119100000D02*
X133500000Y-119100000D01*
X134300000Y-118300000D02*
X134300000Y-112000000D01*
X179300000Y-118300000D02*
X179300000Y-112000000D01*
X176500000Y-119100000D02*
X178500000Y-119100000D01*
X178500000Y-119100000D02*
X179300000Y-118300000D01*
X182800000Y-110400000D02*
X184400000Y-112000000D01*
X179300000Y-112000000D02*
X180900000Y-110400000D01*
X180900000Y-110400000D02*
X182800000Y-110400000D01*
X184400000Y-112000000D02*
X184400000Y-113100000D01*
X135900000Y-110400000D02*
X137800000Y-110400000D01*
X137800000Y-110400000D02*
X139400000Y-112000000D01*
X139400000Y-112000000D02*
X139400000Y-113100000D01*
X134300000Y-112000000D02*
X135900000Y-110400000D01*
X178500000Y-74100000D02*
X179300000Y-73300000D01*
X176500000Y-74100000D02*
X178500000Y-74100000D01*
X179300000Y-73300000D02*
X179300000Y-67000000D01*
X179300000Y-67000000D02*
X180900000Y-65400000D01*
X182800000Y-65400000D02*
X184400000Y-67000000D01*
X180900000Y-65400000D02*
X182800000Y-65400000D01*
X184400000Y-67000000D02*
X184400000Y-68100000D01*
X135900000Y-65400000D02*
X137800000Y-65400000D01*
X137800000Y-65400000D02*
X139400000Y-67000000D01*
X139400000Y-67000000D02*
X139400000Y-68100000D01*
X134300000Y-67000000D02*
X135900000Y-65400000D01*
X134300000Y-73300000D02*
X134300000Y-67000000D01*
X131500000Y-74100000D02*
X133500000Y-74100000D01*
X133500000Y-74100000D02*
X134300000Y-73300000D01*
X131500000Y-121600000D02*
X134100000Y-121600000D01*
X134600000Y-122100000D02*
X134600000Y-124100000D01*
X134100000Y-121600000D02*
X134600000Y-122100000D01*
X135600000Y-125100000D02*
X137900000Y-125100000D01*
X139400000Y-126600000D02*
X139400000Y-127700000D01*
X137900000Y-125100000D02*
X139400000Y-126600000D01*
X134600000Y-124100000D02*
X135600000Y-125100000D01*
X184400000Y-126600000D02*
X184400000Y-127700000D01*
X180600000Y-125100000D02*
X182900000Y-125100000D01*
X182900000Y-125100000D02*
X184400000Y-126600000D01*
X179600000Y-124100000D02*
X180600000Y-125100000D01*
X179100000Y-121600000D02*
X179600000Y-122100000D01*
X176500000Y-121600000D02*
X179100000Y-121600000D01*
X179600000Y-122100000D02*
X179600000Y-124100000D01*
X179600000Y-79100000D02*
X180600000Y-80100000D01*
X182900000Y-80100000D02*
X184400000Y-81600000D01*
X184400000Y-81600000D02*
X184400000Y-82700000D01*
X180600000Y-80100000D02*
X182900000Y-80100000D01*
X179600000Y-77100000D02*
X179600000Y-79100000D01*
X176500000Y-76600000D02*
X179100000Y-76600000D01*
X179100000Y-76600000D02*
X179600000Y-77100000D01*
X131500000Y-76600000D02*
X134100000Y-76600000D01*
X134100000Y-76600000D02*
X134600000Y-77100000D01*
X137900000Y-80100000D02*
X139400000Y-81600000D01*
X134600000Y-77100000D02*
X134600000Y-79100000D01*
X134600000Y-79100000D02*
X135600000Y-80100000D01*
X135600000Y-80100000D02*
X137900000Y-80100000D01*
X139400000Y-81600000D02*
X139400000Y-82700000D01*
X131500000Y-124100000D02*
X133500000Y-124100000D01*
X133500000Y-124100000D02*
X134400000Y-125000000D01*
X134400000Y-125000000D02*
X134400000Y-138900000D01*
X139400000Y-141200000D02*
X139400000Y-142300000D01*
X134400000Y-138900000D02*
X135000000Y-139500000D01*
X137700000Y-139500000D02*
X139400000Y-141200000D01*
X135000000Y-139500000D02*
X137700000Y-139500000D01*
X178500000Y-124100000D02*
X179400000Y-125000000D01*
X176500000Y-124100000D02*
X178500000Y-124100000D01*
X179400000Y-125000000D02*
X179400000Y-138900000D01*
X182700000Y-139500000D02*
X184400000Y-141200000D01*
X184400000Y-141200000D02*
X184400000Y-142300000D01*
X180000000Y-139500000D02*
X182700000Y-139500000D01*
X179400000Y-138900000D02*
X180000000Y-139500000D01*
X184400000Y-96200000D02*
X184400000Y-97300000D01*
X180000000Y-94500000D02*
X182700000Y-94500000D01*
X179400000Y-93900000D02*
X180000000Y-94500000D01*
X182700000Y-94500000D02*
X184400000Y-96200000D01*
X179400000Y-80000000D02*
X179400000Y-93900000D01*
X178500000Y-79100000D02*
X179400000Y-80000000D01*
X176500000Y-79100000D02*
X178500000Y-79100000D01*
X131500000Y-79100000D02*
X133500000Y-79100000D01*
X133500000Y-79100000D02*
X134400000Y-80000000D01*
X134400000Y-80000000D02*
X134400000Y-93900000D01*
X134400000Y-93900000D02*
X135000000Y-94500000D01*
X135000000Y-94500000D02*
X137700000Y-94500000D01*
X137700000Y-94500000D02*
X139400000Y-96200000D01*
X139400000Y-96200000D02*
X139400000Y-97300000D01*
X129900000Y-142100000D02*
X129900000Y-140300000D01*
X129900000Y-140300000D02*
X130100000Y-140100000D01*
X174900000Y-142100000D02*
X174900000Y-140300000D01*
X174900000Y-140300000D02*
X175100000Y-140100000D01*
X174900000Y-95300000D02*
X175100000Y-95100000D01*
X174900000Y-97100000D02*
X174900000Y-95300000D01*
X129900000Y-97100000D02*
X129900000Y-95300000D01*
X129900000Y-95300000D02*
X130100000Y-95100000D01*
X112900000Y-142200000D02*
X112900000Y-140200000D01*
X112900000Y-140200000D02*
X113000000Y-140100000D01*
X157900000Y-142200000D02*
X157900000Y-140200000D01*
X157900000Y-140200000D02*
X158000000Y-140100000D01*
X157900000Y-95200000D02*
X158000000Y-95100000D01*
X157900000Y-97200000D02*
X157900000Y-95200000D01*
X112900000Y-97200000D02*
X112900000Y-95200000D01*
X112900000Y-95200000D02*
X113000000Y-95100000D01*
X131500000Y-126600000D02*
X131500000Y-134300000D01*
X131500000Y-134300000D02*
X132000000Y-134800000D01*
X132000000Y-134800000D02*
X132000000Y-140100000D01*
X127500000Y-139100000D02*
X129100000Y-137500000D01*
X120150798Y-139100000D02*
X127500000Y-139100000D01*
X119150798Y-140100000D02*
X120150798Y-139100000D01*
X114900000Y-140100000D02*
X119150798Y-140100000D01*
X159900000Y-140100000D02*
X164150798Y-140100000D01*
X164150798Y-140100000D02*
X165150798Y-139100000D01*
X165150798Y-139100000D02*
X172500000Y-139100000D01*
X177000000Y-134800000D02*
X177000000Y-140100000D01*
X176500000Y-134300000D02*
X177000000Y-134800000D01*
X176500000Y-126600000D02*
X176500000Y-134300000D01*
X172500000Y-139100000D02*
X174100000Y-137500000D01*
X165150798Y-94100000D02*
X172500000Y-94100000D01*
X164150798Y-95100000D02*
X165150798Y-94100000D01*
X159900000Y-95100000D02*
X164150798Y-95100000D01*
X176500000Y-81600000D02*
X176500000Y-89300000D01*
X177000000Y-89800000D02*
X177000000Y-95100000D01*
X176500000Y-89300000D02*
X177000000Y-89800000D01*
X172500000Y-94100000D02*
X174100000Y-92500000D01*
X127500000Y-94100000D02*
X129100000Y-92500000D01*
X120150798Y-94100000D02*
X127500000Y-94100000D01*
X114900000Y-95100000D02*
X119150798Y-95100000D01*
X119150798Y-95100000D02*
X120150798Y-94100000D01*
X131500000Y-89300000D02*
X132000000Y-89800000D01*
X132000000Y-89800000D02*
X132000000Y-95100000D01*
X131500000Y-81600000D02*
X131500000Y-89300000D01*
M02*
