G04 #@! TF.FileFunction,Soldermask,Bot*
%FSLAX46Y46*%
G04 Gerber Fmt 4.6, Leading zero omitted, Abs format (unit mm)*
G04 Created by KiCad (PCBNEW 4.0.2-stable) date 12/4/2017 4:29:09 PM*
%MOMM*%
G01*
G04 APERTURE LIST*
%ADD10C,0.100000*%
%ADD11O,2.200000X4.400000*%
%ADD12R,3.400000X1.900000*%
%ADD13O,3.400000X1.900000*%
G04 APERTURE END LIST*
D10*
D11*
X167500000Y-113100000D03*
X164960000Y-113100000D03*
X170040000Y-113100000D03*
X184400000Y-113100000D03*
X181860000Y-113100000D03*
X186940000Y-113100000D03*
X167500000Y-127700000D03*
X164960000Y-127700000D03*
X170040000Y-127700000D03*
X184400000Y-127700000D03*
X181860000Y-127700000D03*
X186940000Y-127700000D03*
X167500000Y-142300000D03*
X164960000Y-142300000D03*
X170040000Y-142300000D03*
D12*
X176500000Y-114100000D03*
D13*
X176500000Y-116600000D03*
X176500000Y-119100000D03*
X176500000Y-121600000D03*
X176500000Y-124100000D03*
X176500000Y-126600000D03*
D11*
X184400000Y-142300000D03*
X181860000Y-142300000D03*
X186940000Y-142300000D03*
X105600000Y-127700000D03*
X103060000Y-127700000D03*
X108140000Y-127700000D03*
X105600000Y-142300000D03*
X103060000Y-142300000D03*
X108140000Y-142300000D03*
X150600000Y-142300000D03*
X148060000Y-142300000D03*
X153140000Y-142300000D03*
D12*
X159500000Y-114100000D03*
D13*
X159500000Y-116600000D03*
X159500000Y-119100000D03*
X159500000Y-121600000D03*
X159500000Y-124100000D03*
X159500000Y-126600000D03*
D11*
X139400000Y-142300000D03*
X136860000Y-142300000D03*
X141940000Y-142300000D03*
X150600000Y-127700000D03*
X148060000Y-127700000D03*
X153140000Y-127700000D03*
X105600000Y-113100000D03*
X103060000Y-113100000D03*
X108140000Y-113100000D03*
D12*
X114500000Y-114100000D03*
D13*
X114500000Y-116600000D03*
X114500000Y-119100000D03*
X114500000Y-121600000D03*
X114500000Y-124100000D03*
X114500000Y-126600000D03*
D11*
X122500000Y-142300000D03*
X119960000Y-142300000D03*
X125040000Y-142300000D03*
X139400000Y-127700000D03*
X136860000Y-127700000D03*
X141940000Y-127700000D03*
X122500000Y-127700000D03*
X119960000Y-127700000D03*
X125040000Y-127700000D03*
D12*
X131500000Y-114100000D03*
D13*
X131500000Y-116600000D03*
X131500000Y-119100000D03*
X131500000Y-121600000D03*
X131500000Y-124100000D03*
X131500000Y-126600000D03*
D11*
X150600000Y-113100000D03*
X148060000Y-113100000D03*
X153140000Y-113100000D03*
X139400000Y-113100000D03*
X136860000Y-113100000D03*
X141940000Y-113100000D03*
X122500000Y-113100000D03*
X119960000Y-113100000D03*
X125040000Y-113100000D03*
D12*
X159500000Y-69100000D03*
D13*
X159500000Y-71600000D03*
X159500000Y-74100000D03*
X159500000Y-76600000D03*
X159500000Y-79100000D03*
X159500000Y-81600000D03*
D11*
X150600000Y-82700000D03*
X148060000Y-82700000D03*
X153140000Y-82700000D03*
X150600000Y-97300000D03*
X148060000Y-97300000D03*
X153140000Y-97300000D03*
X150600000Y-68100000D03*
X148060000Y-68100000D03*
X153140000Y-68100000D03*
D12*
X176500000Y-69100000D03*
D13*
X176500000Y-71600000D03*
X176500000Y-74100000D03*
X176500000Y-76600000D03*
X176500000Y-79100000D03*
X176500000Y-81600000D03*
D11*
X167500000Y-82700000D03*
X164960000Y-82700000D03*
X170040000Y-82700000D03*
X184400000Y-82700000D03*
X181860000Y-82700000D03*
X186940000Y-82700000D03*
X167500000Y-97300000D03*
X164960000Y-97300000D03*
X170040000Y-97300000D03*
X184400000Y-97300000D03*
X181860000Y-97300000D03*
X186940000Y-97300000D03*
X167500000Y-68100000D03*
X164960000Y-68100000D03*
X170040000Y-68100000D03*
X184400000Y-68100000D03*
X181860000Y-68100000D03*
X186940000Y-68100000D03*
X139400000Y-97300000D03*
X136860000Y-97300000D03*
X141940000Y-97300000D03*
X139400000Y-82700000D03*
X136860000Y-82700000D03*
X141940000Y-82700000D03*
X139400000Y-68100000D03*
X136860000Y-68100000D03*
X141940000Y-68100000D03*
X122500000Y-97300000D03*
X119960000Y-97300000D03*
X125040000Y-97300000D03*
X122500000Y-82700000D03*
X119960000Y-82700000D03*
X125040000Y-82700000D03*
X122500000Y-68100000D03*
X119960000Y-68100000D03*
X125040000Y-68100000D03*
X105600000Y-97300000D03*
X103060000Y-97300000D03*
X108140000Y-97300000D03*
X105600000Y-82700000D03*
X103060000Y-82700000D03*
X108140000Y-82700000D03*
X105600000Y-68100000D03*
X103060000Y-68100000D03*
X108140000Y-68100000D03*
D12*
X131500000Y-69100000D03*
D13*
X131500000Y-71600000D03*
X131500000Y-74100000D03*
X131500000Y-76600000D03*
X131500000Y-79100000D03*
X131500000Y-81600000D03*
D12*
X114500000Y-69100000D03*
D13*
X114500000Y-71600000D03*
X114500000Y-74100000D03*
X114500000Y-76600000D03*
X114500000Y-79100000D03*
X114500000Y-81600000D03*
M02*
