M48
;DRILL file {KiCad 4.0.2-stable} date 12/4/2017 4:29:13 PM
;FORMAT={3:3/ absolute / metric / suppress leading zeros}
FMAT,2
METRIC,TZ
T1C0.400
T2C0.900
T3C1.000
%
G90
G05
M71
T1
X111100Y-64400
X111100Y-109400
X115000Y-61300
X115000Y-106300
X116600Y-65300
X116600Y-110300
X129100Y-92500
X129100Y-137500
X132000Y-61100
X132000Y-106100
X133400Y-65300
X133400Y-110300
X156100Y-64400
X156100Y-109400
X160000Y-61300
X160000Y-106300
X161600Y-65300
X161600Y-110300
X174100Y-92500
X174100Y-137500
X177000Y-61100
X177000Y-106100
X178400Y-65300
X178400Y-110300
T2
X114500Y-69100
X114500Y-71600
X114500Y-74100
X114500Y-76600
X114500Y-79100
X114500Y-81600
X114500Y-114100
X114500Y-116600
X114500Y-119100
X114500Y-121600
X114500Y-124100
X114500Y-126600
X131500Y-69100
X131500Y-71600
X131500Y-74100
X131500Y-76600
X131500Y-79100
X131500Y-81600
X131500Y-114100
X131500Y-116600
X131500Y-119100
X131500Y-121600
X131500Y-124100
X131500Y-126600
X159500Y-69100
X159500Y-71600
X159500Y-74100
X159500Y-76600
X159500Y-79100
X159500Y-81600
X159500Y-114100
X159500Y-116600
X159500Y-119100
X159500Y-121600
X159500Y-124100
X159500Y-126600
X176500Y-69100
X176500Y-71600
X176500Y-74100
X176500Y-76600
X176500Y-79100
X176500Y-81600
X176500Y-114100
X176500Y-116600
X176500Y-119100
X176500Y-121600
X176500Y-124100
X176500Y-126600
T3
X103060Y-68100
X103060Y-82700
X103060Y-97300
X103060Y-113100
X103060Y-127700
X103060Y-142300
X105600Y-68100
X105600Y-82700
X105600Y-97300
X105600Y-113100
X105600Y-127700
X105600Y-142300
X108140Y-68100
X108140Y-82700
X108140Y-97300
X108140Y-113100
X108140Y-127700
X108140Y-142300
X119960Y-68100
X119960Y-82700
X119960Y-97300
X119960Y-113100
X119960Y-127700
X119960Y-142300
X122500Y-68100
X122500Y-82700
X122500Y-97300
X122500Y-113100
X122500Y-127700
X122500Y-142300
X125040Y-68100
X125040Y-82700
X125040Y-97300
X125040Y-113100
X125040Y-127700
X125040Y-142300
X136860Y-68100
X136860Y-82700
X136860Y-97300
X136860Y-113100
X136860Y-127700
X136860Y-142300
X139400Y-68100
X139400Y-82700
X139400Y-97300
X139400Y-113100
X139400Y-127700
X139400Y-142300
X141940Y-68100
X141940Y-82700
X141940Y-97300
X141940Y-113100
X141940Y-127700
X141940Y-142300
X148060Y-68100
X148060Y-82700
X148060Y-97300
X148060Y-113100
X148060Y-127700
X148060Y-142300
X150600Y-68100
X150600Y-82700
X150600Y-97300
X150600Y-113100
X150600Y-127700
X150600Y-142300
X153140Y-68100
X153140Y-82700
X153140Y-97300
X153140Y-113100
X153140Y-127700
X153140Y-142300
X164960Y-68100
X164960Y-82700
X164960Y-97300
X164960Y-113100
X164960Y-127700
X164960Y-142300
X167500Y-68100
X167500Y-82700
X167500Y-97300
X167500Y-113100
X167500Y-127700
X167500Y-142300
X170040Y-68100
X170040Y-82700
X170040Y-97300
X170040Y-113100
X170040Y-127700
X170040Y-142300
X181860Y-68100
X181860Y-82700
X181860Y-97300
X181860Y-113100
X181860Y-127700
X181860Y-142300
X184400Y-68100
X184400Y-82700
X184400Y-97300
X184400Y-113100
X184400Y-127700
X184400Y-142300
X186940Y-68100
X186940Y-82700
X186940Y-97300
X186940Y-113100
X186940Y-127700
X186940Y-142300
T0
M30
